<svg id="svg" version="1.1" xmlns="http://www.w3.org/2000/svg" xmlns:xlink="http://www.w3.org/1999/xlink" width="400" height="466.2962962962963" viewBox="0, 0, 400,466.2962962962963"><g id="svgg"><path id="path0" d="M189.860 23.912 C 188.997 24.228,187.866 24.349,187.024 24.214 C 184.144 23.754,175.185 27.449,175.185 29.098 C 175.185 30.491,183.205 30.598,185.411 29.234 C 187.030 28.234,190.009 27.733,192.060 28.116 C 195.560 28.770,199.766 27.157,197.378 26.076 C 196.885 25.853,195.452 25.144,194.193 24.502 C 191.604 23.180,191.788 23.205,189.860 23.912 M237.593 38.966 C 235.927 39.921,235.359 41.907,236.574 42.526 C 238.325 43.418,240.877 43.745,242.688 43.310 C 244.501 42.876,244.512 42.879,245.865 44.176 C 246.611 44.893,248.111 45.954,249.197 46.536 C 250.283 47.117,251.733 47.894,252.420 48.263 C 253.395 48.786,253.835 48.844,254.427 48.528 C 255.961 47.707,254.870 44.958,252.698 44.171 C 250.792 43.480,247.605 42.624,245.998 42.372 C 244.891 42.198,244.211 41.839,243.775 41.201 C 241.957 38.533,239.743 37.733,237.593 38.966 M153.380 39.999 C 152.285 40.603,151.202 41.246,150.973 41.428 C 150.743 41.611,148.170 42.969,145.254 44.446 C 139.052 47.589,137.339 48.930,129.630 56.684 C 126.472 59.859,123.374 62.871,122.744 63.377 C 122.115 63.883,120.155 66.154,118.390 68.425 C 116.625 70.695,115.017 72.653,114.817 72.776 C 114.484 72.982,111.457 77.499,108.593 82.064 C 107.945 83.097,107.216 84.512,106.974 85.208 C 106.731 85.905,105.330 87.893,103.862 89.626 C 100.892 93.131,94.850 104.409,90.733 114.133 C 88.908 118.444,87.553 120.836,84.893 124.444 C 84.631 124.800,83.668 127.571,82.754 130.601 C 79.620 140.988,78.340 144.634,76.720 147.778 C 75.148 150.832,75.096 151.042,74.989 154.815 C 74.929 156.954,74.532 160.454,74.108 162.593 C 73.684 164.731,73.230 168.315,73.101 170.556 C 72.925 173.597,72.643 175.167,71.988 176.748 C 71.506 177.913,71.111 179.528,71.111 180.336 C 71.111 182.103,69.280 189.914,68.021 193.519 C 67.523 194.944,66.996 197.028,66.850 198.148 C 66.704 199.269,66.184 201.144,65.694 202.315 C 65.001 203.975,64.825 204.997,64.897 206.945 C 64.947 208.320,64.789 211.111,64.547 213.148 C 64.066 217.175,64.141 232.172,64.645 232.989 C 64.812 233.258,65.064 235.015,65.206 236.892 C 65.655 242.826,68.255 246.098,68.412 240.926 C 68.541 236.658,69.283 231.089,70.084 228.389 C 70.820 225.902,70.822 225.811,70.158 223.859 C 69.540 222.041,69.520 221.469,69.929 217.322 C 70.175 214.823,70.375 210.417,70.373 207.531 C 70.370 201.800,70.594 200.892,72.911 197.242 C 73.671 196.046,74.074 194.939,74.074 194.052 C 74.074 193.289,74.377 192.305,74.764 191.809 C 76.104 190.093,77.039 187.782,77.399 185.295 C 78.334 178.834,78.841 177.069,80.393 174.868 C 81.657 173.075,81.959 172.290,82.238 170.068 C 82.422 168.606,82.839 166.894,83.165 166.264 C 83.964 164.720,83.613 164.521,81.845 165.515 C 80.025 166.538,78.750 166.437,78.583 165.257 C 78.410 164.041,79.153 163.333,80.601 163.333 C 81.724 163.333,81.852 163.227,81.852 162.296 C 81.852 160.892,81.230 160.370,79.556 160.370 C 77.871 160.370,77.578 158.836,78.884 156.854 C 79.286 156.245,79.804 154.828,80.035 153.706 C 80.266 152.584,80.713 151.167,81.028 150.556 C 81.344 149.944,81.802 148.444,82.046 147.222 C 82.743 143.738,84.382 138.500,85.367 136.612 C 85.860 135.665,86.514 133.915,86.820 132.723 C 87.954 128.307,89.675 123.926,90.970 122.162 C 91.703 121.164,93.050 118.561,93.963 116.377 C 95.559 112.563,97.935 108.519,98.580 108.519 C 99.089 108.519,98.930 109.957,98.283 111.208 C 97.950 111.853,97.461 113.827,97.197 115.596 C 96.886 117.679,96.323 119.591,95.598 121.027 C 94.983 122.246,94.311 124.305,94.105 125.603 C 92.722 134.308,92.596 135.437,92.893 136.481 L 93.208 137.593 94.395 135.741 C 95.437 134.115,95.556 133.673,95.370 132.123 C 95.170 130.459,95.233 130.289,96.468 129.157 C 97.596 128.124,97.904 127.450,98.675 124.338 C 99.350 121.610,99.851 120.401,100.712 119.421 C 101.972 117.985,103.346 115.426,104.079 113.148 C 104.901 110.596,109.925 100.674,110.925 99.631 C 111.450 99.083,112.213 97.755,112.622 96.680 C 113.030 95.604,113.777 94.184,114.280 93.524 C 114.784 92.864,115.465 91.534,115.793 90.569 C 116.159 89.496,117.201 87.930,118.476 86.537 C 119.623 85.284,121.212 83.291,122.008 82.108 C 122.803 80.925,124.900 78.591,126.669 76.923 C 128.437 75.254,130.348 73.139,130.916 72.222 C 131.484 71.306,133.093 69.365,134.493 67.910 C 135.892 66.455,137.037 65.100,137.037 64.899 C 137.037 64.698,137.704 63.847,138.519 63.007 C 139.954 61.528,140.426 60.370,139.594 60.370 C 139.370 60.370,137.155 62.445,134.670 64.980 C 131.308 68.412,129.684 69.791,128.317 70.374 C 127.308 70.804,125.981 71.638,125.370 72.226 C 124.759 72.814,123.426 73.657,122.407 74.098 C 121.389 74.540,120.097 75.330,119.537 75.853 C 118.977 76.377,118.519 76.619,118.519 76.391 C 118.519 76.163,119.018 75.621,119.629 75.186 C 120.239 74.751,121.274 73.615,121.928 72.661 C 123.817 69.905,126.328 67.405,128.141 66.473 C 129.774 65.634,135.714 59.790,140.676 54.139 C 141.965 52.672,143.548 51.209,144.195 50.887 C 144.841 50.566,146.462 49.175,147.797 47.797 C 149.954 45.569,150.426 45.261,152.048 45.018 C 153.186 44.847,154.307 44.375,155.031 43.761 C 155.669 43.220,156.548 42.488,156.984 42.133 C 157.779 41.488,157.974 40.573,157.553 39.475 C 157.209 38.578,155.590 38.781,153.380 39.999 M238.728 51.813 C 238.470 52.229,239.565 52.676,240.073 52.362 C 240.309 52.216,240.262 52.011,239.947 51.811 C 239.300 51.401,238.982 51.402,238.728 51.813 M236.835 63.872 C 235.363 65.344,236.079 66.408,241.805 71.261 C 246.378 75.137,246.495 75.212,248.789 75.745 C 254.836 77.151,253.281 72.526,246.193 68.022 C 245.016 67.274,243.349 66.020,242.489 65.235 C 239.712 62.701,238.338 62.370,236.835 63.872 M149.249 64.617 C 148.542 65.120,146.811 65.885,145.403 66.318 C 143.054 67.039,142.551 67.392,139.292 70.610 C 131.355 78.446,129.011 80.678,127.705 81.641 C 126.770 82.330,126.153 83.197,125.756 84.380 C 125.319 85.681,124.094 87.273,120.828 90.784 C 117.903 93.928,115.948 96.411,114.851 98.376 C 113.954 99.982,112.858 101.880,112.416 102.593 C 109.767 106.862,109.133 108.193,108.651 110.502 C 107.979 113.728,107.595 114.437,104.886 117.469 C 102.919 119.670,102.635 120.192,102.266 122.284 C 101.574 126.212,101.139 127.331,99.613 129.093 C 98.807 130.024,98.148 130.997,98.148 131.254 C 98.148 131.512,97.746 132.100,97.255 132.562 C 96.459 133.310,96.364 133.709,96.376 136.237 C 96.391 139.338,95.543 144.476,94.441 147.963 C 92.847 153.005,91.437 163.683,91.912 167.110 C 92.660 172.510,93.347 172.681,94.236 167.687 C 95.419 161.039,96.011 158.690,96.828 157.407 C 97.283 156.694,97.924 155.314,98.253 154.339 C 98.597 153.323,99.654 151.668,100.729 150.462 C 102.874 148.055,104.074 145.815,104.074 144.219 C 104.074 142.002,107.873 130.153,109.827 126.271 C 110.560 124.817,111.663 122.199,112.279 120.452 C 113.709 116.402,114.880 113.969,116.465 111.755 C 117.160 110.785,117.995 109.073,118.321 107.950 C 118.647 106.828,119.637 104.788,120.520 103.418 C 122.298 100.659,126.177 92.843,127.405 89.546 C 128.335 87.049,130.424 84.120,134.585 79.481 C 136.247 77.628,138.135 75.434,138.779 74.607 C 140.077 72.942,144.110 69.770,147.713 67.580 C 150.116 66.120,151.628 64.611,151.269 64.031 C 150.962 63.533,150.646 63.624,149.249 64.617 M264.444 64.117 C 264.444 64.547,266.695 66.761,268.824 68.426 C 269.501 68.956,270.830 70.485,271.777 71.824 C 272.723 73.164,274.299 75.232,275.278 76.421 C 276.258 77.611,277.550 79.556,278.150 80.745 C 278.817 82.066,279.970 83.530,281.114 84.509 C 282.144 85.390,283.391 86.795,283.884 87.630 C 284.881 89.317,287.307 92.339,287.819 92.531 C 288.969 92.962,287.688 90.074,285.299 86.852 C 284.393 85.630,282.572 82.713,281.251 80.370 C 279.612 77.464,278.053 75.288,276.340 73.519 C 274.960 72.093,273.382 70.367,272.833 69.684 C 270.142 66.335,264.444 62.553,264.444 64.117 M220.274 65.464 C 219.788 66.008,217.784 70.268,216.185 74.157 C 215.857 74.957,215.935 75.992,216.561 79.142 C 217.641 84.577,217.197 85.148,212.758 84.031 C 211.171 83.631,211.029 83.669,208.609 85.131 C 206.763 86.246,205.465 86.735,203.680 86.988 C 202.116 87.209,200.753 87.673,199.836 88.295 C 198.815 88.988,197.935 89.260,196.708 89.261 C 195.597 89.262,194.547 89.545,193.704 90.070 C 192.684 90.707,191.607 90.926,188.651 91.101 C 184.982 91.317,184.861 91.354,183.409 92.666 C 182.591 93.404,180.903 94.380,179.658 94.834 C 178.412 95.289,176.688 96.268,175.826 97.012 C 174.964 97.755,173.343 99.010,172.222 99.800 C 163.207 106.157,145.185 125.184,138.334 135.577 C 136.529 138.315,134.360 141.472,133.513 142.593 C 129.171 148.340,126.284 154.588,124.273 162.593 C 122.176 170.938,121.873 173.402,121.520 185.000 C 121.141 197.465,120.981 198.388,117.983 205.343 C 114.699 212.960,114.357 214.347,114.041 221.296 C 113.828 226.002,113.563 228.201,112.994 230.000 C 112.575 231.324,112.230 233.334,112.227 234.466 C 112.222 236.797,111.757 237.634,109.997 238.483 C 108.236 239.332,107.867 240.087,108.490 241.565 C 108.771 242.232,109.128 244.944,109.284 247.593 C 109.584 252.689,110.599 256.603,112.184 258.769 C 113.442 260.488,113.362 261.555,111.944 261.974 C 110.463 262.412,110.465 262.638,111.985 265.185 C 113.926 268.439,114.980 267.993,115.426 263.731 C 115.738 260.743,116.354 260.196,119.090 260.479 C 121.671 260.745,121.651 260.794,121.125 255.527 C 120.741 251.693,120.552 251.031,118.688 247.003 C 115.888 240.952,115.946 240.274,118.982 243.550 C 121.317 246.069,121.603 246.837,123.733 256.292 C 123.984 257.410,124.656 259.602,125.226 261.162 C 125.795 262.723,127.098 266.908,128.121 270.462 C 132.173 284.541,135.752 291.766,142.570 299.630 C 143.718 300.954,145.720 303.334,147.018 304.920 C 148.317 306.506,150.181 308.391,151.160 309.110 C 155.347 312.183,157.288 314.881,158.155 318.829 C 158.587 320.797,159.171 323.407,159.454 324.630 C 160.810 330.505,159.922 343.941,158.054 345.808 C 157.608 346.254,157.535 345.236,157.536 338.627 C 157.538 330.003,156.929 326.136,154.718 320.741 C 150.936 311.507,146.401 308.106,148.653 316.191 C 150.231 321.853,151.069 328.819,151.498 339.815 C 151.941 351.191,151.872 350.741,153.185 350.741 C 154.490 350.741,154.243 352.770,152.703 354.701 C 150.833 357.045,150.374 357.945,150.372 359.279 C 150.370 360.863,149.078 363.539,146.994 366.276 L 145.458 368.292 146.761 372.387 C 147.477 374.639,148.697 379.130,149.471 382.366 C 150.871 388.216,150.890 388.262,152.636 390.008 C 154.493 391.865,154.752 392.525,155.504 397.322 C 155.980 400.359,156.065 408.097,155.629 408.783 C 155.426 409.102,155.042 408.914,154.307 408.135 C 153.737 407.531,153.125 407.037,152.948 407.037 C 152.771 407.037,152.028 406.632,151.298 406.136 C 150.490 405.588,149.141 405.135,147.855 404.979 C 144.012 404.514,143.681 402.143,146.855 397.816 C 148.322 395.815,147.298 393.849,144.368 393.040 C 143.646 392.841,141.919 391.900,140.532 390.950 C 136.915 388.474,136.116 388.636,136.097 391.852 C 136.089 393.208,135.706 395.597,135.219 397.324 L 134.356 400.389 135.340 402.659 C 136.852 406.144,138.927 408.616,140.729 409.079 C 141.231 409.208,142.520 409.729,143.592 410.236 C 145.145 410.970,145.869 411.110,147.144 410.918 C 148.968 410.645,149.770 411.223,149.565 412.665 C 149.411 413.754,147.748 414.012,146.433 413.151 C 145.574 412.588,145.280 412.589,142.387 413.163 L 139.267 413.782 136.578 412.797 C 132.765 411.400,131.467 410.236,131.094 407.881 C 130.165 402.002,125.926 400.989,125.926 406.645 C 125.926 408.539,125.812 408.878,125.000 409.410 C 124.148 409.968,124.072 410.247,124.052 412.879 C 124.006 418.872,123.432 420.335,121.391 419.661 C 118.472 418.698,116.979 415.711,115.021 406.922 C 114.629 405.161,112.715 405.636,111.572 407.778 C 110.642 409.522,110.639 409.597,111.327 415.741 C 111.524 417.495,111.465 417.660,110.212 418.869 C 108.604 420.420,108.499 421.385,109.907 421.682 C 110.468 421.801,112.265 422.220,113.901 422.615 C 115.537 423.010,117.466 423.333,118.188 423.333 C 119.782 423.333,120.600 424.138,122.142 427.225 C 126.685 436.320,133.074 440.926,145.185 443.837 C 157.555 446.810,161.280 448.705,179.355 461.227 L 186.673 466.296 196.855 466.296 L 207.037 466.296 207.037 464.722 C 207.036 462.404,205.382 459.268,201.783 454.762 C 196.532 448.189,192.797 442.642,190.414 437.877 C 189.168 435.385,187.096 431.968,185.808 430.284 C 184.521 428.600,183.077 426.556,182.599 425.741 C 180.429 422.040,174.712 413.691,173.051 411.798 C 172.042 410.648,170.831 409.148,170.359 408.465 C 169.887 407.781,168.557 406.222,167.404 405.000 C 166.251 403.778,164.883 402.111,164.365 401.296 C 163.846 400.481,162.985 399.411,162.452 398.917 C 161.918 398.423,161.481 397.844,161.481 397.631 C 161.481 397.051,166.513 402.126,168.054 404.259 C 168.790 405.278,170.404 407.111,171.641 408.333 C 174.586 411.245,176.873 414.272,179.666 418.956 C 182.357 423.469,183.369 424.811,186.885 428.531 C 188.336 430.066,190.484 432.816,191.660 434.642 C 195.010 439.848,200.321 447.394,202.208 449.630 C 204.464 452.302,205.257 453.654,206.661 457.222 C 207.302 458.852,208.225 460.769,208.711 461.481 C 209.197 462.194,209.944 463.569,210.370 464.537 L 211.146 466.296 236.644 466.296 L 262.142 466.296 262.389 465.313 C 262.524 464.773,262.600 460.231,262.558 455.221 C 262.445 441.992,263.529 436.435,267.500 429.872 C 272.021 422.402,273.967 421.394,286.591 419.981 C 294.932 419.047,306.716 414.373,308.247 411.391 C 309.990 407.997,306.641 401.161,301.680 397.988 C 299.207 396.406,298.338 395.189,298.687 393.796 C 299.446 390.764,299.402 390.509,297.832 388.806 C 295.670 386.459,295.429 385.619,295.493 380.617 C 295.570 374.591,294.963 373.777,291.860 375.735 C 289.119 377.466,289.029 378.612,291.161 384.682 C 293.007 389.939,293.033 393.193,291.266 397.666 C 290.048 400.749,289.830 401.037,288.604 401.182 C 287.777 401.279,287.542 401.600,287.024 403.333 C 285.749 407.604,282.633 412.222,281.028 412.222 C 280.407 412.222,280.331 412.061,280.551 411.204 C 281.115 409.004,281.467 405.581,281.474 402.220 C 281.480 399.626,281.724 397.821,282.403 395.368 C 283.583 391.101,283.392 387.407,281.992 387.407 C 281.285 387.407,279.593 388.824,279.218 389.729 C 278.974 390.318,278.134 391.466,277.350 392.282 C 275.768 393.928,275.677 394.387,276.481 396.667 C 277.250 398.846,277.179 399.927,276.176 401.261 C 274.878 402.990,274.865 403.108,275.204 409.842 L 275.521 416.111 274.421 417.130 C 273.192 418.268,272.469 418.369,271.111 417.593 C 269.035 416.406,267.175 417.636,266.629 420.559 C 266.154 423.103,265.245 423.960,263.567 423.445 C 260.736 422.576,259.124 423.832,258.271 427.573 C 257.961 428.930,257.330 430.479,256.868 431.016 L 256.028 431.993 255.570 431.137 C 254.191 428.562,257.285 398.484,259.953 388.519 C 260.533 386.353,260.811 377.720,260.345 376.381 C 260.002 375.398,260.064 374.794,260.706 372.894 C 261.132 371.631,261.481 369.874,261.481 368.990 C 261.481 368.010,261.843 366.670,262.407 365.556 C 262.917 364.551,263.333 363.180,263.333 362.510 C 263.333 361.840,263.487 360.754,263.676 360.097 C 263.943 359.165,263.814 358.238,263.089 355.876 C 262.178 352.911,262.171 352.791,262.725 350.036 C 264.154 342.938,261.619 335.973,259.601 341.450 C 259.202 342.533,258.052 344.034,256.197 345.894 C 252.467 349.634,250.191 354.056,249.438 359.023 C 248.217 367.069,245.300 372.078,243.423 369.352 C 241.112 365.995,238.877 353.701,240.406 352.756 C 241.068 352.347,239.800 347.927,238.415 345.814 C 237.445 344.333,236.190 338.962,236.149 336.111 C 236.112 333.547,236.097 333.512,234.853 332.891 C 234.162 332.545,233.078 331.774,232.446 331.176 C 230.052 328.913,228.642 328.766,223.333 330.229 C 219.848 331.190,219.732 331.197,211.111 330.949 C 195.974 330.514,193.586 330.128,186.852 327.025 L 185.370 326.342 187.146 326.319 C 188.123 326.307,189.956 326.535,191.220 326.826 C 198.092 328.409,205.029 328.902,209.444 328.121 C 210.667 327.905,213.037 327.513,214.713 327.249 C 217.148 326.866,218.150 326.501,219.713 325.427 C 220.787 324.688,222.750 323.724,224.074 323.283 C 225.398 322.843,226.898 322.196,227.407 321.846 C 227.917 321.495,228.750 321.079,229.259 320.920 C 231.376 320.262,232.923 318.929,233.332 317.413 C 233.734 315.918,233.994 315.762,235.838 315.912 C 237.500 316.047,240.443 313.625,240.884 311.759 C 241.049 311.063,241.562 310.534,242.504 310.090 C 243.329 309.702,244.108 308.967,244.442 308.261 C 244.749 307.611,245.717 306.467,246.593 305.718 C 247.468 304.968,249.091 303.130,250.199 301.632 C 251.466 299.919,252.741 298.639,253.636 298.182 C 254.419 297.783,255.528 296.842,256.101 296.091 C 256.673 295.341,257.861 294.409,258.740 294.020 C 260.962 293.037,261.481 292.407,261.481 290.693 C 261.481 288.848,262.177 285.920,262.790 285.185 C 264.911 282.641,266.384 275.487,267.173 263.889 C 267.256 262.667,267.578 260.833,267.889 259.815 C 268.200 258.796,268.824 256.753,269.275 255.275 C 270.177 252.316,270.087 249.737,269.008 247.650 C 267.932 245.569,269.359 238.943,271.602 235.610 C 272.102 234.867,272.950 233.093,273.487 231.667 C 274.415 229.205,275.467 226.970,277.063 224.074 C 277.499 223.282,277.777 222.058,277.778 220.926 C 277.778 219.907,278.015 217.832,278.305 216.315 C 278.639 214.564,278.759 212.397,278.634 210.389 C 278.378 206.270,279.231 201.713,280.756 199.048 C 281.863 197.113,281.896 196.786,281.238 194.355 C 280.533 191.752,275.059 189.486,272.320 190.662 C 270.687 191.363,270.266 191.390,266.667 191.024 C 261.618 190.510,258.674 190.588,256.693 191.287 C 254.449 192.079,253.173 192.045,253.527 191.204 C 254.509 188.866,253.975 187.778,251.843 187.778 C 250.631 187.778,250.339 187.601,249.664 186.456 C 248.411 184.333,247.395 184.771,246.612 187.771 C 245.596 191.664,245.004 191.984,239.188 191.774 C 233.799 191.579,233.231 191.318,232.574 188.737 C 231.569 184.794,230.709 184.177,228.107 185.534 C 226.164 186.546,225.993 186.365,227.506 184.898 C 229.566 182.902,234.215 180.510,237.718 179.644 C 242.935 178.355,243.203 177.605,238.655 177.019 C 233.977 176.416,230.983 176.582,228.298 177.593 C 224.922 178.863,223.995 178.860,225.196 177.581 C 228.244 174.336,245.662 174.614,250.831 177.990 C 251.593 178.488,253.093 179.287,254.164 179.765 C 255.235 180.244,257.111 181.387,258.333 182.306 C 260.756 184.127,262.634 185.185,263.444 185.185 C 263.729 185.185,264.696 185.682,265.592 186.290 C 267.667 187.695,268.519 187.736,268.519 186.429 C 268.519 185.403,267.550 184.376,264.444 182.109 C 263.528 181.440,262.726 180.538,262.663 180.104 C 262.470 178.774,264.424 173.862,265.591 172.744 C 269.897 168.618,258.883 161.968,247.963 162.099 C 239.380 162.203,234.703 162.752,231.111 164.078 C 223.572 166.862,219.816 167.711,218.687 166.885 C 217.591 166.084,218.704 165.115,222.148 163.870 C 223.717 163.303,226.207 162.294,227.682 161.627 C 231.850 159.744,236.633 159.185,247.327 159.333 L 256.111 159.455 259.123 160.995 C 262.620 162.784,266.856 164.181,267.837 163.870 C 269.819 163.241,270.188 158.300,268.401 156.323 C 267.070 154.849,266.245 151.632,266.818 150.141 C 267.165 149.235,268.279 150.341,268.826 152.136 C 269.315 153.739,272.189 158.213,272.870 158.432 C 274.082 158.820,272.676 153.542,269.836 147.037 C 269.079 145.306,267.961 142.722,267.351 141.296 C 266.304 138.850,265.156 136.760,261.757 131.111 C 260.960 129.787,259.769 127.787,259.109 126.667 C 258.450 125.546,256.283 121.972,254.294 118.724 C 247.626 107.836,246.452 104.586,249.460 105.341 C 250.057 105.491,250.428 105.907,250.565 106.580 C 251.122 109.319,253.300 112.004,254.409 111.318 C 255.008 110.948,254.902 108.650,254.224 107.339 C 253.899 106.711,253.493 105.202,253.321 103.986 C 252.975 101.538,252.057 100.110,251.256 100.774 C 250.671 101.260,250.000 100.911,250.000 100.120 C 250.000 99.708,250.259 99.593,250.907 99.717 C 253.053 100.127,251.885 93.476,249.056 89.175 C 247.255 86.435,248.094 85.805,250.170 88.339 C 251.334 89.760,253.138 91.111,253.870 91.111 C 254.516 91.111,253.855 89.391,252.356 87.173 C 249.812 83.408,249.381 83.022,247.450 82.773 C 242.894 82.187,242.845 82.169,241.233 80.510 C 238.653 77.856,237.443 78.775,239.599 81.750 C 240.193 82.570,241.013 83.887,241.421 84.676 C 241.829 85.465,243.112 87.028,244.272 88.148 C 246.979 90.764,249.197 95.092,248.159 95.734 C 247.188 96.334,244.862 94.274,242.992 91.159 C 242.440 90.239,241.468 89.339,240.462 88.814 L 238.827 87.963 237.615 89.352 C 236.134 91.049,235.465 91.080,232.503 89.584 C 228.876 87.753,225.557 84.344,225.549 82.441 C 225.545 81.433,225.175 80.306,224.444 79.074 C 223.434 77.371,223.345 76.937,223.340 73.683 C 223.330 68.334,221.676 63.898,220.274 65.464 M157.222 67.482 C 150.147 69.787,145.587 73.370,135.858 84.271 C 130.844 89.888,129.489 91.678,128.080 94.544 C 127.456 95.813,126.240 97.852,125.377 99.074 C 123.293 102.028,122.790 103.070,122.069 105.926 C 121.734 107.252,120.886 109.174,120.180 110.205 C 119.476 111.234,118.587 112.984,118.205 114.094 C 117.532 116.048,115.094 121.232,114.477 122.020 C 114.310 122.233,113.294 125.074,112.220 128.333 C 111.146 131.593,109.898 135.009,109.448 135.926 C 108.997 136.843,108.426 138.420,108.178 139.432 C 107.930 140.444,107.248 142.398,106.662 143.773 C 106.077 145.149,105.232 147.630,104.785 149.287 C 104.247 151.281,103.539 152.866,102.691 153.978 C 101.657 155.332,101.314 156.239,100.917 158.662 C 100.647 160.315,100.236 162.500,100.004 163.519 C 97.969 172.465,97.001 180.077,97.605 182.396 C 97.904 183.542,98.148 184.556,98.148 184.648 C 98.148 185.239,99.575 184.593,101.088 183.317 C 102.880 181.806,104.449 178.204,104.446 175.611 C 104.445 175.133,105.024 173.799,105.732 172.648 C 107.632 169.561,108.590 166.532,108.562 163.704 C 108.530 160.483,109.127 156.916,110.030 154.934 C 110.436 154.043,111.170 150.907,111.660 147.967 C 112.150 145.027,112.733 142.281,112.956 141.865 C 113.178 141.449,113.751 139.534,114.227 137.610 C 114.817 135.228,115.442 133.661,116.185 132.703 C 117.512 130.991,118.039 129.624,118.258 127.324 C 118.381 126.044,118.735 125.222,119.578 124.262 C 120.212 123.540,120.827 122.494,120.946 121.938 C 121.467 119.502,122.393 117.668,124.008 115.877 C 124.961 114.820,126.283 113.191,126.946 112.256 C 131.455 105.898,133.634 102.380,135.074 99.132 C 136.167 96.668,137.201 94.950,138.142 94.037 C 139.238 92.974,139.671 92.170,140.042 90.513 C 140.516 88.392,140.896 87.833,142.708 86.582 C 143.218 86.231,144.399 84.794,145.332 83.390 C 147.086 80.753,149.321 78.636,154.926 74.302 C 161.863 68.940,162.985 65.605,157.222 67.482 M116.680 79.603 C 115.226 82.485,113.318 83.930,113.346 82.130 C 113.369 80.672,116.352 77.431,117.691 77.409 C 117.744 77.408,117.290 78.395,116.680 79.603 M236.830 85.591 C 236.433 86.234,237.674 87.289,238.204 86.759 C 238.532 86.431,238.522 86.191,238.161 85.756 C 237.602 85.083,237.176 85.030,236.830 85.591 M111.111 87.737 C 111.111 88.313,109.704 89.826,109.426 89.549 C 109.106 89.230,110.233 87.407,110.749 87.407 C 110.948 87.407,111.111 87.556,111.111 87.737 M177.037 88.864 C 176.528 89.019,175.028 89.713,173.704 90.406 C 170.699 91.979,167.880 92.132,166.040 90.822 C 164.512 89.734,164.339 89.758,161.446 91.477 C 158.448 93.258,156.170 95.744,155.389 98.085 C 155.072 99.036,154.150 100.648,153.341 101.667 C 152.532 102.685,151.611 103.872,151.294 104.304 C 150.932 104.799,150.597 106.484,150.392 108.846 C 150.133 111.827,149.828 113.109,148.915 115.060 C 148.283 116.412,147.816 117.569,147.878 117.632 C 148.267 118.020,153.622 112.137,156.727 107.911 C 159.765 103.778,163.040 100.370,163.976 100.370 C 165.633 100.370,167.541 99.230,170.334 96.569 C 171.909 95.070,174.209 93.336,175.556 92.634 C 181.130 89.728,182.072 87.330,177.037 88.864 M255.926 95.372 C 255.926 96.834,262.827 107.709,263.981 108.067 C 265.448 108.521,262.919 103.152,259.076 97.654 C 257.014 94.704,255.926 93.916,255.926 95.372 M147.778 96.195 C 145.875 96.917,144.086 98.625,143.452 100.323 C 142.947 101.674,142.240 102.565,140.640 103.869 C 138.256 105.810,136.744 107.665,132.407 113.965 C 129.034 118.866,128.515 119.336,127.493 118.411 C 126.416 117.436,124.823 119.366,124.297 122.283 C 124.163 123.030,123.235 125.373,122.236 127.491 C 121.237 129.609,120.312 131.832,120.180 132.430 C 120.048 133.029,119.215 135.685,118.327 138.333 C 116.647 143.346,116.704 142.972,115.565 156.481 C 115.147 161.446,114.684 164.201,113.659 167.835 C 112.953 170.337,112.792 172.472,113.196 173.981 C 113.793 176.209,114.848 173.462,114.998 169.289 C 115.059 167.582,115.339 165.962,115.691 165.282 C 116.258 164.184,118.148 155.526,118.148 154.023 C 118.148 153.621,118.731 150.954,119.444 148.097 C 120.198 145.078,120.741 141.980,120.741 140.701 C 120.741 138.317,122.437 134.254,124.035 132.811 C 124.466 132.422,125.146 131.006,125.546 129.663 C 126.171 127.566,126.613 126.886,128.688 124.829 C 130.380 123.153,131.273 121.926,131.670 120.732 C 132.180 119.195,135.866 114.092,141.204 107.532 C 142.268 106.225,143.044 104.858,143.168 104.074 C 143.468 102.180,143.779 101.760,145.589 100.804 C 148.447 99.295,149.985 97.399,149.171 96.389 C 148.770 95.891,148.631 95.871,147.778 96.195 M292.409 101.108 C 292.070 101.657,292.434 102.738,294.186 106.384 C 296.308 110.800,296.947 110.809,295.565 106.403 C 294.355 102.542,292.964 100.210,292.409 101.108 M265.556 110.938 C 265.556 114.209,269.948 118.131,270.295 115.169 C 270.432 113.996,269.081 111.950,267.436 110.842 C 265.844 109.769,265.556 109.784,265.556 110.938 M128.023 133.981 C 127.740 134.542,127.053 136.384,126.495 138.075 C 125.938 139.766,125.101 141.849,124.635 142.704 C 123.518 144.754,122.825 147.852,123.126 149.454 C 123.477 151.328,124.285 151.047,125.021 148.796 C 125.371 147.727,125.961 146.245,126.334 145.504 C 126.706 144.763,127.262 142.946,127.571 141.467 C 127.879 139.988,128.469 138.131,128.881 137.340 C 129.780 135.615,129.903 132.963,129.084 132.963 C 128.783 132.963,128.306 133.421,128.023 133.981 M271.613 139.599 C 271.960 141.394,273.843 143.843,274.004 142.710 C 274.145 141.721,273.326 140.067,272.204 139.073 L 271.368 138.333 271.613 139.599 M286.296 144.839 C 286.296 145.917,286.964 147.037,287.606 147.037 C 288.316 147.037,288.298 145.935,287.572 144.897 C 286.849 143.866,286.296 143.840,286.296 144.839 M158.803 169.213 C 165.350 170.609,167.614 171.724,166.119 172.818 C 165.021 173.621,163.021 173.433,159.421 172.191 C 154.087 170.349,143.019 169.240,139.950 170.239 C 139.006 170.547,137.756 170.741,137.172 170.670 L 136.111 170.542 137.407 169.693 C 138.452 169.010,139.045 168.882,140.462 169.035 C 141.601 169.157,142.645 169.030,143.425 168.673 C 145.110 167.903,154.141 168.220,158.803 169.213 M113.262 176.735 C 112.270 179.143,112.038 190.354,112.967 190.929 C 113.130 191.029,113.373 189.403,113.509 187.315 C 113.798 182.871,113.634 175.831,113.262 176.735 M161.174 183.161 C 164.197 183.797,165.629 184.662,163.147 184.354 C 156.986 183.587,145.908 185.600,143.148 187.987 C 142.342 188.684,142.240 188.882,142.778 188.706 C 148.163 186.941,152.742 186.819,158.641 188.281 C 164.335 189.692,168.302 191.915,165.488 192.118 C 163.752 192.243,163.333 192.815,163.333 195.062 C 163.333 197.995,162.535 198.663,158.312 199.262 C 156.498 199.520,154.581 199.855,154.052 200.006 C 151.697 200.682,149.341 198.185,148.839 194.481 C 148.328 190.719,146.941 190.790,142.440 194.809 C 135.190 201.283,130.358 199.990,135.444 192.937 C 141.711 184.248,150.488 180.914,161.174 183.161 M234.342 183.982 C 233.055 185.404,232.713 187.104,233.545 187.937 C 235.442 189.833,238.258 186.723,237.183 183.919 C 236.879 183.129,235.078 183.169,234.342 183.982 M90.635 186.034 C 88.676 188.431,87.875 190.370,88.846 190.370 C 90.356 190.370,92.443 187.089,92.160 185.160 C 92.048 184.397,91.907 184.478,90.635 186.034 M152.620 191.634 C 151.937 192.457,151.693 194.732,152.220 195.367 C 153.408 196.799,155.556 195.307,155.556 193.050 C 155.556 191.282,153.668 190.371,152.620 191.634 M169.537 193.440 C 169.995 193.860,170.370 194.352,170.370 194.534 C 170.370 194.716,169.995 194.751,169.537 194.612 C 168.601 194.328,167.037 193.009,167.037 192.503 C 167.037 191.997,168.601 192.584,169.537 193.440 M318.353 195.265 C 316.772 199.049,317.287 208.250,319.046 207.664 C 320.784 207.084,321.354 196.372,319.733 194.753 L 318.911 193.931 318.353 195.265 M324.232 201.644 C 323.976 202.664,324.254 206.229,324.618 206.593 C 325.099 207.074,325.368 206.054,325.343 203.849 C 325.313 201.219,324.663 199.928,324.232 201.644 M333.121 220.532 C 332.355 223.582,333.305 231.111,334.455 231.111 C 335.307 231.111,334.596 220.883,333.672 219.854 C 333.508 219.672,333.260 219.977,333.121 220.532 M322.930 223.218 C 322.081 225.420,321.305 233.930,321.747 236.202 C 322.137 238.210,321.877 245.182,321.274 248.889 C 321.023 250.430,321.883 251.952,322.603 251.242 C 323.553 250.307,325.181 237.700,325.202 231.115 C 325.223 224.865,323.972 220.518,322.930 223.218 M314.325 224.352 C 313.781 225.275,313.754 227.234,314.249 229.821 C 314.895 233.196,314.980 239.734,314.457 245.719 C 313.528 256.329,313.230 260.761,313.431 260.962 C 313.991 261.522,314.867 258.527,315.202 254.908 C 315.405 252.718,315.712 250.093,315.886 249.074 C 316.307 246.602,316.042 226.280,315.573 225.046 C 315.213 224.100,314.655 223.790,314.325 224.352 M219.775 227.057 C 220.669 228.120,220.997 228.889,220.557 228.889 C 220.096 228.889,217.407 226.153,217.407 225.685 C 217.407 224.940,218.551 225.603,219.775 227.057 M210.220 226.879 C 210.822 228.320,210.624 229.630,209.803 229.630 C 209.030 229.630,208.467 228.302,208.746 227.137 C 209.225 225.135,209.474 225.091,210.220 226.879 M307.591 227.540 C 306.837 229.344,306.244 236.485,306.693 238.348 C 306.888 239.155,307.040 242.757,307.032 246.352 C 307.024 249.948,307.189 253.654,307.398 254.588 C 307.729 256.065,307.653 256.652,306.815 259.076 C 305.903 261.717,305.841 262.963,306.620 262.963 C 307.269 262.963,309.145 259.080,309.392 257.222 C 309.528 256.204,309.996 253.915,310.432 252.137 L 311.224 248.904 310.242 247.011 C 309.114 244.836,309.040 243.809,309.846 241.493 C 310.221 240.416,310.331 239.382,310.161 238.530 C 310.017 237.811,309.910 235.556,309.924 233.519 C 309.962 227.653,308.794 224.660,307.591 227.540 M223.712 231.732 C 229.200 237.983,225.389 245.802,215.690 248.189 C 214.700 248.433,213.103 249.038,212.142 249.534 C 210.797 250.228,210.116 250.372,209.179 250.161 C 208.510 250.010,205.213 249.870,201.852 249.851 C 196.027 249.816,195.641 249.768,193.611 248.817 C 190.259 247.246,190.732 246.078,194.236 247.272 C 196.620 248.084,199.307 247.516,201.350 245.768 C 206.611 241.264,217.037 237.573,217.037 240.214 C 217.037 240.528,216.178 241.694,215.128 242.804 C 212.774 245.293,212.955 245.536,216.232 244.284 C 219.125 243.178,219.706 242.659,220.373 240.586 C 220.629 239.787,221.171 238.572,221.577 237.884 C 222.337 236.596,222.603 232.894,222.058 231.178 C 221.674 229.968,222.366 230.200,223.712 231.732 M328.704 231.851 C 328.525 232.142,328.244 237.386,328.080 243.504 C 327.763 255.341,327.355 260.560,326.443 264.444 C 325.459 268.632,327.340 272.026,328.659 268.446 C 330.355 263.843,331.827 252.694,331.170 249.423 C 330.934 248.247,330.741 245.490,330.741 243.298 C 330.741 236.937,329.583 230.429,328.704 231.851 M334.722 236.508 C 334.569 236.663,334.450 237.304,334.456 237.932 C 334.465 238.899,334.526 238.973,334.850 238.415 C 335.274 237.688,335.164 236.059,334.722 236.508 M79.753 243.238 C 79.164 244.649,79.209 246.031,79.982 250.185 C 80.171 251.204,80.336 253.492,80.348 255.270 C 80.371 258.640,81.143 261.481,82.036 261.481 C 82.725 261.481,83.038 259.238,82.802 255.987 C 82.689 254.426,82.510 250.990,82.404 248.352 C 82.155 242.156,81.076 240.074,79.753 243.238 M72.294 250.995 C 71.124 253.243,71.649 258.065,72.900 256.558 C 73.665 255.635,73.902 251.367,73.220 250.800 C 72.740 250.402,72.586 250.434,72.294 250.995 M87.030 252.235 C 86.703 252.847,86.830 253.351,87.711 254.920 C 88.420 256.184,89.011 258.069,89.421 260.370 C 91.475 271.905,91.945 272.830,92.581 266.595 C 93.369 258.869,89.222 248.140,87.030 252.235 M242.795 266.465 C 244.404 268.074,242.810 271.852,240.522 271.852 C 240.157 271.852,238.709 272.535,237.304 273.369 C 234.182 275.224,230.160 275.783,221.267 275.597 C 217.160 275.512,214.895 275.642,212.704 276.088 C 210.632 276.511,208.160 276.673,204.585 276.620 C 196.096 276.495,184.855 276.945,181.109 277.561 C 176.893 278.253,168.848 276.951,170.035 275.768 C 170.340 275.465,184.094 274.702,190.370 274.640 C 197.463 274.570,199.224 274.252,201.887 272.559 C 202.949 271.885,204.832 271.211,206.887 270.769 C 208.701 270.379,210.685 269.838,211.296 269.567 C 212.135 269.195,214.946 269.074,222.778 269.074 C 234.283 269.074,237.372 268.566,238.761 266.446 C 239.567 265.216,241.554 265.225,242.795 266.465 M85.926 270.022 C 85.926 272.242,86.678 276.796,87.116 277.222 C 87.484 277.581,87.356 274.870,86.789 270.278 C 86.523 268.128,85.926 267.951,85.926 270.022 M92.142 275.317 C 92.047 275.814,92.275 277.196,92.648 278.388 C 93.022 279.580,93.583 282.056,93.895 283.889 C 94.919 289.896,96.541 296.545,96.896 296.190 C 96.982 296.105,97.106 293.469,97.173 290.332 C 97.315 283.672,97.030 282.198,94.741 277.756 C 93.040 274.456,92.418 273.872,92.142 275.317 M235.185 278.733 C 235.185 279.079,232.536 282.205,230.932 283.751 C 229.232 285.391,226.094 287.147,223.751 287.770 C 222.860 288.007,221.205 288.814,220.074 289.564 C 218.090 290.878,217.914 290.923,215.072 290.834 C 213.081 290.771,211.042 290.996,208.776 291.528 C 205.440 292.311,197.784 292.307,196.381 291.521 C 195.902 291.253,200.964 290.034,206.481 289.089 C 212.288 288.095,214.238 287.005,216.463 283.514 C 218.261 280.692,218.272 280.686,220.963 280.958 C 222.907 281.154,223.553 281.044,225.593 280.174 C 228.364 278.991,235.185 277.967,235.185 278.733 M91.289 298.280 C 91.573 302.640,93.035 305.029,93.249 301.481 C 93.325 300.223,93.074 299.270,92.225 297.593 L 91.100 295.370 91.289 298.280 M294.984 297.564 C 294.364 298.053,292.379 299.048,290.574 299.776 C 286.607 301.376,283.246 303.511,280.606 306.109 C 279.525 307.173,277.488 308.657,276.080 309.406 C 273.145 310.967,271.206 312.441,271.586 312.821 C 272.041 313.275,274.682 312.260,276.541 310.916 C 277.527 310.203,279.866 308.886,281.740 307.989 C 289.068 304.479,299.335 296.646,296.574 296.671 C 296.319 296.673,295.604 297.075,294.984 297.564 M294.215 326.209 C 293.789 326.489,291.111 329.781,288.981 332.642 C 288.319 333.531,287.135 335.064,286.350 336.047 C 283.723 339.335,283.488 344.380,286.095 341.499 C 286.455 341.101,287.879 340.105,289.259 339.285 C 291.602 337.893,292.542 336.983,296.850 331.932 C 299.069 329.330,299.017 327.697,296.674 326.485 C 295.483 325.869,294.843 325.797,294.215 326.209 M282.170 326.876 C 280.892 327.546,276.198 334.098,275.221 336.575 C 274.160 339.269,274.940 339.170,277.685 336.263 C 278.856 335.023,280.856 332.926,282.130 331.604 C 285.219 328.394,285.246 325.265,282.170 326.876 M325.278 335.477 C 322.896 337.882,316.296 351.340,316.296 353.791 C 316.296 354.318,315.968 355.802,315.568 357.090 C 314.738 359.754,314.986 360.370,316.428 359.235 C 317.889 358.086,318.817 356.011,318.611 354.355 C 318.465 353.186,318.711 352.530,320.179 350.176 C 321.136 348.641,322.322 346.072,322.814 344.469 C 323.309 342.857,324.291 340.751,325.011 339.759 C 328.421 335.052,328.604 332.117,325.278 335.477 M264.444 337.037 C 264.444 337.514,264.632 337.777,264.907 337.685 C 265.162 337.600,265.370 337.309,265.370 337.037 C 265.370 336.765,265.162 336.474,264.907 336.389 C 264.632 336.297,264.444 336.560,264.444 337.037 M101.550 342.322 C 101.575 342.988,101.417 344.113,101.200 344.822 C 100.546 346.955,100.342 353.704,100.932 353.704 C 102.021 353.704,103.257 347.116,102.633 344.637 C 102.407 343.740,102.222 342.579,102.222 342.058 C 102.222 341.537,102.061 341.111,101.863 341.111 C 101.666 341.111,101.525 341.656,101.550 342.322 M312.809 344.352 C 312.697 344.708,312.439 345.882,312.235 346.960 C 312.032 348.038,311.381 350.038,310.790 351.404 C 310.199 352.771,309.607 354.647,309.476 355.573 C 309.329 356.605,308.748 357.944,307.973 359.033 C 306.675 360.860,306.401 361.676,305.910 365.185 C 305.754 366.306,305.284 368.792,304.866 370.710 C 303.969 374.828,304.206 375.880,305.673 374.297 C 306.590 373.307,307.232 371.744,310.591 362.321 C 311.479 359.829,312.726 356.758,313.362 355.498 C 314.718 352.813,315.584 346.580,314.860 344.722 C 314.408 343.562,313.130 343.332,312.809 344.352 M106.662 361.312 C 106.230 362.618,106.261 362.711,107.576 364.057 C 108.573 365.078,109.175 366.221,109.825 368.329 C 110.924 371.891,111.241 372.242,115.206 374.290 C 121.075 377.321,123.255 380.392,124.063 386.766 C 124.698 391.772,125.420 392.197,126.099 387.963 C 126.495 385.487,126.677 385.136,127.532 385.204 C 129.010 385.321,129.259 385.190,129.259 384.296 C 129.259 383.447,128.837 382.740,125.225 377.528 C 122.911 374.191,122.593 373.975,119.912 373.919 C 117.827 373.875,117.356 373.709,115.259 372.279 C 112.844 370.632,112.782 370.539,110.750 365.556 C 108.355 359.681,107.495 358.788,106.662 361.312 M97.963 369.252 C 95.847 370.516,94.456 370.632,91.807 369.765 C 90.313 369.277,89.771 369.245,88.991 369.600 C 87.516 370.272,88.731 371.194,92.638 372.368 C 96.939 373.661,97.865 374.857,94.983 375.398 C 93.230 375.727,93.088 376.151,94.488 376.874 C 95.602 377.450,95.749 377.443,97.185 376.740 C 98.020 376.332,99.427 375.881,100.311 375.738 C 101.646 375.523,101.887 375.361,101.736 374.781 C 101.635 374.397,101.886 373.659,102.294 373.142 C 103.121 372.090,103.017 371.812,100.867 369.351 L 99.815 368.146 97.963 369.252 M85.357 369.510 C 84.979 369.889,84.895 370.228,85.124 370.457 C 85.595 370.929,87.037 370.456,87.037 369.829 C 87.037 369.056,86.007 368.861,85.357 369.510 M139.516 371.862 C 138.170 372.921,137.867 375.294,138.690 378.334 C 139.320 380.662,139.319 380.690,138.504 381.792 C 136.854 384.024,139.154 387.365,141.041 385.478 C 141.391 385.127,141.725 385.169,142.574 385.671 C 143.746 386.363,146.340 386.214,146.995 385.417 C 147.363 384.970,146.393 379.858,145.433 377.186 C 143.586 372.047,141.578 370.240,139.516 371.862 M247.895 372.278 C 249.418 373.080,249.691 374.188,248.519 374.815 C 247.210 375.515,245.253 373.813,245.782 372.434 C 246.046 371.745,246.779 371.691,247.895 372.278 M85.556 375.714 C 85.556 376.438,87.093 376.833,88.317 376.425 C 89.907 375.895,89.543 375.376,87.500 375.258 C 85.951 375.169,85.556 375.262,85.556 375.714 M103.210 375.432 C 102.685 375.957,103.051 376.314,105.648 377.818 C 107.125 378.672,109.175 380.221,110.204 381.260 C 111.232 382.298,112.816 383.607,113.722 384.168 C 114.629 384.729,115.937 385.604,116.629 386.112 C 118.039 387.149,118.112 387.167,118.889 386.672 C 119.981 385.975,115.126 379.122,112.283 377.347 C 110.820 376.434,103.709 374.933,103.210 375.432 M99.606 385.237 C 96.982 388.066,96.562 389.044,97.258 390.701 C 98.150 392.823,99.133 392.191,101.199 388.169 C 103.963 382.786,103.193 381.369,99.606 385.237 M38.704 396.270 C 35.664 397.004,35.146 398.256,37.227 399.843 C 38.677 400.949,40.929 400.935,44.768 399.794 C 49.847 398.286,44.127 394.961,38.704 396.270 M95.090 401.939 C 94.375 402.478,93.333 404.819,93.333 405.886 C 93.333 406.284,92.917 407.105,92.407 407.710 C 91.251 409.084,91.228 410.373,92.339 411.417 C 93.843 412.830,94.444 412.307,94.444 409.589 C 94.444 408.694,94.884 407.256,95.577 405.883 C 97.091 402.884,96.814 400.640,95.090 401.939 M46.425 403.162 C 46.305 403.475,46.489 404.471,46.834 405.376 C 47.915 408.206,46.600 408.335,44.241 405.628 L 43.111 404.333 40.722 404.743 C 39.408 404.968,36.917 405.252,35.185 405.373 C 26.481 405.984,24.044 407.218,27.778 409.127 C 29.840 410.181,31.110 410.216,32.676 409.261 C 34.119 408.381,35.572 408.317,37.024 409.067 C 37.608 409.369,38.832 409.584,39.743 409.544 C 43.168 409.395,44.780 413.265,42.870 417.051 C 41.382 420.002,39.414 418.914,37.949 414.331 C 36.929 411.138,35.545 410.434,33.292 411.963 C 29.890 414.271,25.943 414.920,23.611 413.553 C 22.486 412.894,21.434 412.593,20.259 412.593 C 18.298 412.593,15.741 411.674,12.989 409.981 C 11.063 408.796,10.670 408.761,8.333 409.568 C 7.722 409.779,5.889 410.139,4.259 410.369 C 2.630 410.598,1.005 410.870,0.648 410.974 C 0.038 411.150,0.000 412.792,0.000 438.729 L 0.000 466.296 60.185 466.296 C 93.287 466.296,120.370 466.209,120.370 466.102 C 120.370 465.995,119.931 465.740,119.393 465.536 C 118.856 465.332,118.512 465.068,118.630 464.950 C 118.748 464.832,118.514 464.382,118.111 463.949 C 117.708 463.517,117.117 462.243,116.798 461.118 C 115.884 457.903,112.135 454.541,107.316 452.617 C 102.888 450.848,101.091 446.180,105.445 447.754 C 107.143 448.368,107.506 447.936,105.867 447.251 C 105.161 446.956,103.769 446.042,102.775 445.220 C 100.184 443.080,99.047 442.747,98.287 443.907 C 97.210 445.551,94.571 443.638,92.385 439.630 C 89.500 434.337,84.913 430.472,81.429 430.399 C 80.688 430.383,79.354 430.041,78.466 429.638 C 77.578 429.235,76.283 428.901,75.588 428.897 C 73.504 428.884,67.797 427.792,64.543 426.785 C 62.866 426.266,60.408 425.754,59.080 425.648 C 56.490 425.440,56.001 424.926,57.588 424.076 C 58.355 423.666,58.854 423.666,60.562 424.076 C 62.581 424.560,64.895 424.477,78.631 423.430 C 81.490 423.211,81.253 422.800,77.007 420.615 C 72.349 418.219,70.651 417.715,68.215 418.005 L 66.245 418.240 64.068 416.074 C 62.776 414.789,62.053 413.808,62.289 413.662 C 63.082 413.173,62.189 412.674,60.097 412.440 C 55.448 411.919,55.234 411.842,53.186 409.971 C 52.012 408.897,50.817 407.344,50.259 406.164 C 48.963 403.429,46.933 401.839,46.425 403.162 M102.222 410.210 C 102.222 412.868,102.818 414.168,103.567 413.144 C 104.532 411.824,103.958 408.148,102.787 408.148 C 102.349 408.148,102.222 408.609,102.222 410.210 M156.285 413.889 C 156.285 414.500,156.143 415.224,155.969 415.498 C 155.510 416.223,155.128 414.452,155.425 412.969 C 155.708 411.554,156.285 412.172,156.285 413.889 M63.889 414.444 C 64.015 414.648,64.368 414.815,64.673 414.815 C 64.979 414.815,65.126 414.648,65.000 414.444 C 64.874 414.241,64.521 414.074,64.216 414.074 C 63.910 414.074,63.763 414.241,63.889 414.444 M398.889 414.444 C 398.889 414.648,399.139 414.815,399.444 414.815 C 399.750 414.815,400.000 414.648,400.000 414.444 C 400.000 414.241,399.750 414.074,399.444 414.074 C 399.139 414.074,398.889 414.241,398.889 414.444 M314.450 421.759 C 314.456 422.590,317.133 427.510,318.556 429.307 C 320.913 432.282,328.886 436.296,336.906 438.545 L 342.144 440.014 347.742 439.691 C 353.598 439.354,354.815 438.961,354.815 437.407 C 354.815 436.054,353.518 435.452,351.032 435.650 C 349.567 435.767,347.761 435.616,346.160 435.243 L 343.617 434.651 342.813 435.659 C 341.849 436.868,341.192 436.912,339.205 435.898 C 338.376 435.475,336.353 434.876,334.710 434.566 C 331.659 433.990,326.786 432.050,322.739 429.800 C 320.253 428.417,318.679 426.843,316.335 423.391 C 314.679 420.952,314.442 420.746,314.450 421.759 M360.000 422.319 C 360.000 423.040,360.780 423.333,362.702 423.333 C 364.096 423.333,364.181 423.281,363.649 422.749 C 362.805 421.905,360.000 421.574,360.000 422.319 M112.778 429.650 C 111.963 430.035,110.514 430.355,109.559 430.361 C 107.603 430.372,106.947 430.960,107.999 431.758 C 108.902 432.444,114.274 432.151,115.862 431.329 C 119.255 429.575,116.317 427.975,112.778 429.650 M139.268 430.567 C 139.631 431.004,139.642 431.346,139.314 432.065 C 138.570 433.698,138.786 434.439,140.173 435.019 C 142.860 436.142,144.928 435.364,145.761 432.917 C 146.145 431.789,146.328 431.665,147.630 431.647 C 148.424 431.637,149.390 431.484,149.776 431.309 C 150.287 431.077,150.614 431.177,150.979 431.677 C 152.131 433.252,151.062 437.828,149.697 437.164 C 149.354 436.998,146.788 436.840,143.995 436.815 C 137.193 436.753,136.074 436.086,136.995 432.643 C 137.675 430.100,138.361 429.473,139.268 430.567 M297.857 436.160 C 297.657 436.541,297.377 437.556,297.234 438.417 C 296.693 441.682,294.482 443.604,290.849 443.970 C 288.200 444.236,288.161 444.296,288.154 448.082 C 288.149 450.453,287.813 452.459,286.693 456.785 C 285.893 459.878,285.089 463.282,284.906 464.352 L 284.573 466.296 291.529 466.296 L 298.485 466.296 298.671 465.093 C 299.317 460.906,300.030 442.255,299.658 439.287 C 299.283 436.307,298.498 434.942,297.857 436.160 M172.974 440.761 C 174.448 443.516,174.915 448.567,173.846 450.198 C 172.750 451.872,171.481 450.945,171.481 448.469 C 171.481 447.805,171.286 445.906,171.046 444.251 C 170.480 440.333,171.630 438.250,172.974 440.761 M276.296 448.519 C 275.372 449.443,275.371 450.077,276.293 458.367 C 276.699 462.015,277.032 465.292,277.034 465.648 C 277.036 466.137,277.345 466.296,278.287 466.296 C 279.748 466.296,280.000 465.609,280.000 461.622 C 280.000 460.324,280.416 457.303,280.924 454.909 C 282.349 448.198,282.235 447.778,279.000 447.778 C 277.531 447.778,276.851 447.964,276.296 448.519 M188.907 450.935 C 191.115 452.077,189.907 454.444,187.117 454.444 L 185.461 454.444 185.710 452.889 C 186.118 450.333,186.862 449.878,188.907 450.935 M310.592 450.943 C 309.773 451.761,309.299 453.815,308.872 458.398 C 308.666 460.603,308.403 462.714,308.288 463.088 C 308.172 463.462,308.185 464.337,308.315 465.032 L 308.552 466.296 314.091 466.296 C 319.585 466.296,319.630 466.290,319.640 465.463 C 319.646 465.005,319.981 463.463,320.384 462.037 C 320.787 460.611,321.215 459.009,321.335 458.477 C 321.635 457.148,320.621 455.332,319.160 454.585 C 318.502 454.247,316.612 453.161,314.961 452.171 C 311.643 450.181,311.417 450.118,310.592 450.943 M338.138 452.834 C 335.084 454.873,333.164 457.738,333.512 459.735 C 333.626 460.390,333.588 461.759,333.427 462.778 C 332.836 466.523,332.387 466.296,340.396 466.296 L 347.407 466.296 347.407 462.389 C 347.407 457.884,347.180 457.274,344.566 454.765 C 341.774 452.085,340.040 451.564,338.138 452.834 M149.074 459.895 C 146.024 460.896,144.209 461.265,141.852 461.364 C 136.954 461.569,135.561 462.435,135.557 465.278 L 135.556 466.296 158.193 466.296 C 178.434 466.296,180.782 466.237,180.363 465.732 C 180.105 465.421,179.814 465.248,179.716 465.346 C 179.618 465.444,178.860 465.178,178.032 464.756 C 177.078 464.269,175.364 463.886,173.356 463.710 C 170.912 463.497,169.492 463.125,167.162 462.087 C 165.500 461.347,163.904 460.741,163.616 460.741 C 163.328 460.741,161.875 460.326,160.386 459.820 C 155.959 458.314,153.847 458.328,149.074 459.895 M355.952 460.255 C 355.736 461.032,355.559 462.708,355.558 463.981 L 355.556 466.296 357.789 466.296 C 360.471 466.296,360.689 465.980,360.065 462.993 C 359.249 459.091,356.739 457.420,355.952 460.255 M390.457 461.492 C 389.792 462.097,388.830 462.593,388.320 462.593 C 387.303 462.593,383.759 465.092,383.725 465.833 C 383.709 466.186,385.190 466.296,389.956 466.296 L 396.209 466.296 395.713 464.907 C 395.441 464.144,395.210 463.249,395.201 462.920 C 395.137 460.554,392.395 459.729,390.457 461.492 M327.222 465.926 C 327.092 466.136,327.404 466.296,327.941 466.296 C 328.462 466.296,328.889 466.130,328.889 465.926 C 328.889 465.722,328.565 465.556,328.170 465.556 C 327.775 465.556,327.348 465.722,327.222 465.926 " stroke="none" fill="#efefef" fill-rule="evenodd"></path><path id="path1" d="M0.000 205.581 C 0.000 401.196,0.031 411.152,0.648 410.974 C 1.005 410.870,2.630 410.598,4.259 410.369 C 5.889 410.139,7.722 409.779,8.333 409.568 C 10.670 408.761,11.063 408.796,12.989 409.981 C 15.741 411.674,18.298 412.593,20.259 412.593 C 21.434 412.593,22.486 412.894,23.611 413.553 C 25.943 414.920,29.890 414.271,33.292 411.963 C 35.545 410.434,36.929 411.138,37.949 414.331 C 39.414 418.914,41.382 420.002,42.870 417.051 C 44.780 413.265,43.168 409.395,39.743 409.544 C 38.832 409.584,37.608 409.369,37.024 409.067 C 35.572 408.317,34.119 408.381,32.676 409.261 C 31.110 410.216,29.840 410.181,27.778 409.127 C 24.044 407.218,26.481 405.984,35.185 405.373 C 36.917 405.252,39.408 404.968,40.722 404.743 L 43.111 404.333 44.241 405.628 C 46.663 408.406,47.853 408.207,46.786 405.201 C 45.444 401.424,48.075 402.017,50.118 405.952 C 52.306 410.166,54.477 411.749,58.776 412.266 C 62.033 412.657,63.193 413.104,62.331 413.636 C 62.038 413.818,62.616 414.630,64.068 416.074 L 66.245 418.240 68.215 418.005 C 70.651 417.715,72.349 418.219,77.007 420.615 C 81.253 422.800,81.490 423.211,78.631 423.430 C 64.895 424.477,62.581 424.560,60.562 424.076 C 58.854 423.666,58.355 423.666,57.588 424.076 C 56.001 424.926,56.490 425.440,59.080 425.648 C 60.408 425.754,62.866 426.266,64.543 426.785 C 67.797 427.792,73.504 428.884,75.588 428.897 C 76.283 428.901,77.578 429.235,78.466 429.638 C 79.354 430.041,80.688 430.383,81.429 430.399 C 84.913 430.472,89.500 434.337,92.385 439.630 C 94.571 443.638,97.210 445.551,98.287 443.907 C 99.047 442.747,100.184 443.080,102.775 445.220 C 103.769 446.042,105.161 446.956,105.867 447.251 C 107.506 447.936,107.143 448.368,105.445 447.754 C 101.091 446.180,102.888 450.848,107.316 452.617 C 112.135 454.541,115.884 457.903,116.798 461.118 C 117.117 462.243,117.760 463.572,118.226 464.073 C 118.693 464.573,119.067 465.070,119.057 465.176 C 118.984 466.028,121.343 466.313,128.209 466.280 L 135.556 466.245 135.557 465.252 C 135.561 462.436,136.967 461.568,141.852 461.365 C 144.182 461.269,146.154 460.874,149.444 459.846 C 154.499 458.265,155.814 458.265,160.457 459.844 C 161.906 460.337,163.328 460.741,163.616 460.741 C 163.904 460.741,165.500 461.347,167.162 462.087 C 169.492 463.125,170.912 463.497,173.356 463.710 C 175.403 463.889,177.076 464.268,178.078 464.779 C 178.931 465.214,179.630 465.458,179.630 465.320 C 179.630 465.183,179.943 465.354,180.326 465.700 C 180.876 466.198,181.592 466.308,183.737 466.221 L 186.452 466.111 177.763 460.140 C 160.622 448.361,157.490 446.794,145.185 443.837 C 133.074 440.926,126.685 436.320,122.142 427.225 C 120.600 424.138,119.782 423.333,118.188 423.333 C 117.466 423.333,115.537 423.010,113.901 422.615 C 112.265 422.220,110.468 421.801,109.907 421.682 C 108.499 421.385,108.604 420.420,110.212 418.869 C 111.465 417.660,111.524 417.495,111.327 415.741 C 110.639 409.597,110.642 409.522,111.572 407.778 C 112.715 405.636,114.629 405.161,115.021 406.922 C 116.979 415.711,118.472 418.698,121.391 419.661 C 123.432 420.335,124.006 418.872,124.052 412.879 C 124.072 410.247,124.148 409.968,125.000 409.410 C 125.812 408.878,125.926 408.539,125.926 406.645 C 125.926 400.989,130.165 402.002,131.094 407.881 C 131.467 410.236,132.765 411.400,136.578 412.797 L 139.267 413.782 142.387 413.163 C 145.280 412.589,145.574 412.588,146.433 413.151 C 147.748 414.012,149.411 413.754,149.565 412.665 C 149.770 411.223,148.968 410.645,147.144 410.918 C 145.869 411.110,145.145 410.970,143.592 410.236 C 142.520 409.729,141.231 409.208,140.729 409.079 C 138.927 408.616,136.852 406.144,135.340 402.659 L 134.356 400.389 135.219 397.324 C 135.706 395.597,136.089 393.208,136.097 391.852 C 136.116 388.636,136.915 388.474,140.532 390.950 C 141.919 391.900,143.646 392.841,144.368 393.040 C 147.298 393.849,148.322 395.815,146.855 397.816 C 143.681 402.143,144.012 404.514,147.855 404.979 C 149.141 405.135,150.490 405.588,151.298 406.136 C 152.028 406.632,152.771 407.037,152.948 407.037 C 153.125 407.037,153.737 407.531,154.307 408.135 C 155.042 408.914,155.426 409.102,155.629 408.783 C 156.065 408.097,155.980 400.359,155.504 397.322 C 154.752 392.525,154.493 391.865,152.636 390.008 C 150.890 388.262,150.871 388.216,149.471 382.366 C 148.697 379.130,147.477 374.639,146.761 372.387 L 145.458 368.292 146.994 366.276 C 149.078 363.539,150.370 360.863,150.372 359.279 C 150.374 357.945,150.833 357.045,152.703 354.701 C 154.243 352.770,154.490 350.741,153.185 350.741 C 151.872 350.741,151.941 351.191,151.498 339.815 C 151.069 328.819,150.231 321.853,148.653 316.191 C 146.401 308.106,150.936 311.507,154.718 320.741 C 156.929 326.136,157.538 330.003,157.536 338.627 C 157.535 345.236,157.608 346.254,158.054 345.808 C 159.922 343.941,160.810 330.505,159.454 324.630 C 159.171 323.407,158.587 320.797,158.155 318.829 C 157.288 314.881,155.347 312.183,151.160 309.110 C 150.181 308.391,148.317 306.506,147.018 304.920 C 145.720 303.334,143.718 300.954,142.570 299.630 C 135.752 291.766,132.173 284.541,128.121 270.462 C 127.098 266.908,125.795 262.723,125.226 261.162 C 124.656 259.602,123.984 257.410,123.733 256.292 C 121.603 246.837,121.317 246.069,118.982 243.550 C 115.946 240.274,115.888 240.952,118.688 247.003 C 120.552 251.031,120.741 251.693,121.125 255.527 C 121.651 260.794,121.671 260.745,119.090 260.479 C 116.354 260.196,115.738 260.743,115.426 263.731 C 114.980 267.993,113.926 268.439,111.985 265.185 C 110.465 262.638,110.463 262.412,111.944 261.974 C 113.362 261.555,113.442 260.488,112.184 258.769 C 110.599 256.603,109.584 252.689,109.284 247.593 C 109.128 244.944,108.771 242.232,108.490 241.565 C 107.867 240.087,108.236 239.332,109.997 238.483 C 111.757 237.634,112.222 236.797,112.227 234.466 C 112.230 233.334,112.575 231.324,112.994 230.000 C 113.563 228.201,113.828 226.002,114.041 221.296 C 114.357 214.347,114.699 212.960,117.983 205.343 C 120.981 198.388,121.141 197.465,121.520 185.000 C 121.873 173.402,122.176 170.938,124.273 162.593 C 126.284 154.588,129.171 148.340,133.513 142.593 C 134.360 141.472,136.529 138.315,138.334 135.577 C 145.185 125.184,163.207 106.157,172.222 99.800 C 173.343 99.010,174.964 97.755,175.826 97.012 C 176.688 96.268,178.412 95.289,179.658 94.834 C 180.903 94.380,182.591 93.404,183.409 92.666 C 184.861 91.354,184.982 91.317,188.651 91.101 C 191.607 90.926,192.684 90.707,193.704 90.070 C 194.547 89.545,195.597 89.262,196.708 89.261 C 197.935 89.260,198.815 88.988,199.836 88.295 C 200.753 87.673,202.116 87.209,203.680 86.988 C 205.465 86.735,206.763 86.246,208.609 85.131 C 211.029 83.669,211.171 83.631,212.758 84.031 C 217.197 85.148,217.641 84.577,216.561 79.142 C 215.935 75.992,215.857 74.957,216.185 74.157 C 217.784 70.268,219.788 66.008,220.274 65.464 C 221.676 63.898,223.330 68.334,223.340 73.683 C 223.345 76.937,223.434 77.371,224.444 79.074 C 225.175 80.306,225.545 81.433,225.549 82.441 C 225.557 84.344,228.876 87.753,232.503 89.584 C 235.465 91.080,236.134 91.049,237.615 89.352 L 238.827 87.963 240.462 88.814 C 241.468 89.339,242.440 90.239,242.992 91.159 C 244.862 94.274,247.188 96.334,248.159 95.734 C 249.197 95.092,246.979 90.764,244.272 88.148 C 243.112 87.028,241.829 85.465,241.421 84.676 C 241.013 83.887,240.193 82.570,239.599 81.750 C 237.437 78.766,238.655 77.858,241.246 80.523 C 242.568 81.883,243.140 82.197,244.658 82.395 C 249.803 83.064,249.417 82.824,252.356 87.173 C 253.855 89.391,254.516 91.111,253.870 91.111 C 253.138 91.111,251.334 89.760,250.170 88.339 C 248.094 85.805,247.255 86.435,249.056 89.175 C 251.885 93.476,253.053 100.127,250.907 99.717 C 250.259 99.593,250.000 99.708,250.000 100.120 C 250.000 100.911,250.671 101.260,251.256 100.774 C 252.057 100.110,252.975 101.538,253.321 103.986 C 253.493 105.202,253.899 106.711,254.224 107.339 C 254.902 108.650,255.008 110.948,254.409 111.318 C 253.300 112.004,251.122 109.319,250.565 106.580 C 250.428 105.907,250.057 105.491,249.460 105.341 C 246.452 104.586,247.626 107.836,254.294 118.724 C 256.283 121.972,258.450 125.546,259.109 126.667 C 259.769 127.787,260.960 129.787,261.757 131.111 C 265.156 136.760,266.304 138.850,267.351 141.296 C 267.961 142.722,269.079 145.306,269.836 147.037 C 272.676 153.542,274.082 158.820,272.870 158.432 C 272.189 158.213,269.315 153.739,268.826 152.136 C 268.279 150.341,267.165 149.235,266.818 150.141 C 266.245 151.632,267.070 154.849,268.401 156.323 C 270.188 158.300,269.819 163.241,267.837 163.870 C 266.856 164.181,262.620 162.784,259.123 160.995 L 256.111 159.455 247.327 159.333 C 236.633 159.185,231.850 159.744,227.682 161.627 C 226.207 162.294,223.717 163.303,222.148 163.870 C 218.704 165.115,217.591 166.084,218.687 166.885 C 219.816 167.711,223.572 166.862,231.111 164.078 C 234.703 162.752,239.380 162.203,247.963 162.099 C 253.525 162.033,254.261 162.209,261.287 165.300 C 265.888 167.324,267.799 170.629,265.591 172.744 C 264.424 173.862,262.470 178.774,262.663 180.104 C 262.726 180.538,263.528 181.440,264.444 182.109 C 267.550 184.376,268.519 185.403,268.519 186.429 C 268.519 187.736,267.667 187.695,265.592 186.290 C 264.696 185.682,263.729 185.185,263.444 185.185 C 262.634 185.185,260.756 184.127,258.333 182.306 C 257.111 181.387,255.235 180.244,254.164 179.765 C 253.093 179.287,251.593 178.488,250.831 177.990 C 245.662 174.614,228.244 174.336,225.196 177.581 C 223.995 178.860,224.922 178.863,228.298 177.593 C 230.983 176.582,233.977 176.416,238.655 177.019 C 243.203 177.605,242.935 178.355,237.718 179.644 C 234.215 180.510,229.566 182.902,227.506 184.898 C 225.993 186.365,226.164 186.546,228.107 185.534 C 230.709 184.177,231.569 184.794,232.574 188.737 C 233.231 191.318,233.799 191.579,239.188 191.774 C 245.004 191.984,245.596 191.664,246.612 187.771 C 247.395 184.771,248.411 184.333,249.664 186.456 C 250.339 187.601,250.631 187.778,251.843 187.778 C 253.975 187.778,254.509 188.866,253.527 191.204 C 253.173 192.045,254.449 192.079,256.693 191.287 C 258.674 190.588,261.618 190.510,266.667 191.024 C 270.266 191.390,270.687 191.363,272.320 190.662 C 275.268 189.396,280.687 191.851,281.329 194.742 C 281.451 195.291,281.630 196.034,281.727 196.391 C 281.824 196.749,281.393 197.935,280.768 199.026 C 279.230 201.714,278.378 206.255,278.634 210.389 C 278.759 212.397,278.639 214.564,278.305 216.315 C 278.015 217.832,277.778 219.907,277.778 220.926 C 277.777 222.058,277.499 223.282,277.063 224.074 C 275.467 226.970,274.415 229.205,273.487 231.667 C 272.950 233.093,272.102 234.867,271.602 235.610 C 269.359 238.943,267.932 245.569,269.008 247.650 C 270.087 249.737,270.177 252.316,269.275 255.275 C 268.824 256.753,268.200 258.796,267.889 259.815 C 267.578 260.833,267.256 262.667,267.173 263.889 C 266.384 275.487,264.911 282.641,262.790 285.185 C 262.177 285.920,261.481 288.848,261.481 290.693 C 261.481 292.407,260.962 293.037,258.740 294.020 C 257.861 294.409,256.673 295.341,256.101 296.091 C 255.528 296.842,254.419 297.783,253.636 298.182 C 252.741 298.639,251.466 299.919,250.199 301.632 C 249.091 303.130,247.468 304.968,246.593 305.718 C 245.717 306.467,244.749 307.611,244.442 308.261 C 244.108 308.967,243.329 309.702,242.504 310.090 C 241.562 310.534,241.049 311.063,240.884 311.759 C 240.443 313.625,237.500 316.047,235.838 315.912 C 233.994 315.762,233.734 315.918,233.332 317.413 C 232.923 318.929,231.376 320.262,229.259 320.920 C 228.750 321.079,227.917 321.495,227.407 321.846 C 226.898 322.196,225.398 322.843,224.074 323.283 C 222.750 323.724,220.787 324.688,219.713 325.427 C 218.150 326.501,217.148 326.866,214.713 327.249 C 213.037 327.513,210.667 327.905,209.444 328.121 C 205.029 328.902,198.092 328.409,191.220 326.826 C 189.956 326.535,188.123 326.307,187.146 326.319 L 185.370 326.342 186.852 327.025 C 193.586 330.128,195.974 330.514,211.111 330.949 C 219.732 331.197,219.848 331.190,223.333 330.229 C 228.642 328.766,230.052 328.913,232.446 331.176 C 233.078 331.774,234.162 332.545,234.853 332.891 C 236.097 333.512,236.112 333.547,236.149 336.111 C 236.190 338.962,237.445 344.333,238.415 345.814 C 239.800 347.927,241.068 352.347,240.406 352.756 C 238.877 353.701,241.112 365.995,243.423 369.352 C 245.300 372.078,248.217 367.069,249.438 359.023 C 250.191 354.056,252.467 349.634,256.197 345.894 C 258.052 344.034,259.202 342.533,259.601 341.450 C 261.619 335.973,264.154 342.938,262.725 350.036 C 262.171 352.791,262.178 352.911,263.089 355.876 C 263.814 358.238,263.943 359.165,263.676 360.097 C 263.487 360.754,263.333 361.840,263.333 362.510 C 263.333 363.180,262.917 364.551,262.407 365.556 C 261.843 366.670,261.481 368.010,261.481 368.990 C 261.481 369.874,261.132 371.631,260.706 372.894 C 260.064 374.794,260.002 375.398,260.345 376.381 C 260.811 377.720,260.533 386.353,259.953 388.519 C 257.285 398.484,254.191 428.562,255.570 431.137 L 256.028 431.993 256.868 431.016 C 257.330 430.479,257.961 428.930,258.271 427.573 C 259.124 423.832,260.736 422.576,263.567 423.445 C 265.245 423.960,266.154 423.103,266.629 420.559 C 267.175 417.636,269.035 416.406,271.111 417.593 C 272.469 418.369,273.192 418.268,274.421 417.130 L 275.521 416.111 275.204 409.842 C 274.865 403.108,274.878 402.990,276.176 401.261 C 277.179 399.927,277.250 398.846,276.481 396.667 C 275.677 394.387,275.768 393.928,277.350 392.282 C 278.134 391.466,278.974 390.318,279.218 389.729 C 279.593 388.824,281.285 387.407,281.992 387.407 C 283.392 387.407,283.583 391.101,282.403 395.368 C 281.724 397.821,281.480 399.626,281.474 402.220 C 281.467 405.581,281.115 409.004,280.551 411.204 C 280.331 412.061,280.407 412.222,281.028 412.222 C 282.633 412.222,285.749 407.604,287.024 403.333 C 287.542 401.600,287.777 401.279,288.604 401.182 C 289.830 401.037,290.048 400.749,291.266 397.666 C 293.033 393.193,293.007 389.939,291.161 384.682 C 289.029 378.612,289.119 377.466,291.860 375.735 C 294.963 373.777,295.570 374.591,295.493 380.617 C 295.429 385.619,295.670 386.459,297.832 388.806 C 299.402 390.509,299.446 390.764,298.687 393.796 C 298.338 395.189,299.207 396.406,301.680 397.988 C 306.641 401.161,309.990 407.997,308.247 411.391 C 306.716 414.373,294.932 419.047,286.591 419.981 C 273.967 421.394,272.021 422.402,267.500 429.872 C 263.533 436.429,262.527 441.680,262.456 456.203 L 262.407 466.296 269.722 466.296 C 276.443 466.296,277.037 466.244,277.034 465.648 C 277.032 465.292,276.699 462.015,276.293 458.367 C 275.161 448.183,275.264 447.778,279.000 447.778 C 282.222 447.778,282.339 448.196,280.962 454.815 C 280.475 457.157,279.998 460.706,279.904 462.701 L 279.731 466.328 282.180 466.219 L 284.630 466.111 284.928 464.259 C 285.092 463.241,285.883 459.878,286.687 456.785 C 287.815 452.447,288.149 450.460,288.154 448.082 C 288.161 444.296,288.200 444.236,290.849 443.970 C 294.482 443.604,296.693 441.682,297.234 438.417 C 297.881 434.510,299.113 434.952,299.658 439.287 C 300.030 442.255,299.317 460.906,298.671 465.093 L 298.485 466.296 303.545 466.296 L 308.605 466.296 308.375 465.463 C 308.000 464.107,309.319 453.310,310.057 451.689 C 310.784 450.094,311.630 450.173,314.915 452.143 C 316.591 453.149,318.502 454.247,319.160 454.585 C 320.621 455.332,321.635 457.148,321.335 458.477 C 321.215 459.009,320.787 460.611,320.384 462.037 C 319.134 466.460,319.021 466.296,323.311 466.296 C 325.367 466.296,327.094 466.133,327.222 465.926 C 327.520 465.444,328.889 465.444,328.889 465.926 C 328.889 466.132,329.879 466.296,331.117 466.296 C 333.307 466.296,333.345 466.279,333.318 465.278 C 333.156 459.159,333.785 456.638,335.987 454.593 C 339.496 451.333,341.022 451.363,344.566 454.765 C 347.180 457.274,347.407 457.884,347.407 462.389 L 347.407 466.296 351.481 466.296 L 355.556 466.296 355.558 463.981 C 355.561 460.589,356.113 458.889,357.213 458.889 C 358.854 458.889,360.750 462.909,360.277 465.385 L 360.103 466.296 371.903 466.296 C 381.085 466.296,383.708 466.194,383.725 465.833 C 383.758 465.095,387.302 462.593,388.313 462.593 C 388.819 462.593,389.803 462.093,390.499 461.481 C 392.725 459.527,394.764 460.416,395.361 463.601 C 395.811 465.995,396.123 466.296,398.161 466.296 L 400.000 466.296 400.000 440.556 C 400.000 417.922,399.933 414.815,399.444 414.815 C 399.139 414.815,398.889 414.648,398.889 414.444 C 398.889 414.241,399.139 414.074,399.444 414.074 C 399.938 414.074,400.000 390.823,400.000 207.037 L 400.000 0.000 200.000 0.000 L 0.000 0.000 0.000 205.581 M194.193 24.502 C 195.452 25.144,196.885 25.853,197.378 26.076 C 199.766 27.157,195.560 28.770,192.060 28.116 C 190.009 27.733,187.030 28.234,185.411 29.234 C 183.205 30.598,175.185 30.491,175.185 29.098 C 175.185 27.449,184.144 23.754,187.024 24.214 C 187.866 24.349,188.997 24.228,189.860 23.912 C 191.788 23.205,191.604 23.180,194.193 24.502 M242.332 39.399 C 242.781 39.884,243.430 40.694,243.775 41.201 C 244.211 41.839,244.891 42.198,245.998 42.372 C 247.605 42.624,250.792 43.480,252.698 44.171 C 254.870 44.958,255.961 47.707,254.427 48.528 C 253.835 48.844,253.395 48.786,252.420 48.263 C 251.733 47.894,250.283 47.117,249.197 46.536 C 248.111 45.954,246.611 44.893,245.865 44.176 C 244.512 42.879,244.501 42.876,242.688 43.310 C 239.797 44.004,235.916 42.892,235.938 41.376 C 235.975 38.806,240.488 37.411,242.332 39.399 M157.553 39.475 C 157.974 40.573,157.779 41.488,156.984 42.133 C 156.548 42.488,155.669 43.220,155.031 43.761 C 154.307 44.375,153.186 44.847,152.048 45.018 C 150.426 45.261,149.954 45.569,147.797 47.797 C 146.462 49.175,144.841 50.566,144.195 50.887 C 143.548 51.209,141.965 52.672,140.676 54.139 C 135.714 59.790,129.774 65.634,128.141 66.473 C 126.328 67.405,123.817 69.905,121.928 72.661 C 121.274 73.615,120.239 74.751,119.629 75.186 C 119.018 75.621,118.519 76.163,118.519 76.391 C 118.519 76.619,118.977 76.377,119.537 75.853 C 120.097 75.330,121.389 74.540,122.407 74.098 C 123.426 73.657,124.759 72.814,125.370 72.226 C 125.981 71.638,127.308 70.804,128.317 70.374 C 129.684 69.791,131.308 68.412,134.670 64.980 C 137.155 62.445,139.370 60.370,139.594 60.370 C 140.426 60.370,139.954 61.528,138.519 63.007 C 137.704 63.847,137.037 64.698,137.037 64.899 C 137.037 65.100,135.892 66.455,134.493 67.910 C 133.093 69.365,131.484 71.306,130.916 72.222 C 130.348 73.139,128.437 75.254,126.669 76.923 C 124.900 78.591,122.803 80.925,122.008 82.108 C 121.212 83.291,119.623 85.284,118.476 86.537 C 117.201 87.930,116.159 89.496,115.793 90.569 C 115.465 91.534,114.784 92.864,114.280 93.524 C 113.777 94.184,113.030 95.604,112.622 96.680 C 112.213 97.755,111.450 99.083,110.925 99.631 C 109.925 100.674,104.901 110.596,104.079 113.148 C 103.346 115.426,101.972 117.985,100.712 119.421 C 99.851 120.401,99.350 121.610,98.675 124.338 C 97.904 127.450,97.596 128.124,96.468 129.157 C 95.233 130.289,95.170 130.459,95.370 132.123 C 95.556 133.673,95.437 134.115,94.395 135.741 L 93.208 137.593 92.893 136.481 C 92.596 135.437,92.722 134.308,94.105 125.603 C 94.311 124.305,94.983 122.246,95.598 121.027 C 96.323 119.591,96.886 117.679,97.197 115.596 C 97.461 113.827,97.950 111.853,98.283 111.208 C 98.930 109.957,99.089 108.519,98.580 108.519 C 97.935 108.519,95.559 112.563,93.963 116.377 C 93.050 118.561,91.703 121.164,90.970 122.162 C 89.675 123.926,87.954 128.307,86.820 132.723 C 86.514 133.915,85.860 135.665,85.367 136.612 C 84.382 138.500,82.743 143.738,82.046 147.222 C 81.802 148.444,81.344 149.944,81.028 150.556 C 80.713 151.167,80.266 152.584,80.035 153.706 C 79.804 154.828,79.286 156.245,78.884 156.854 C 77.578 158.836,77.871 160.370,79.556 160.370 C 81.230 160.370,81.852 160.892,81.852 162.296 C 81.852 163.227,81.724 163.333,80.601 163.333 C 79.153 163.333,78.410 164.041,78.583 165.257 C 78.750 166.437,80.025 166.538,81.845 165.515 C 83.613 164.521,83.964 164.720,83.165 166.264 C 82.839 166.894,82.422 168.606,82.238 170.068 C 81.959 172.290,81.657 173.075,80.393 174.868 C 78.841 177.069,78.334 178.834,77.399 185.295 C 77.039 187.782,76.104 190.093,74.764 191.809 C 74.377 192.305,74.074 193.289,74.074 194.052 C 74.074 194.939,73.671 196.046,72.911 197.242 C 70.594 200.892,70.370 201.800,70.373 207.531 C 70.375 210.417,70.175 214.823,69.929 217.322 C 69.520 221.469,69.540 222.041,70.158 223.859 C 70.822 225.811,70.820 225.902,70.084 228.389 C 69.283 231.089,68.541 236.658,68.412 240.926 C 68.255 246.098,65.655 242.826,65.206 236.892 C 65.064 235.015,64.812 233.258,64.645 232.989 C 64.141 232.172,64.066 217.175,64.547 213.148 C 64.789 211.111,64.947 208.320,64.897 206.945 C 64.825 204.997,65.001 203.975,65.694 202.315 C 66.184 201.144,66.704 199.269,66.850 198.148 C 66.996 197.028,67.523 194.944,68.021 193.519 C 69.280 189.914,71.111 182.103,71.111 180.336 C 71.111 179.528,71.506 177.913,71.988 176.748 C 72.643 175.167,72.925 173.597,73.101 170.556 C 73.230 168.315,73.684 164.731,74.108 162.593 C 74.532 160.454,74.929 156.954,74.989 154.815 C 75.096 151.042,75.148 150.832,76.720 147.778 C 78.340 144.634,79.620 140.988,82.754 130.601 C 83.668 127.571,84.631 124.800,84.893 124.444 C 87.553 120.836,88.908 118.444,90.733 114.133 C 94.850 104.409,100.892 93.131,103.862 89.626 C 105.330 87.893,106.731 85.905,106.974 85.208 C 107.216 84.512,107.945 83.097,108.593 82.064 C 111.457 77.499,114.484 72.982,114.817 72.776 C 115.017 72.653,116.625 70.695,118.390 68.425 C 120.155 66.154,122.115 63.883,122.744 63.377 C 123.374 62.871,126.472 59.859,129.630 56.684 C 137.339 48.930,139.052 47.589,145.254 44.446 C 148.170 42.969,150.743 41.611,150.973 41.428 C 153.492 39.425,157.120 38.348,157.553 39.475 M239.947 51.811 C 240.262 52.011,240.309 52.216,240.073 52.362 C 239.565 52.676,238.470 52.229,238.728 51.813 C 238.982 51.402,239.300 51.401,239.947 51.811 M240.117 63.386 C 240.562 63.619,241.629 64.451,242.489 65.235 C 243.349 66.020,245.016 67.274,246.193 68.022 C 251.680 71.509,253.818 74.675,251.516 75.907 C 250.705 76.341,246.951 75.466,245.791 74.572 C 241.206 71.037,235.926 66.004,235.926 65.167 C 235.926 63.684,238.552 62.568,240.117 63.386 M151.269 64.031 C 151.628 64.611,150.116 66.120,147.713 67.580 C 144.110 69.770,140.077 72.942,138.779 74.607 C 138.135 75.434,136.247 77.628,134.585 79.481 C 130.424 84.120,128.335 87.049,127.405 89.546 C 126.177 92.843,122.298 100.659,120.520 103.418 C 119.637 104.788,118.647 106.828,118.321 107.950 C 117.995 109.073,117.160 110.785,116.465 111.755 C 114.880 113.969,113.709 116.402,112.279 120.452 C 111.663 122.199,110.560 124.817,109.827 126.271 C 107.873 130.153,104.074 142.002,104.074 144.219 C 104.074 145.815,102.874 148.055,100.729 150.462 C 99.654 151.668,98.597 153.323,98.253 154.339 C 97.924 155.314,97.283 156.694,96.828 157.407 C 96.011 158.690,95.419 161.039,94.236 167.687 C 93.347 172.681,92.660 172.510,91.912 167.110 C 91.437 163.683,92.847 153.005,94.441 147.963 C 95.543 144.476,96.391 139.338,96.376 136.237 C 96.364 133.709,96.459 133.310,97.255 132.562 C 97.746 132.100,98.148 131.512,98.148 131.254 C 98.148 130.997,98.807 130.024,99.613 129.093 C 101.139 127.331,101.574 126.212,102.266 122.284 C 102.635 120.192,102.919 119.670,104.886 117.469 C 107.595 114.437,107.979 113.728,108.651 110.502 C 109.133 108.193,109.767 106.862,112.416 102.593 C 112.858 101.880,113.954 99.982,114.851 98.376 C 115.948 96.411,117.903 93.928,120.828 90.784 C 124.094 87.273,125.319 85.681,125.756 84.380 C 126.153 83.197,126.770 82.330,127.705 81.641 C 129.011 80.678,131.355 78.446,139.292 70.610 C 142.551 67.392,143.054 67.039,145.403 66.318 C 146.811 65.885,148.542 65.120,149.249 64.617 C 150.646 63.624,150.962 63.533,151.269 64.031 M268.986 66.073 C 270.553 67.376,272.284 69.001,272.833 69.684 C 273.382 70.367,274.960 72.093,276.340 73.519 C 278.053 75.288,279.612 77.464,281.251 80.370 C 282.572 82.713,284.393 85.630,285.299 86.852 C 287.688 90.074,288.969 92.962,287.819 92.531 C 287.307 92.339,284.881 89.317,283.884 87.630 C 283.391 86.795,282.144 85.390,281.114 84.509 C 279.970 83.530,278.817 82.066,278.150 80.745 C 277.550 79.556,276.258 77.611,275.278 76.421 C 274.299 75.232,272.723 73.164,271.777 71.824 C 270.830 70.485,269.501 68.956,268.824 68.426 C 266.695 66.761,264.444 64.547,264.444 64.117 C 264.444 63.058,266.342 63.875,268.986 66.073 M161.031 67.446 C 161.221 68.439,158.370 71.639,154.926 74.302 C 149.321 78.636,147.086 80.753,145.332 83.390 C 144.399 84.794,143.218 86.231,142.708 86.582 C 140.896 87.833,140.516 88.392,140.042 90.513 C 139.671 92.170,139.238 92.974,138.142 94.037 C 137.201 94.950,136.167 96.668,135.074 99.132 C 133.634 102.380,131.455 105.898,126.946 112.256 C 126.283 113.191,124.961 114.820,124.008 115.877 C 122.393 117.668,121.467 119.502,120.946 121.938 C 120.827 122.494,120.212 123.540,119.578 124.262 C 118.735 125.222,118.381 126.044,118.258 127.324 C 118.039 129.624,117.512 130.991,116.185 132.703 C 115.442 133.661,114.817 135.228,114.227 137.610 C 113.751 139.534,113.178 141.449,112.956 141.865 C 112.733 142.281,112.150 145.027,111.660 147.967 C 111.170 150.907,110.436 154.043,110.030 154.934 C 109.127 156.916,108.530 160.483,108.562 163.704 C 108.590 166.532,107.632 169.561,105.732 172.648 C 105.024 173.799,104.445 175.133,104.446 175.611 C 104.449 178.204,102.880 181.806,101.088 183.317 C 99.575 184.593,98.148 185.239,98.148 184.648 C 98.148 184.556,97.904 183.542,97.605 182.396 C 97.001 180.077,97.969 172.465,100.004 163.519 C 100.236 162.500,100.647 160.315,100.917 158.662 C 101.314 156.239,101.657 155.332,102.691 153.978 C 103.539 152.866,104.247 151.281,104.785 149.287 C 105.232 147.630,106.077 145.149,106.662 143.773 C 107.248 142.398,107.930 140.444,108.178 139.432 C 108.426 138.420,108.997 136.843,109.448 135.926 C 109.898 135.009,111.146 131.593,112.220 128.333 C 113.294 125.074,114.310 122.233,114.477 122.020 C 115.094 121.232,117.532 116.048,118.205 114.094 C 118.587 112.984,119.476 111.234,120.180 110.205 C 120.886 109.174,121.734 107.252,122.069 105.926 C 122.790 103.070,123.293 102.028,125.377 99.074 C 126.240 97.852,127.456 95.813,128.080 94.544 C 130.604 89.410,142.014 76.775,148.528 71.901 C 153.352 68.292,160.694 65.675,161.031 67.446 M115.949 78.501 C 114.179 79.675,113.367 80.807,113.346 82.130 C 113.318 83.930,115.226 82.485,116.680 79.603 C 117.290 78.395,117.744 77.408,117.691 77.409 C 117.637 77.410,116.853 77.901,115.949 78.501 M238.161 85.756 C 238.522 86.191,238.532 86.431,238.204 86.759 C 237.674 87.289,236.433 86.234,236.830 85.591 C 237.176 85.030,237.602 85.083,238.161 85.756 M109.773 88.345 C 109.435 88.861,109.279 89.402,109.426 89.549 C 109.704 89.826,111.111 88.313,111.111 87.737 C 111.111 87.090,110.377 87.423,109.773 88.345 M180.370 89.055 C 180.370 89.737,178.627 91.033,175.556 92.634 C 174.209 93.336,171.909 95.070,170.334 96.569 C 167.541 99.230,165.633 100.370,163.976 100.370 C 163.040 100.370,159.765 103.778,156.727 107.911 C 153.622 112.137,148.267 118.020,147.878 117.632 C 147.816 117.569,148.283 116.412,148.915 115.060 C 149.828 113.109,150.133 111.827,150.392 108.846 C 150.597 106.484,150.932 104.799,151.294 104.304 C 151.611 103.872,152.532 102.685,153.341 101.667 C 154.150 100.648,155.072 99.036,155.389 98.085 C 156.170 95.744,158.448 93.258,161.446 91.477 C 164.339 89.758,164.512 89.734,166.040 90.822 C 167.880 92.132,170.699 91.979,173.704 90.406 C 177.374 88.485,180.370 87.878,180.370 89.055 M259.076 97.654 C 262.919 103.152,265.448 108.521,263.981 108.067 C 262.827 107.709,255.926 96.834,255.926 95.372 C 255.926 93.916,257.014 94.704,259.076 97.654 M149.171 96.389 C 149.985 97.399,148.447 99.295,145.589 100.804 C 143.779 101.760,143.468 102.180,143.168 104.074 C 143.044 104.858,142.268 106.225,141.204 107.532 C 135.866 114.092,132.180 119.195,131.670 120.732 C 131.273 121.926,130.380 123.153,128.688 124.829 C 126.613 126.886,126.171 127.566,125.546 129.663 C 125.146 131.006,124.466 132.422,124.035 132.811 C 122.437 134.254,120.741 138.317,120.741 140.701 C 120.741 141.980,120.198 145.078,119.444 148.097 C 118.731 150.954,118.148 153.621,118.148 154.023 C 118.148 155.526,116.258 164.184,115.691 165.282 C 115.339 165.962,115.059 167.582,114.998 169.289 C 114.848 173.462,113.793 176.209,113.196 173.981 C 112.792 172.472,112.953 170.337,113.659 167.835 C 114.684 164.201,115.147 161.446,115.565 156.481 C 116.704 142.972,116.647 143.346,118.327 138.333 C 119.215 135.685,120.048 133.029,120.180 132.430 C 120.312 131.832,121.237 129.609,122.236 127.491 C 123.235 125.373,124.163 123.030,124.297 122.283 C 124.823 119.366,126.416 117.436,127.493 118.411 C 128.515 119.336,129.034 118.866,132.407 113.965 C 136.744 107.665,138.256 105.810,140.640 103.869 C 142.240 102.565,142.947 101.674,143.452 100.323 C 143.944 99.005,144.543 98.234,145.674 97.462 C 147.987 95.884,148.611 95.693,149.171 96.389 M294.094 102.632 C 295.453 105.296,296.648 109.636,296.019 109.625 C 295.718 109.619,292.777 103.676,292.403 102.318 C 291.832 100.242,292.984 100.456,294.094 102.632 M267.436 110.842 C 269.081 111.950,270.432 113.996,270.295 115.169 C 269.948 118.131,265.556 114.209,265.556 110.938 C 265.556 109.784,265.844 109.769,267.436 110.842 M129.630 134.433 C 129.630 135.242,129.293 136.550,128.881 137.340 C 128.469 138.131,127.879 139.988,127.571 141.467 C 127.262 142.946,126.706 144.763,126.334 145.504 C 125.961 146.245,125.371 147.727,125.021 148.796 C 124.285 151.047,123.477 151.328,123.126 149.454 C 122.825 147.852,123.518 144.754,124.635 142.704 C 125.101 141.849,125.938 139.766,126.495 138.075 C 128.239 132.782,129.630 131.167,129.630 134.433 M273.579 140.858 C 273.876 141.432,274.067 142.266,274.004 142.710 C 273.843 143.843,271.960 141.394,271.613 139.599 L 271.368 138.333 272.204 139.073 C 272.663 139.480,273.282 140.283,273.579 140.858 M287.572 144.897 C 288.298 145.935,288.316 147.037,287.606 147.037 C 286.964 147.037,286.296 145.917,286.296 144.839 C 286.296 143.840,286.849 143.866,287.572 144.897 M143.425 168.673 C 142.645 169.030,141.601 169.157,140.462 169.035 C 139.045 168.882,138.452 169.010,137.407 169.693 L 136.111 170.542 137.172 170.670 C 137.756 170.741,139.006 170.547,139.950 170.239 C 143.019 169.240,154.087 170.349,159.421 172.191 C 164.014 173.776,167.835 173.520,166.346 171.727 C 164.464 169.459,146.842 167.111,143.425 168.673 M113.509 187.315 C 113.373 189.403,113.130 191.029,112.967 190.929 C 112.038 190.354,112.270 179.143,113.262 176.735 C 113.634 175.831,113.798 182.871,113.509 187.315 M149.259 183.377 C 142.805 184.658,140.031 186.578,135.444 192.937 C 130.358 199.990,135.190 201.283,142.440 194.809 C 146.941 190.790,148.328 190.719,148.839 194.481 C 149.341 198.185,151.697 200.682,154.052 200.006 C 154.581 199.855,156.498 199.520,158.312 199.262 C 162.535 198.663,163.333 197.995,163.333 195.062 C 163.333 192.815,163.752 192.243,165.488 192.118 C 168.302 191.915,164.335 189.692,158.641 188.281 C 152.742 186.819,148.163 186.941,142.778 188.706 C 142.240 188.882,142.342 188.684,143.148 187.987 C 145.908 185.600,156.986 183.587,163.147 184.354 C 165.629 184.662,164.197 183.797,161.174 183.161 C 157.690 182.428,153.671 182.501,149.259 183.377 M237.183 183.919 C 238.258 186.723,235.442 189.833,233.545 187.937 C 232.713 187.104,233.055 185.404,234.342 183.982 C 235.078 183.169,236.879 183.129,237.183 183.919 M92.062 186.883 C 91.748 188.134,89.686 190.370,88.846 190.370 C 87.875 190.370,88.676 188.431,90.635 186.034 C 92.112 184.228,92.649 184.547,92.062 186.883 M155.111 191.556 C 156.258 192.703,155.086 195.926,153.521 195.926 C 152.289 195.926,151.720 195.029,151.971 193.482 C 152.325 191.304,153.896 190.340,155.111 191.556 M167.037 192.503 C 167.037 193.009,168.601 194.328,169.537 194.612 C 169.995 194.751,170.370 194.716,170.370 194.534 C 170.370 194.028,168.806 192.709,167.870 192.425 C 167.412 192.286,167.037 192.321,167.037 192.503 M320.671 199.361 C 320.787 203.197,319.974 207.354,319.046 207.664 C 317.287 208.250,316.772 199.049,318.353 195.265 L 318.911 193.931 319.733 194.753 C 320.457 195.476,320.569 196.029,320.671 199.361 M325.343 203.849 C 325.368 206.054,325.099 207.074,324.618 206.593 C 324.254 206.229,323.976 202.664,324.232 201.644 C 324.663 199.928,325.313 201.219,325.343 203.849 M334.392 222.377 C 334.911 225.065,334.954 231.111,334.455 231.111 C 333.767 231.111,332.777 226.917,332.823 224.197 C 332.907 219.210,333.622 218.381,334.392 222.377 M324.636 224.553 C 325.915 228.795,324.335 249.536,322.603 251.242 C 321.883 251.952,321.023 250.430,321.274 248.889 C 321.877 245.182,322.137 238.210,321.747 236.202 C 321.418 234.509,321.456 233.060,321.931 229.165 C 322.822 221.857,323.484 220.729,324.636 224.553 M315.573 225.046 C 316.042 226.280,316.307 246.602,315.886 249.074 C 315.712 250.093,315.405 252.718,315.202 254.908 C 314.867 258.527,313.991 261.522,313.431 260.962 C 313.230 260.761,313.528 256.329,314.457 245.719 C 314.980 239.734,314.895 233.196,314.249 229.821 C 313.429 225.535,314.412 221.991,315.573 225.046 M217.407 225.685 C 217.407 226.153,220.096 228.889,220.557 228.889 C 221.326 228.889,219.371 226.210,218.108 225.534 C 217.574 225.248,217.407 225.284,217.407 225.685 M209.147 225.833 C 208.316 227.316,208.715 229.630,209.803 229.630 C 210.624 229.630,210.822 228.320,210.220 226.879 C 209.664 225.546,209.434 225.322,209.147 225.833 M309.511 228.176 C 309.751 229.077,309.937 231.481,309.924 233.519 C 309.910 235.556,310.017 237.811,310.161 238.530 C 310.331 239.382,310.221 240.416,309.846 241.493 C 309.040 243.809,309.114 244.836,310.242 247.011 L 311.224 248.904 310.432 252.137 C 309.996 253.915,309.528 256.204,309.392 257.222 C 309.145 259.080,307.269 262.963,306.620 262.963 C 305.841 262.963,305.903 261.717,306.815 259.076 C 307.653 256.652,307.729 256.065,307.398 254.588 C 307.189 253.654,307.024 249.948,307.032 246.352 C 307.040 242.757,306.888 239.155,306.693 238.348 C 306.468 237.416,306.468 235.414,306.691 232.865 C 307.234 226.686,308.537 224.519,309.511 228.176 M222.058 231.178 C 222.603 232.894,222.337 236.596,221.577 237.884 C 221.171 238.572,220.629 239.787,220.373 240.586 C 219.706 242.659,219.125 243.178,216.232 244.284 C 212.955 245.536,212.774 245.293,215.128 242.804 C 216.178 241.694,217.037 240.528,217.037 240.214 C 217.037 237.573,206.611 241.264,201.350 245.768 C 199.307 247.516,196.620 248.084,194.236 247.272 C 190.732 246.078,190.259 247.246,193.611 248.817 C 195.641 249.768,196.027 249.816,201.852 249.851 C 205.213 249.870,208.510 250.010,209.179 250.161 C 210.116 250.372,210.797 250.228,212.142 249.534 C 213.103 249.038,214.700 248.433,215.690 248.189 C 224.019 246.139,227.964 240.457,225.380 234.232 C 224.440 231.967,221.431 229.201,222.058 231.178 M330.340 236.431 C 330.560 238.016,330.741 241.106,330.741 243.298 C 330.741 245.490,330.934 248.247,331.170 249.423 C 331.827 252.694,330.355 263.843,328.659 268.446 C 327.340 272.026,325.459 268.632,326.443 264.444 C 327.355 260.560,327.763 255.341,328.080 243.504 C 328.437 230.185,329.157 227.929,330.340 236.431 M334.850 238.415 C 334.526 238.973,334.465 238.899,334.456 237.932 C 334.450 237.304,334.569 236.663,334.722 236.508 C 335.164 236.059,335.274 237.688,334.850 238.415 M81.652 242.704 C 82.046 243.305,82.268 244.972,82.404 248.352 C 82.510 250.990,82.689 254.426,82.802 255.987 C 83.038 259.238,82.725 261.481,82.036 261.481 C 81.143 261.481,80.371 258.640,80.348 255.270 C 80.336 253.492,80.171 251.204,79.982 250.185 C 78.835 244.020,79.771 239.832,81.652 242.704 M73.574 253.645 C 73.312 256.456,72.716 257.473,71.949 256.423 C 71.413 255.690,71.631 252.270,72.294 250.995 C 73.070 249.504,73.817 251.049,73.574 253.645 M88.976 252.130 C 91.908 255.454,93.192 260.603,92.581 266.595 C 91.945 272.830,91.475 271.905,89.421 260.370 C 89.011 258.069,88.420 256.184,87.711 254.920 C 86.260 252.334,87.243 250.166,88.976 252.130 M238.761 266.446 C 237.372 268.566,234.283 269.074,222.778 269.074 C 214.946 269.074,212.135 269.195,211.296 269.567 C 210.685 269.838,208.701 270.379,206.887 270.769 C 204.832 271.211,202.949 271.885,201.887 272.559 C 199.224 274.252,197.463 274.570,190.370 274.640 C 184.094 274.702,170.340 275.465,170.035 275.768 C 168.848 276.951,176.893 278.253,181.109 277.561 C 184.855 276.945,196.096 276.495,204.585 276.620 C 208.160 276.673,210.632 276.511,212.704 276.088 C 214.895 275.642,217.160 275.512,221.267 275.597 C 230.160 275.783,234.182 275.224,237.304 273.369 C 238.709 272.535,240.157 271.852,240.522 271.852 C 241.555 271.852,243.704 269.489,243.704 268.354 C 243.704 265.953,240.016 264.530,238.761 266.446 M86.789 270.278 C 87.356 274.870,87.484 277.581,87.116 277.222 C 86.678 276.796,85.926 272.242,85.926 270.022 C 85.926 267.951,86.523 268.128,86.789 270.278 M94.741 277.756 C 97.030 282.198,97.315 283.672,97.173 290.332 C 97.106 293.469,96.982 296.105,96.896 296.190 C 96.541 296.545,94.919 289.896,93.895 283.889 C 93.583 282.056,93.022 279.580,92.648 278.388 C 91.181 273.705,92.455 273.321,94.741 277.756 M230.000 278.895 C 228.880 279.042,226.896 279.617,225.593 280.174 C 223.553 281.044,222.907 281.154,220.963 280.958 C 218.272 280.686,218.261 280.692,216.463 283.514 C 214.238 287.005,212.288 288.095,206.481 289.089 C 200.964 290.034,195.902 291.253,196.381 291.521 C 197.784 292.307,205.440 292.311,208.776 291.528 C 211.042 290.996,213.081 290.771,215.072 290.834 C 217.914 290.923,218.090 290.878,220.074 289.564 C 221.205 288.814,222.860 288.007,223.751 287.770 C 227.409 286.797,230.594 284.536,233.796 280.639 C 235.722 278.294,235.468 278.177,230.000 278.895 M93.249 301.481 C 93.035 305.029,91.573 302.640,91.289 298.280 L 91.100 295.370 92.225 297.593 C 93.074 299.270,93.325 300.223,93.249 301.481 M297.037 297.178 C 297.037 298.456,287.350 305.302,281.740 307.989 C 279.866 308.886,277.527 310.203,276.541 310.916 C 274.682 312.260,272.041 313.275,271.586 312.821 C 271.206 312.441,273.145 310.967,276.080 309.406 C 277.488 308.657,279.525 307.173,280.606 306.109 C 283.246 303.511,286.607 301.376,290.574 299.776 C 292.379 299.048,294.364 298.053,294.984 297.564 C 296.251 296.564,297.037 296.417,297.037 297.178 M296.674 326.485 C 299.017 327.697,299.069 329.330,296.850 331.932 C 292.542 336.983,291.602 337.893,289.259 339.285 C 287.879 340.105,286.455 341.101,286.095 341.499 C 283.488 344.380,283.723 339.335,286.350 336.047 C 287.135 335.064,288.319 333.531,288.981 332.642 C 294.148 325.700,294.544 325.384,296.674 326.485 M284.444 328.131 C 284.444 328.938,283.878 329.787,282.130 331.604 C 280.856 332.926,278.856 335.023,277.685 336.263 C 273.371 340.832,273.952 337.463,278.592 331.009 C 282.007 326.258,284.444 325.060,284.444 328.131 M327.770 334.537 C 327.757 335.282,326.416 337.819,325.011 339.759 C 324.291 340.751,323.309 342.857,322.814 344.469 C 322.322 346.072,321.136 348.641,320.179 350.176 C 318.711 352.530,318.465 353.186,318.611 354.355 C 318.817 356.011,317.889 358.086,316.428 359.235 C 314.986 360.370,314.738 359.754,315.568 357.090 C 315.968 355.802,316.296 354.318,316.296 353.791 C 316.296 351.340,322.896 337.882,325.278 335.477 C 326.661 334.080,327.785 333.656,327.770 334.537 M265.370 337.037 C 265.370 337.309,265.162 337.600,264.907 337.685 C 264.632 337.777,264.444 337.514,264.444 337.037 C 264.444 336.560,264.632 336.297,264.907 336.389 C 265.162 336.474,265.370 336.765,265.370 337.037 M102.222 342.058 C 102.222 342.579,102.407 343.740,102.633 344.637 C 103.257 347.116,102.021 353.704,100.932 353.704 C 100.342 353.704,100.546 346.955,101.200 344.822 C 101.417 344.113,101.575 342.988,101.550 342.322 C 101.525 341.656,101.666 341.111,101.863 341.111 C 102.061 341.111,102.222 341.537,102.222 342.058 M314.860 344.722 C 315.584 346.580,314.718 352.813,313.362 355.498 C 312.726 356.758,311.479 359.829,310.591 362.321 C 307.232 371.744,306.590 373.307,305.673 374.297 C 304.206 375.880,303.969 374.828,304.866 370.710 C 305.284 368.792,305.754 366.306,305.910 365.185 C 306.401 361.676,306.675 360.860,307.973 359.033 C 308.748 357.944,309.329 356.605,309.476 355.573 C 309.607 354.647,310.199 352.771,310.790 351.404 C 311.381 350.038,312.032 348.038,312.235 346.960 C 312.785 344.049,312.944 343.704,313.738 343.704 C 314.186 343.704,314.615 344.093,314.860 344.722 M108.976 361.486 C 109.329 362.196,110.127 364.028,110.750 365.556 C 112.782 370.539,112.844 370.632,115.259 372.279 C 117.356 373.709,117.827 373.875,119.912 373.919 C 122.593 373.975,122.911 374.191,125.225 377.528 C 128.837 382.740,129.259 383.447,129.259 384.296 C 129.259 385.190,129.010 385.321,127.532 385.204 C 126.677 385.136,126.495 385.487,126.099 387.963 C 125.420 392.197,124.698 391.772,124.063 386.766 C 123.255 380.392,121.075 377.321,115.206 374.290 C 111.241 372.242,110.924 371.891,109.825 368.329 C 109.175 366.221,108.573 365.078,107.576 364.057 C 106.261 362.711,106.230 362.618,106.662 361.312 C 107.219 359.622,108.081 359.687,108.976 361.486 M102.476 371.378 C 102.983 372.126,102.967 372.286,102.294 373.142 C 101.886 373.659,101.635 374.397,101.736 374.781 C 101.887 375.361,101.646 375.523,100.311 375.738 C 99.427 375.881,98.020 376.332,97.185 376.740 C 95.749 377.443,95.602 377.450,94.488 376.874 C 93.088 376.151,93.230 375.727,94.983 375.398 C 97.865 374.857,96.939 373.661,92.638 372.368 C 88.731 371.194,87.516 370.272,88.991 369.600 C 89.771 369.245,90.313 369.277,91.807 369.765 C 94.456 370.632,95.847 370.516,97.963 369.252 L 99.815 368.146 100.867 369.351 C 101.446 370.013,102.170 370.926,102.476 371.378 M87.037 369.829 C 87.037 370.456,85.595 370.929,85.124 370.457 C 84.637 369.971,85.784 368.858,86.492 369.129 C 86.792 369.244,87.037 369.559,87.037 369.829 M142.368 371.887 C 144.510 373.572,148.101 384.072,146.995 385.417 C 146.340 386.214,143.746 386.363,142.574 385.671 C 141.725 385.169,141.391 385.127,141.041 385.478 C 139.154 387.365,136.854 384.024,138.504 381.792 C 139.319 380.690,139.320 380.662,138.690 378.334 C 137.344 373.362,139.481 369.616,142.368 371.887 M245.782 372.434 C 245.253 373.813,247.210 375.515,248.519 374.815 C 249.691 374.188,249.418 373.080,247.895 372.278 C 246.779 371.691,246.046 371.745,245.782 372.434 M89.352 375.741 C 89.076 376.843,85.556 376.819,85.556 375.714 C 85.556 375.262,85.951 375.169,87.500 375.258 C 88.569 375.320,89.403 375.537,89.352 375.741 M107.692 375.958 C 112.017 376.886,112.634 377.243,115.467 380.455 C 118.303 383.668,119.679 386.168,118.889 386.672 C 118.112 387.167,118.039 387.149,116.629 386.112 C 115.937 385.604,114.629 384.729,113.722 384.168 C 112.816 383.607,111.232 382.298,110.204 381.260 C 109.175 380.221,107.125 378.672,105.648 377.818 C 103.051 376.314,102.685 375.957,103.210 375.432 C 103.559 375.083,103.679 375.098,107.692 375.958 M102.887 383.938 C 103.073 385.193,99.534 391.648,98.584 391.786 C 97.503 391.943,96.588 389.963,97.086 388.545 C 98.056 385.788,102.622 382.161,102.887 383.938 M43.681 396.326 C 49.059 397.479,47.436 399.828,40.737 400.585 C 37.310 400.973,34.340 398.286,36.759 396.986 C 38.681 395.953,40.939 395.738,43.681 396.326 M161.481 397.631 C 161.481 397.844,161.918 398.423,162.452 398.917 C 162.985 399.411,163.846 400.481,164.365 401.296 C 164.883 402.111,166.251 403.778,167.404 405.000 C 168.557 406.222,169.887 407.781,170.359 408.465 C 170.831 409.148,172.042 410.648,173.051 411.798 C 174.712 413.691,180.429 422.040,182.599 425.741 C 183.077 426.556,184.521 428.600,185.808 430.284 C 187.096 431.968,189.168 435.385,190.414 437.877 C 192.797 442.642,196.532 448.189,201.783 454.762 C 205.382 459.268,207.036 462.404,207.037 464.722 L 207.037 466.296 209.065 466.296 C 211.076 466.296,211.090 466.289,210.740 465.368 C 210.186 463.910,209.219 462.093,208.653 461.445 C 208.368 461.120,207.540 459.370,206.812 457.557 C 205.228 453.611,204.475 452.315,202.208 449.630 C 200.321 447.394,195.010 439.848,191.660 434.642 C 190.484 432.816,188.336 430.066,186.885 428.531 C 183.369 424.811,182.357 423.469,179.666 418.956 C 176.873 414.272,174.586 411.245,171.641 408.333 C 170.404 407.111,168.790 405.278,168.054 404.259 C 166.513 402.126,161.481 397.051,161.481 397.631 M96.596 402.682 C 96.659 403.215,96.207 404.635,95.577 405.883 C 94.884 407.256,94.444 408.694,94.444 409.589 C 94.444 412.307,93.843 412.830,92.339 411.417 C 91.228 410.373,91.251 409.084,92.407 407.710 C 92.917 407.105,93.333 406.284,93.333 405.886 C 93.333 403.041,96.292 400.135,96.596 402.682 M103.713 409.098 C 104.564 411.338,103.609 414.863,102.641 413.054 C 101.983 411.823,102.092 408.148,102.787 408.148 C 103.098 408.148,103.514 408.576,103.713 409.098 M155.425 412.969 C 155.128 414.452,155.510 416.223,155.969 415.498 C 156.375 414.858,156.377 412.923,155.973 412.285 C 155.752 411.938,155.591 412.140,155.425 412.969 M65.000 414.444 C 65.126 414.648,64.979 414.815,64.673 414.815 C 64.368 414.815,64.015 414.648,63.889 414.444 C 63.763 414.241,63.910 414.074,64.216 414.074 C 64.521 414.074,64.874 414.241,65.000 414.444 M316.335 423.391 C 318.679 426.843,320.253 428.417,322.739 429.800 C 326.786 432.050,331.659 433.990,334.710 434.566 C 336.353 434.876,338.376 435.475,339.205 435.898 C 341.192 436.912,341.849 436.868,342.813 435.659 L 343.617 434.651 346.160 435.243 C 347.761 435.616,349.567 435.767,351.032 435.650 C 353.518 435.452,354.815 436.054,354.815 437.407 C 354.815 438.961,353.598 439.354,347.742 439.691 L 342.144 440.014 336.906 438.545 C 328.886 436.296,320.913 432.282,318.556 429.307 C 316.393 426.576,313.766 421.111,314.616 421.111 C 314.710 421.111,315.484 422.137,316.335 423.391 M363.649 422.749 C 364.181 423.281,364.096 423.333,362.702 423.333 C 360.780 423.333,360.000 423.040,360.000 422.319 C 360.000 421.574,362.805 421.905,363.649 422.749 M117.202 429.226 C 118.380 431.132,110.155 433.395,107.999 431.758 C 106.947 430.960,107.603 430.372,109.559 430.361 C 110.514 430.355,111.963 430.035,112.778 429.650 C 114.353 428.905,116.855 428.665,117.202 429.226 M137.843 430.477 C 137.248 431.194,136.511 434.246,136.770 434.921 C 137.340 436.407,138.716 436.767,143.995 436.815 C 146.788 436.840,149.354 436.998,149.697 437.164 C 151.062 437.828,152.131 433.252,150.979 431.677 C 150.614 431.177,150.287 431.077,149.776 431.309 C 149.390 431.484,148.424 431.637,147.630 431.647 C 146.328 431.665,146.145 431.789,145.761 432.917 C 144.928 435.364,142.860 436.142,140.173 435.019 C 138.786 434.439,138.570 433.698,139.314 432.065 C 139.958 430.651,138.766 429.365,137.843 430.477 M170.850 440.621 C 170.719 440.963,170.807 442.596,171.046 444.251 C 171.286 445.906,171.481 447.805,171.481 448.469 C 171.481 450.945,172.750 451.872,173.846 450.198 C 174.915 448.567,174.448 443.516,172.974 440.761 C 172.483 439.844,171.181 439.758,170.850 440.621 M186.358 450.852 C 186.138 451.116,185.846 452.033,185.710 452.889 L 185.461 454.444 187.117 454.444 C 189.907 454.444,191.115 452.077,188.907 450.935 C 187.570 450.244,186.881 450.221,186.358 450.852 " stroke="none" fill="#202734" fill-rule="evenodd"></path></g></svg>