<?xml version="1.0" standalone="no"?>
<!DOCTYPE svg PUBLIC "-//W3C//DTD SVG 20010904//EN"
 "http://www.w3.org/TR/2001/REC-SVG-20010904/DTD/svg10.dtd">
<svg version="1.0" xmlns="http://www.w3.org/2000/svg"
 width="300.000000pt" height="350.000000pt" viewBox="0 0 300.000000 350.000000"
 preserveAspectRatio="xMidYMid meet">
<metadata>
Created by potrace 1.10, written by Peter Selinger 2001-2011
</metadata>
<g transform="translate(0.000000,350.000000) scale(0.100000,-0.100000)"
fill="#000000" stroke="none">
<path d="M30 3490 c0 -5 5 -10 11 -10 5 0 7 5 4 10 -3 6 -8 10 -11 10 -2 0 -4
-4 -4 -10z"/>
<path d="M1410 3363 c0 -14 -5 -20 -17 -19 -10 2 -31 -2 -48 -9 -42 -17 -59
-22 -69 -23 -5 0 -12 -5 -15 -10 -8 -12 -94 -57 -104 -54 -13 4 -65 -27 -79
-46 -7 -10 -26 -27 -43 -38 -16 -10 -48 -37 -70 -60 -84 -87 -155 -168 -155
-176 0 -5 -5 -6 -10 -3 -6 4 -9 3 -8 -2 5 -15 -77 -133 -92 -133 -13 0 -13 -1
0 -10 12 -8 11 -12 -8 -30 -12 -11 -22 -30 -22 -41 0 -13 -4 -18 -12 -13 -6 4
-8 3 -5 -3 7 -11 -12 -66 -37 -113 -8 -14 -17 -42 -21 -62 -4 -21 -11 -38 -16
-38 -5 0 -6 -6 -3 -14 3 -8 0 -17 -5 -21 -6 -3 -9 -10 -7 -14 3 -4 -2 -17 -12
-27 -9 -11 -18 -24 -19 -30 -1 -5 -4 -23 -8 -39 -6 -29 -6 -29 11 -10 17 20
17 20 9 0 -7 -19 -16 -84 -15 -112 0 -7 0 -19 0 -25 1 -23 -28 -134 -29 -113
-1 17 -3 17 -11 5 -7 -11 -10 -11 -10 -2 0 7 6 23 14 35 17 26 34 111 17 87
-5 -8 -13 -11 -17 -7 -4 4 0 15 8 24 17 19 21 35 19 66 0 10 -6 15 -12 11 -7
-4 -7 -10 -1 -16 6 -6 8 -17 5 -25 -5 -12 -7 -12 -15 -1 -7 9 -8 8 -4 -6 4
-10 1 -24 -5 -32 -7 -9 -7 -18 0 -33 15 -27 14 -31 -7 -25 -14 5 -14 4 -2 -4
11 -9 12 -15 2 -34 -6 -13 -11 -34 -11 -48 1 -35 -13 -167 -26 -245 -4 -27 -4
-28 4 -5 l9 25 1 -28 c1 -16 -3 -37 -9 -47 -7 -13 -6 -19 6 -24 8 -3 12 -11 9
-16 -4 -6 -10 -24 -15 -40 -6 -22 -5 -28 5 -24 8 3 16 15 18 27 4 18 5 17 6
-5 0 -15 -3 -38 -9 -52 -7 -20 -6 -24 5 -19 18 6 19 -8 3 -26 -7 -8 -8 -12 -3
-9 10 5 48 -28 43 -36 -2 -2 0 -8 5 -12 4 -4 7 16 7 44 0 28 5 54 10 57 6 3
10 14 10 23 0 9 8 26 17 37 15 20 15 20 10 -2 -3 -13 -1 -25 3 -28 5 -3 8 -14
7 -25 -1 -10 -5 -16 -9 -14 -5 3 -6 9 -3 14 3 5 0 12 -6 16 -12 7 -11 0 6 -66
l6 -25 -15 25 c-13 22 -15 23 -15 5 0 -11 -2 -41 -4 -67 -3 -26 -1 -45 3 -43
18 11 20 -16 4 -52 -9 -21 -18 -56 -20 -78 -4 -41 9 -76 23 -61 4 5 3 11 -3
13 -6 2 -9 16 -7 31 8 50 26 112 33 112 4 0 7 -33 7 -72 1 -40 5 -99 10 -130
5 -31 6 -55 2 -52 -4 2 -7 -6 -6 -19 0 -12 -2 -42 -6 -67 -5 -33 -4 -40 4 -27
6 9 15 14 21 11 7 -5 9 0 6 14 -4 12 -2 22 2 22 12 0 24 -44 13 -47 -5 -2 -6
-25 -2 -56 18 -132 22 -156 29 -152 4 2 5 17 3 32 -9 59 -10 303 -1 303 5 0 8
-40 6 -94 -2 -52 1 -94 6 -93 5 1 11 -4 14 -12 2 -8 0 -11 -5 -8 -5 3 -10 0
-10 -8 0 -8 4 -15 8 -15 4 0 6 -7 5 -16 0 -9 5 -19 12 -21 9 -3 11 5 8 29 -3
18 -8 78 -12 133 -4 55 -9 109 -11 120 -9 47 -12 209 -4 185 5 -14 10 -47 10
-75 1 -27 10 -85 21 -129 23 -90 24 -97 9 -76 -7 11 -8 6 -3 -20 8 -41 8 -166
-1 -179 -3 -5 -1 -12 5 -16 5 -3 10 -13 10 -21 0 -8 -4 -12 -10 -9 -7 4 -7 -2
0 -19 9 -23 7 -26 -25 -32 -19 -3 -39 -12 -44 -18 -8 -10 0 -10 40 -2 53 11
51 8 64 91 6 38 5 39 -9 20 -8 -11 -16 -16 -16 -12 0 5 9 20 20 34 11 14 20
31 20 38 0 7 7 18 15 25 19 16 19 1 0 -37 -10 -19 -15 -68 -17 -144 l-3 -114
25 -3 c14 -2 30 -8 35 -14 7 -7 -4 -9 -35 -5 -135 18 -160 19 -160 8 0 -13 -3
-12 85 -15 105 -4 130 -12 170 -59 31 -36 36 -48 33 -82 -2 -22 -7 -43 -12
-47 -6 -4 -5 -16 2 -32 9 -21 9 -24 -3 -20 -8 3 -18 18 -23 32 -9 24 -11 25
-17 8 -5 -11 -3 -21 6 -26 11 -7 11 -10 -2 -15 -15 -6 -15 -10 0 -50 8 -24 19
-41 23 -39 4 3 8 1 8 -5 0 -5 9 -12 19 -16 11 -3 18 -12 15 -19 -6 -16 33 -66
52 -66 23 0 16 18 -14 36 -22 12 -28 23 -27 45 1 15 -2 26 -6 24 -13 -9 -16
67 -2 80 15 16 17 61 3 70 -20 12 -9 30 19 32 22 2 30 -3 35 -20 10 -38 6 -43
-15 -17 -15 18 -19 20 -15 7 3 -10 6 -24 6 -32 0 -7 9 -15 20 -18 11 -3 20
-12 20 -21 0 -10 -6 -13 -15 -10 -28 11 -15 -5 17 -22 28 -14 49 -20 111 -26
21 -3 22 -24 1 -32 -8 -3 -12 -2 -9 4 4 6 -12 10 -39 10 -25 0 -46 5 -46 10 0
6 -10 9 -22 9 -20 -1 -20 -2 -4 -6 15 -4 16 -7 5 -14 -11 -7 -11 -9 4 -9 9 0
17 -5 17 -11 0 -5 5 -7 10 -4 6 3 10 -1 10 -10 0 -11 5 -15 15 -11 20 7 75 -4
75 -16 0 -5 -5 -6 -10 -3 -6 4 -9 1 -8 -7 2 -7 -4 -11 -12 -9 -8 2 -25 3 -37
3 -12 0 -24 7 -27 14 -3 8 -15 14 -26 14 -11 0 -20 6 -20 13 0 8 -9 22 -20 32
-11 10 -20 13 -20 7 0 -7 5 -12 10 -12 6 0 10 -4 10 -10 0 -5 -6 -7 -14 -4
-11 4 -13 0 -9 -17 4 -13 8 -18 11 -11 3 9 10 6 22 -8 13 -15 19 -17 23 -8 2
7 7 10 10 7 4 -3 1 -19 -5 -37 -15 -40 -8 -47 52 -47 26 0 46 -3 44 -7 -5 -7
15 -22 21 -16 2 2 7 64 11 138 4 74 9 137 12 140 2 3 2 -64 -2 -147 -3 -84 -3
-153 2 -153 8 0 10 31 13 225 2 86 -2 138 -10 153 -10 18 -9 22 4 22 8 0 15
-7 15 -15 0 -8 5 -15 11 -15 6 0 9 -9 6 -20 -3 -11 -2 -18 2 -15 16 9 190
-217 240 -313 11 -20 41 -64 66 -97 25 -33 45 -68 45 -77 0 -13 8 -18 28 -17
15 0 21 3 14 6 -6 2 -10 9 -6 14 3 5 0 8 -6 7 -7 -2 -19 15 -26 37 -8 21 -23
48 -33 60 -10 11 -33 43 -52 70 -18 28 -55 77 -81 109 -26 33 -48 65 -48 70 0
6 -19 31 -41 56 -23 25 -59 69 -81 98 -30 40 -45 53 -59 49 -16 -4 -22 4 -35
51 -8 32 -19 67 -24 78 -5 12 -6 31 -3 43 4 15 1 21 -12 21 -14 0 -15 -3 -5
-15 11 -13 10 -14 -4 -9 -14 5 -15 3 -5 -22 60 -157 64 -168 52 -161 -5 3 -13
-1 -20 -8 -10 -11 -10 -15 0 -19 9 -3 8 -8 -4 -18 -9 -7 -18 -25 -21 -40 -5
-25 -3 -26 29 -21 l34 6 -3 -38 c-2 -21 -9 -40 -15 -43 -7 -2 -13 1 -13 8 0 6
5 8 12 4 8 -5 9 -2 5 10 -4 10 -7 20 -7 23 0 4 -9 -2 -20 -12 -16 -15 -20 -16
-15 -3 4 11 -1 17 -19 22 -37 9 -57 45 -48 81 6 22 3 40 -14 70 l-22 42 24 39
c27 45 31 40 9 -12 -13 -32 -13 -38 0 -57 8 -12 15 -16 15 -10 0 7 -4 14 -10
18 -12 8 -1 35 15 35 18 0 27 -30 14 -46 -8 -10 -9 -18 0 -27 6 -8 9 -16 7
-18 -2 -2 2 -10 10 -17 12 -11 14 -8 14 18 0 16 -5 30 -10 30 -6 0 -8 10 -5
23 4 15 1 28 -9 36 -9 8 -16 29 -16 47 0 24 -4 32 -14 28 -18 -7 -57 43 -49
64 6 13 7 13 11 1 5 -14 21 -31 55 -58 29 -23 19 5 -18 49 -19 23 -35 53 -35
66 0 13 -4 24 -10 24 -10 0 -13 -12 -11 -41 1 -8 -3 -26 -8 -40 -5 -13 -10
-18 -10 -10 -2 30 -31 50 -65 44 -23 -3 -38 0 -49 12 -9 9 -17 13 -18 8 0 -4
-4 1 -9 12 -12 28 -12 123 0 130 16 10 11 33 -12 55 -12 11 -19 23 -15 26 3 3
1 18 -5 33 -6 14 -12 69 -13 121 -2 100 -10 144 -26 135 -5 -4 -9 1 -9 10 0 9
5 13 10 10 7 -4 9 2 6 17 -3 12 -11 54 -17 91 -8 43 -15 62 -19 51 -4 -10 -6
5 -6 32 0 29 -8 67 -21 94 -11 25 -23 52 -26 60 -3 9 -6 4 -6 -11 -1 -15 6
-43 14 -63 8 -20 20 -71 26 -113 6 -43 17 -93 25 -111 8 -19 12 -38 9 -42 -3
-5 2 -41 11 -82 25 -115 36 -280 19 -297 -7 -7 -10 10 -11 47 -2 127 -48 427
-63 417 -4 -1 -7 21 -8 49 -1 29 -7 63 -13 77 -7 17 -9 -10 -4 -103 4 -93 3
-128 -5 -128 -8 0 -12 41 -11 138 0 75 -4 164 -10 197 -12 75 -12 78 1 69 8
-5 8 -1 0 13 -16 31 -23 83 -11 83 7 0 7 6 0 20 -9 18 -7 23 10 22 3 0 5 18 6
41 0 23 11 67 23 97 l23 55 -36 -40 c-20 -22 -39 -51 -41 -65 -3 -14 -9 -42
-14 -62 -6 -30 -5 -38 5 -38 15 0 19 -26 5 -34 -10 -6 -6 -99 5 -117 10 -17
18 -216 8 -206 -5 4 -12 49 -16 100 -10 130 -18 179 -30 204 -6 12 -8 43 -5
68 3 27 1 43 -4 38 -5 -5 -10 -34 -12 -65 -2 -31 -9 -64 -17 -73 -9 -11 -13
-47 -13 -116 0 -55 -3 -96 -7 -92 -13 14 -29 194 -26 283 3 81 52 293 76 323
5 7 27 33 49 58 37 41 55 79 32 65 -5 -3 -11 6 -14 20 -3 20 0 28 13 31 20 5
34 45 25 72 -3 10 -1 29 5 42 10 24 10 24 7 -3 -2 -15 -1 -32 3 -38 4 -6 10
16 13 49 6 58 17 86 78 203 16 31 28 61 27 66 -4 12 36 80 84 142 27 36 43 48
55 44 15 -5 16 -4 3 5 -16 11 -16 11 20 14 12 1 106 108 101 114 -3 3 0 3 7
-1 8 -5 12 0 12 15 0 22 0 22 15 3 13 -18 14 -18 15 -1 0 23 19 41 45 44 34 4
50 8 61 16 6 3 36 9 65 13 30 3 60 11 67 17 7 5 36 7 67 4 44 -4 53 -3 48 9
-3 8 -10 11 -16 7 -5 -3 -16 2 -24 12 -12 17 -17 18 -64 6 -45 -12 -53 -11
-67 3 -15 15 -14 16 11 16 15 0 27 5 27 11 0 7 10 9 25 7 14 -3 25 -2 25 1 0
3 26 8 57 9 47 3 55 1 45 -10 -9 -11 -4 -14 28 -13 46 0 50 7 18 27 -51 32
-179 15 -285 -38 -49 -24 -68 -44 -43 -44 6 0 10 5 10 11 0 5 5 7 10 4 6 -3
10 -1 10 5 0 6 5 8 11 4 6 -3 15 -1 19 6 7 11 12 10 25 -3 15 -16 15 -17 -2
-23 -10 -3 -41 -14 -70 -25 -29 -12 -61 -18 -71 -15 -12 4 -25 -1 -37 -14 -10
-11 -24 -20 -32 -20 -7 0 -13 -4 -13 -9 0 -11 -98 -112 -134 -136 -43 -30 -59
-49 -89 -102 -7 -12 -24 -43 -39 -68 -15 -26 -25 -51 -23 -56 7 -10 -24 -73
-32 -65 -3 3 -1 12 5 19 7 8 9 17 5 20 -3 4 -1 7 5 7 7 0 12 4 12 10 0 5 -7 7
-15 4 -8 -4 -15 -10 -15 -16 0 -9 -20 -56 -60 -143 -10 -22 -22 -53 -26 -70
-4 -16 -10 -34 -14 -40 -4 -5 -15 -37 -24 -70 -10 -33 -22 -70 -28 -82 -6 -12
-8 -31 -5 -42 3 -12 2 -21 -3 -21 -4 0 -10 -13 -13 -30 -4 -16 -11 -30 -16
-30 -5 0 -5 17 1 42 5 24 9 64 10 90 0 46 10 62 22 36 3 -7 4 -4 1 8 -5 20 46
186 65 209 5 7 34 61 64 121 29 60 63 117 74 128 12 10 19 23 16 28 -3 5 -12
1 -20 -9 -7 -10 -14 -13 -14 -7 0 13 21 33 32 31 4 -1 21 20 38 47 61 96 212
233 339 308 98 58 208 97 231 83 5 -3 11 -1 15 5 8 13 81 13 107 -1 12 -6 32
-23 45 -38 l23 -26 -11 27 c-14 33 -68 67 -109 70 -19 1 -30 8 -30 18 0 13 -1
13 -10 0 -9 -13 -11 -13 -20 0 -8 12 -10 11 -10 -7z m-281 -146 c-2 -1 -13 -9
-24 -17 -19 -14 -19 -14 -6 3 7 9 18 17 24 17 6 0 8 -1 6 -3z m271 -7 c0 -5
-5 -10 -11 -10 -5 0 -7 5 -4 10 3 6 8 10 11 10 2 0 4 -4 4 -10z m-60 -14 c0
-3 -4 -8 -10 -11 -5 -3 -10 -1 -10 4 0 6 5 11 10 11 6 0 10 -2 10 -4z m-590
-400 c0 -3 -4 -8 -10 -11 -5 -3 -10 -1 -10 4 0 6 5 11 10 11 6 0 10 -2 10 -4z
m-51 -88 c-12 -24 -24 -45 -26 -48 -10 -10 9 45 23 68 24 37 26 25 3 -20z
m-36 -78 c-5 -19 -23 -39 -23 -25 0 9 20 45 24 45 2 0 2 -9 -1 -20z m-44 -349
c-3 -6 -10 -7 -18 -2 -7 5 -10 14 -6 21 9 14 29 -2 24 -19z m1 -371 c0 -5 -5
-10 -11 -10 -5 0 -7 5 -4 10 3 6 8 10 11 10 2 0 4 -4 4 -10z m-50 -121 c0 -6
-6 -7 -12 -3 -9 5 -9 2 1 -9 11 -14 11 -17 0 -17 -11 0 -11 -2 1 -10 8 -5 10
-10 5 -10 -6 0 -11 -10 -10 -22 0 -13 -4 -24 -10 -25 -10 -2 -10 50 0 95 5 22
25 22 25 1z m-39 -152 c-10 -9 -11 -8 -5 6 3 10 9 15 12 12 3 -3 0 -11 -7 -18z
m48 -99 c0 -13 1 -32 4 -43 2 -11 2 -14 0 -7 -3 7 -9 10 -14 7 -5 -4 -9 10 -9
29 0 20 4 36 10 36 5 0 9 -10 9 -22z m38 -109 c-3 -44 -3 -78 0 -75 3 3 12 -1
19 -9 15 -15 17 -88 6 -165 -11 -68 -22 -33 -23 69 0 50 -5 93 -10 97 -6 3 -8
-5 -5 -20 3 -15 1 -24 -5 -21 -5 4 -6 32 -2 68 4 34 7 79 7 100 0 20 4 37 9
37 6 0 8 -33 4 -81z m203 -646 c24 -60 53 -92 82 -93 23 0 13 23 -15 35 -12 6
-21 18 -21 27 1 10 -2 16 -6 13 -4 -2 -12 7 -19 22 -10 22 -10 25 4 19 9 -3
23 -6 32 -6 9 0 13 -6 9 -15 -3 -8 -2 -15 2 -15 10 0 44 -69 38 -78 -2 -4 7
-21 21 -37 24 -29 24 -29 18 -5 -4 14 -20 51 -36 83 -32 63 -33 67 -21 67 16
0 63 -111 66 -154 2 -24 6 -49 10 -55 4 -6 2 -11 -3 -11 -6 0 -11 4 -11 8 0 5
-7 17 -16 28 -14 18 -15 16 -11 -23 3 -24 1 -43 -4 -43 -5 0 -9 13 -9 29 0 51
-19 87 -56 104 -23 11 -40 30 -50 52 -9 23 -21 35 -34 35 -11 0 -20 5 -20 11
0 6 7 9 15 5 17 -6 22 29 5 39 -5 3 -10 11 -10 16 0 23 19 -4 40 -58z m185
-224 c4 -6 4 -13 0 -17 -4 -4 -10 -2 -12 5 -2 7 -11 9 -19 6 -8 -3 -14 0 -14
6 0 14 37 14 45 0z m145 -23 c0 -13 -7 -26 -14 -29 -10 -4 -13 -1 -10 9 2 7 6
21 9 29 7 23 15 18 15 -9z m-210 -72 c0 -20 -7 -17 -20 6 -9 16 -8 18 5 14 8
-4 15 -12 15 -20z m213 19 c-7 -2 -19 -2 -25 0 -7 3 -2 5 12 5 14 0 19 -2 13
-5z m-249 -59 c9 -25 2 -26 -17 -4 -13 16 -14 20 -3 20 8 0 17 -7 20 -16z
m181 -175 c0 -8 -11 -14 -27 -15 -17 -1 -25 3 -21 12 2 7 12 10 20 7 12 -5 14
-3 8 7 -5 8 -3 11 6 8 8 -3 14 -11 14 -19z m40 1 c-3 -5 -11 -10 -16 -10 -6 0
-7 5 -4 10 3 6 11 10 16 10 6 0 7 -4 4 -10z"/>
<path d="M632 1290 c0 -19 2 -27 5 -17 2 9 2 25 0 35 -3 9 -5 1 -5 -18z"/>
<path d="M880 740 c0 -5 5 -10 11 -10 5 0 7 5 4 10 -3 6 -8 10 -11 10 -2 0 -4
-4 -4 -10z"/>
<path d="M1443 3313 c4 -3 28 -9 54 -13 41 -7 44 -6 28 6 -18 14 -95 20 -82 7z"/>
<path d="M1727 3238 c2 -5 -1 -8 -7 -8 -14 0 -41 -26 -34 -33 3 -3 21 4 40 15
26 16 38 18 47 9 8 -8 7 -11 -6 -11 -9 0 -17 -4 -17 -10 0 -15 16 -12 30 6 10
11 24 14 54 9 71 -11 135 -36 151 -58 8 -12 15 -17 15 -11 0 5 -5 15 -12 22
-7 7 -8 12 -3 12 26 0 -94 53 -125 55 -19 1 -35 3 -35 5 0 1 -23 3 -52 3 -28
1 -49 -1 -46 -5z"/>
<path d="M1430 3223 c0 -10 4 -14 8 -8 4 6 11 13 16 18 5 4 2 7 -7 7 -10 0
-17 -8 -17 -17z"/>
<path d="M2800 3211 c0 -6 4 -13 10 -16 6 -3 7 1 4 9 -7 18 -14 21 -14 7z"/>
<path d="M1810 3199 c0 -5 8 -9 18 -9 33 0 117 -49 169 -100 29 -27 60 -50 70
-50 12 0 8 6 -15 20 -20 12 -30 25 -26 32 4 6 3 8 -4 4 -5 -3 -20 10 -32 29
-12 19 -30 39 -39 45 -29 15 -141 38 -141 29z"/>
<path d="M1700 3178 c-14 -11 -20 -17 -14 -14 14 7 31 -12 36 -39 1 -11 11
-26 21 -33 19 -14 24 -48 6 -36 -7 4 -10 1 -7 -7 2 -8 18 -16 34 -17 16 -2 37
-12 46 -22 10 -10 31 -27 48 -36 16 -10 30 -25 30 -34 0 -13 1 -13 10 0 9 13
11 13 20 0 5 -8 10 -12 10 -8 0 13 -150 158 -163 158 -18 0 -41 26 -30 33 5 3
30 1 57 -5 28 -6 44 -13 37 -17 -7 -4 2 -8 19 -8 19 0 30 5 30 15 0 8 6 12 15
8 9 -3 15 0 15 10 0 8 -5 12 -11 9 -6 -4 -16 1 -24 11 -11 16 -27 19 -89 19
-69 0 -95 7 -64 17 7 3 8 7 2 10 -5 4 -21 -3 -34 -14z m155 -31 c12 -2 21 -13
23 -27 l4 -24 -29 19 c-16 11 -47 19 -75 19 -47 1 -61 9 -35 20 11 5 68 2 112
-7z"/>
<path d="M1168 3173 c7 -3 16 -2 19 1 4 3 -2 6 -13 5 -11 0 -14 -3 -6 -6z"/>
<path d="M1373 3153 c0 -6 10 -9 21 -7 12 2 33 5 49 6 48 4 29 19 -21 16 -29
-2 -49 -8 -49 -15z"/>
<path d="M721 3134 c0 -11 3 -14 6 -6 3 7 2 16 -1 19 -3 4 -6 -2 -5 -13z"/>
<path d="M1327 3132 c-9 -9 -34 -21 -55 -27 -37 -11 -50 -34 -22 -43 13 -5 13
-3 0 13 -14 17 -13 18 3 12 9 -3 17 -3 17 1 0 4 10 8 22 9 12 1 33 13 47 28
28 27 17 34 -12 7z"/>
<path d="M1268 3123 c7 -3 16 -2 19 1 4 3 -2 6 -13 5 -11 0 -14 -3 -6 -6z"/>
<path d="M1149 3103 c16 -32 14 -39 -21 -61 -18 -11 -49 -30 -68 -42 -49 -32
-19 3 37 41 24 17 43 35 43 42 0 9 -2 9 -8 1 -4 -7 -21 -18 -39 -25 -33 -14
-202 -192 -227 -238 -81 -152 -127 -247 -128 -267 -2 -14 -7 -23 -14 -20 -7 3
-14 -18 -18 -61 -4 -36 -13 -77 -20 -92 -8 -14 -16 -40 -19 -57 -3 -17 -12
-43 -21 -56 -9 -14 -15 -35 -14 -48 2 -12 -3 -25 -10 -27 -7 -3 -10 1 -6 11 3
9 2 16 -3 16 -5 0 -18 -33 -28 -72 -19 -76 -22 -83 -49 -136 -10 -17 -15 -35
-13 -40 3 -4 2 -37 -2 -75 -4 -37 -4 -73 1 -80 4 -7 8 4 8 26 0 43 17 123 31
150 5 10 7 22 4 27 -3 6 1 7 9 4 9 -3 33 13 64 44 l49 49 5 124 c3 68 10 135
16 149 5 15 12 44 13 65 2 22 12 47 21 57 9 9 20 34 24 54 4 21 15 46 24 57
10 10 20 32 24 48 3 17 10 28 15 25 5 -3 12 1 15 10 3 8 2 12 -4 9 -6 -3 -10
-1 -10 4 0 6 4 11 9 11 5 0 14 14 20 30 5 17 13 30 17 30 3 0 3 -7 0 -16 -3
-9 -2 -12 4 -9 6 4 9 12 8 19 -3 13 15 35 121 148 35 37 69 68 74 68 14 0 95
53 100 65 2 6 -8 21 -21 35 -22 23 -24 23 -13 3z m-483 -935 c-1 -18 -9 -43
-17 -56 -14 -20 -17 -21 -23 -6 -3 9 -1 23 5 30 6 8 9 14 6 14 -3 0 -1 13 4
30 14 38 26 31 25 -12z m-63 -52 c-9 -31 -20 -56 -24 -56 -4 0 2 27 13 61 25
75 35 72 11 -5z m13 -42 c-4 -9 -9 -15 -11 -12 -3 3 -3 13 1 22 4 9 9 15 11
12 3 -3 3 -13 -1 -22z"/>
<path d="M1189 3097 c7 -7 14 -8 21 -1 6 6 2 10 -12 11 -16 2 -18 -1 -9 -10z"/>
<path d="M1905 3090 c3 -5 8 -10 11 -10 2 0 4 5 4 10 0 6 -5 10 -11 10 -5 0
-7 -4 -4 -10z"/>
<path d="M1997 3026 c102 -95 197 -239 234 -355 9 -31 18 -46 18 -35 1 12 -6
41 -14 64 -20 57 -13 61 18 8 28 -50 44 -93 30 -85 -6 4 -8 -4 -5 -18 5 -28
12 -31 30 -13 9 9 12 8 13 -8 1 -10 1 -22 0 -26 -2 -15 17 -8 23 8 3 8 2 13
-3 10 -7 -5 -17 16 -20 40 0 2 -7 12 -16 21 -9 8 -13 23 -10 31 3 9 3 13 -1 9
-6 -6 -37 49 -35 61 1 1 -8 11 -19 22 -12 12 -18 26 -14 32 4 7 3 8 -4 4 -13
-8 -32 23 -29 51 1 24 -44 80 -90 111 -18 12 -33 28 -33 35 0 10 -106 86 -135
95 -5 2 22 -26 62 -62z m176 -151 c10 -15 13 -26 7 -30 -5 -3 -10 -1 -10 6 0
7 -10 23 -22 36 -13 14 -16 21 -8 18 8 -3 23 -17 33 -30z m47 -116 c0 -6 -4
-7 -10 -4 -5 3 -10 11 -10 16 0 6 5 7 10 4 6 -3 10 -11 10 -16z"/>
<path d="M2626 3073 c-6 -14 -5 -15 5 -6 7 7 10 15 7 18 -3 3 -9 -2 -12 -12z"/>
<path d="M1670 3072 c0 -6 -7 -12 -15 -12 -8 0 -15 -4 -15 -10 0 -5 -7 -10
-16 -10 -8 0 -12 -5 -9 -10 4 -6 11 -8 16 -5 12 8 11 -6 -1 -25 -8 -13 -10
-12 -10 3 0 25 -15 21 -29 -9 -10 -23 -9 -25 9 -19 18 6 19 4 6 -31 -13 -39
-36 -58 -36 -30 0 9 7 19 15 22 8 4 12 10 9 15 -10 17 -24 9 -30 -16 -3 -14
-11 -26 -18 -27 -14 -1 -30 -5 -36 -8 -6 -3 -64 -9 -97 -11 -13 -1 -23 -5 -23
-9 0 -12 -41 -4 -52 11 -8 11 -9 11 -5 -3 6 -18 -28 -46 -65 -51 -22 -4 -39
-27 -19 -27 6 0 11 -4 11 -10 0 -5 -7 -10 -15 -10 -13 0 -35 -28 -35 -45 0 -4
23 14 51 39 28 25 58 46 66 46 8 0 11 5 7 11 -4 7 -1 10 7 7 8 -3 25 0 39 7
23 12 92 26 145 29 11 1 35 -4 54 -12 48 -19 62 -11 50 31 -7 26 -5 41 6 63 8
16 15 39 15 50 0 12 7 27 15 34 12 10 15 10 15 -1 0 -8 -4 -20 -9 -28 -5 -8
-6 -24 -1 -35 4 -12 4 -30 0 -41 -9 -24 -2 -45 14 -45 6 0 17 -9 24 -20 7 -11
8 -20 3 -20 -6 0 -15 8 -20 18 -7 11 -10 13 -11 3 0 -11 -3 -11 -15 -1 -13 11
-14 10 -10 -3 4 -8 14 -17 23 -20 24 -8 96 -50 104 -62 4 -5 10 -6 15 -2 4 5
1 12 -7 18 -13 8 -13 10 0 18 17 11 40 -4 40 -26 0 -7 7 -16 15 -19 8 -3 17
-15 21 -26 3 -11 12 -17 19 -14 8 3 17 -11 25 -42 7 -26 18 -61 26 -79 24 -54
15 -50 -25 12 -21 33 -36 66 -33 73 2 7 -1 12 -9 10 -7 -2 -13 2 -14 7 0 6 -9
21 -19 35 -13 17 -16 19 -12 6 3 -10 1 -25 -5 -33 -7 -7 -9 -16 -5 -20 3 -3 6
0 6 7 0 59 185 -265 260 -455 13 -33 37 -80 52 -105 15 -25 35 -58 43 -75 10
-22 14 -25 15 -11 0 11 -13 40 -29 65 -16 25 -32 57 -36 71 -3 14 -12 39 -19
55 -31 69 -35 95 -19 104 14 8 14 13 0 55 -18 52 -10 55 14 4 53 -107 65 -128
78 -128 11 0 10 5 -4 20 -10 11 -19 30 -20 43 -3 26 -21 60 -45 87 -46 52 -70
83 -70 91 0 5 -10 14 -22 19 -20 7 -20 9 -4 9 15 1 16 4 6 16 -7 8 -16 12 -21
9 -5 -3 -9 0 -9 5 0 6 -5 11 -10 11 -12 0 -16 9 71 -161 30 -59 35 -74 20 -65
-5 4 -22 35 -39 69 -16 35 -42 76 -58 90 -16 15 -23 27 -17 27 9 0 8 10 -3 37
-16 38 -23 62 -29 100 -4 28 -35 74 -35 53 -1 -8 -10 3 -22 25 -32 62 -88 125
-117 132 -32 8 -48 23 -61 59 -14 37 -8 39 15 3 11 -16 28 -29 38 -29 10 0 33
-16 50 -35 18 -21 40 -35 54 -35 18 0 36 -19 82 -92 33 -51 69 -105 80 -120
12 -14 21 -32 21 -39 0 -23 -26 11 -93 120 -39 63 -73 108 -86 113 -22 8 -22
7 3 -23 14 -17 26 -37 26 -45 0 -8 4 -14 9 -14 10 0 91 -124 91 -140 0 -14 47
-43 59 -36 5 3 7 16 4 29 -9 33 4 17 36 -46 16 -32 25 -60 20 -63 -5 -3 -9
-11 -8 -17 0 -8 2 -8 6 1 3 8 10 5 22 -10 19 -26 62 -123 60 -135 -4 -16 13
-42 25 -37 13 5 46 -45 46 -70 0 -9 5 -16 10 -16 6 0 11 -10 11 -22 1 -17 2
-19 6 -5 6 22 32 22 50 0 13 -16 13 -16 3 5 -10 21 -21 26 -47 23 -7 -1 -13 3
-13 9 0 6 4 9 9 5 5 -3 12 -1 16 5 3 5 -1 10 -11 10 -18 0 -39 22 -54 58 -6
13 -14 21 -19 17 -5 -3 -12 3 -15 12 -10 38 -20 88 -18 96 2 5 -3 5 -9 1 -8
-4 -9 0 -4 15 4 15 2 21 -8 21 -14 0 -27 20 -27 42 0 5 27 -18 61 -51 33 -34
63 -61 65 -61 11 0 -18 39 -65 89 -28 30 -51 60 -51 67 0 8 -4 14 -10 14 -5 0
-7 -6 -4 -14 3 -7 -2 -16 -12 -20 -13 -5 -15 -2 -11 14 3 11 1 20 -4 20 -5 0
-9 7 -9 15 0 8 -4 15 -8 15 -5 0 -14 12 -20 26 -7 15 -17 22 -24 18 -7 -5 -9
-2 -5 9 4 12 2 14 -10 10 -13 -5 -15 -2 -10 11 4 10 3 15 -3 11 -9 -6 -11 -1
-14 33 -1 7 -6 16 -12 20 -24 16 -65 82 -58 93 4 8 3 9 -4 5 -15 -9 -15 7 -1
21 9 9 7 11 -9 6 -16 -4 -24 1 -32 18 -7 13 -38 44 -71 68 -32 25 -59 48 -59
52 0 4 -7 10 -16 13 -13 5 -12 -1 5 -30 12 -20 19 -39 16 -42 -8 -9 -42 32
-37 46 2 7 -2 11 -10 10 -7 -2 -12 3 -10 10 1 7 -4 23 -13 35 -8 12 -15 16
-15 9z m64 -172 c17 0 66 -38 66 -51 0 -6 -4 -8 -9 -4 -5 3 -13 1 -16 -5 -5
-8 -11 -7 -21 1 -20 16 -18 30 4 23 14 -5 15 -4 2 5 -8 6 -21 11 -28 11 -17 0
-51 40 -52 59 0 7 9 2 21 -13 11 -14 26 -26 33 -26z m115 6 c10 -12 9 -14 -9
-9 -11 3 -25 14 -31 25 -9 17 -8 18 9 9 10 -5 24 -17 31 -25z m-229 -12 c0 -8
-4 -12 -10 -9 -5 3 -10 10 -10 16 0 5 5 9 10 9 6 0 10 -7 10 -16z"/>
<path d="M1860 3071 c0 -5 7 -12 16 -15 14 -5 15 -4 4 9 -14 17 -20 19 -20 6z"/>
<path d="M1210 3061 c0 -5 -16 -16 -35 -25 -19 -9 -35 -21 -35 -25 0 -5 -13
-14 -29 -21 -64 -26 -134 -117 -210 -275 -88 -180 -86 -176 -107 -245 -26 -88
-53 -157 -53 -138 -1 10 5 35 13 55 19 55 46 148 46 162 0 13 30 75 69 145 12
21 20 40 18 43 -4 4 -76 -116 -86 -142 -12 -35 -46 -95 -53 -95 -4 0 -8 -10
-8 -22 0 -20 3 -18 17 10 22 45 28 32 10 -20 -47 -130 -59 -187 -62 -278 -1
-52 -8 -106 -14 -120 -19 -43 -40 -160 -29 -166 5 -4 15 -1 21 5 9 9 8 11 -4
6 -13 -5 -15 -1 -11 22 3 15 7 22 9 16 5 -14 25 -18 21 -5 -1 4 3 34 10 67 8
33 15 69 17 80 2 11 4 22 5 25 1 3 1 21 1 40 -2 51 24 139 114 385 4 11 23 53
41 92 19 40 34 76 34 79 0 19 77 127 129 181 55 56 166 133 194 133 7 1 23 7
37 16 l25 15 -32 -6 c-18 -4 -34 -2 -38 4 -8 13 -25 14 -25 2z m-479 -778
c-12 -20 -14 -14 -5 12 4 9 9 14 11 11 3 -2 0 -13 -6 -23z m-14 -55 c-3 -7 -5
-2 -5 12 0 14 2 19 5 13 2 -7 2 -19 0 -25z"/>
<path d="M1903 3050 c2 -8 10 -14 16 -12 6 1 11 -2 11 -8 0 -5 8 -10 19 -10
10 0 25 -8 32 -17 12 -15 12 -16 -3 -10 -10 3 -18 2 -18 -3 0 -6 5 -10 11 -10
5 0 7 -5 3 -11 -4 -8 0 -9 15 -4 13 4 21 2 21 -5 0 -6 6 -8 13 -5 6 4 5 1 -4
-7 -11 -9 -14 -19 -8 -33 4 -11 8 -15 8 -8 1 6 10 11 20 10 11 0 17 -5 15 -9
-3 -5 -10 -6 -15 -3 -5 4 -9 3 -9 -2 0 -4 13 -14 29 -21 21 -9 28 -18 24 -29
-4 -10 -2 -14 4 -10 15 9 53 -40 46 -59 -3 -8 -9 -14 -15 -14 -5 0 -6 5 -3 10
3 6 -1 10 -11 10 -11 0 -4 -12 25 -40 22 -22 41 -47 41 -56 0 -8 7 -22 15 -30
8 -9 15 -20 15 -26 0 -6 -9 1 -20 15 -11 14 -20 29 -20 34 0 4 -12 17 -27 28
-25 19 -66 93 -58 105 2 4 -2 7 -10 7 -8 0 -15 -4 -15 -8 0 -14 23 -59 30 -59
10 0 30 -47 23 -54 -3 -3 -12 2 -19 12 -8 10 -5 -7 6 -38 11 -30 28 -62 37
-70 10 -8 27 -28 37 -45 10 -16 34 -42 52 -58 18 -15 36 -36 39 -47 4 -11 11
-18 16 -15 15 10 11 23 -21 59 -17 19 -53 69 -80 111 -28 42 -55 73 -60 70 -6
-3 -7 1 -4 9 10 27 21 18 61 -45 46 -73 97 -127 135 -141 27 -11 12 15 -20 33
-22 12 -35 36 -61 105 -40 113 -57 146 -103 209 -20 27 -50 67 -65 89 -33 45
-91 93 -118 98 -11 1 -24 8 -28 13 -5 6 -7 4 -4 -5z m254 -296 c-9 -9 -28 6
-21 18 4 6 10 6 17 -1 6 -6 8 -13 4 -17z m-11 -131 c2 -16 1 -16 -12 1 -8 11
-14 24 -14 30 0 16 24 -12 26 -31z"/>
<path d="M1250 3002 c-29 -20 -67 -45 -84 -55 -17 -10 -42 -29 -55 -42 -22
-21 -23 -26 -10 -41 8 -10 9 -15 3 -11 -7 4 -19 -4 -29 -19 -9 -14 -19 -23
-23 -20 -3 3 5 17 18 31 24 26 23 29 -4 19 -9 -3 -16 -12 -16 -20 0 -13 -35
-57 -72 -92 -10 -9 -18 -25 -18 -36 0 -14 8 -7 28 25 28 43 62 79 62 64 0 -4
-9 -19 -20 -33 -82 -108 -120 -166 -120 -182 0 -10 -5 -22 -12 -26 -7 -5 -8
-3 -3 6 6 9 4 11 -4 5 -7 -4 -10 -17 -7 -29 3 -12 -3 -48 -13 -81 -11 -33 -19
-51 -20 -40 0 11 6 38 14 60 8 21 13 41 11 42 -13 13 -56 -155 -62 -242 -3
-47 -22 -117 -23 -87 -1 18 -21 4 -21 -14 0 -8 5 -12 10 -9 6 3 10 1 10 -4 0
-6 -4 -11 -10 -11 -6 0 -5 -10 2 -25 6 -13 14 -22 19 -20 4 3 6 -16 4 -41 -3
-46 -18 -74 -32 -60 -4 4 -1 11 7 16 8 6 11 10 6 10 -5 0 -3 7 4 14 9 11 9 19
0 33 -8 13 -10 14 -7 2 3 -9 -3 -23 -14 -32 -15 -13 -17 -22 -9 -42 6 -16 6
-25 0 -25 -6 0 -10 -5 -10 -12 0 -6 -7 -20 -17 -30 -9 -10 -14 -21 -11 -24 4
-3 14 8 24 25 25 42 45 41 39 -1 -2 -18 1 -11 8 16 7 27 18 51 25 54 7 2 10 8
6 13 -3 5 -1 9 4 9 14 0 23 171 11 187 -11 13 -5 161 7 172 3 3 4 -31 2 -76
-2 -46 0 -83 4 -83 3 0 9 35 12 78 7 79 27 174 50 227 7 17 18 42 24 56 18 45
142 214 157 214 8 0 23 15 32 32 23 42 123 113 160 114 27 0 28 0 5 10 -13 5
-29 6 -35 3 -7 -3 3 9 21 26 48 45 35 46 -28 2z m-115 -112 c-10 -11 -20 -18
-23 -16 -5 6 21 35 32 36 5 0 1 -9 -9 -20z m-301 -715 c-4 -8 -13 -15 -21 -15
-13 0 -13 3 -3 15 7 8 16 15 21 15 5 0 6 -7 3 -15z"/>
<path d="M1890 3005 c7 -8 17 -15 22 -15 6 0 5 7 -2 15 -7 8 -17 15 -22 15 -6
0 -5 -7 2 -15z"/>
<path d="M1155 2970 c-3 -5 -2 -10 4 -10 5 0 13 5 16 10 3 6 2 10 -4 10 -5 0
-13 -4 -16 -10z"/>
<path d="M1830 2976 c0 -2 14 -14 30 -26 17 -12 30 -19 30 -16 0 2 -13 14 -30
26 -16 12 -30 19 -30 16z"/>
<path d="M2162 2932 c14 -15 32 -37 40 -50 l16 -24 -2 25 c0 14 -4 23 -8 20
-5 -2 -13 7 -19 21 -6 13 -20 27 -32 30 -18 4 -17 2 5 -22z"/>
<path d="M1290 2935 c-7 -8 -15 -13 -19 -10 -4 2 -22 -9 -40 -25 -36 -33 -46
-37 -37 -15 5 13 2 13 -18 -1 -14 -8 -27 -22 -30 -30 -7 -20 4 -18 20 3 7 10
16 14 21 9 4 -5 2 -11 -4 -13 -7 -3 -13 -9 -13 -15 0 -6 7 -8 15 -4 8 3 15 3
15 1 0 -7 -50 -55 -58 -55 -35 -2 -133 -136 -196 -268 -14 -30 -29 -51 -33
-49 -5 3 -8 -7 -9 -21 0 -15 -10 -79 -22 -142 -12 -63 -22 -142 -22 -176 0
-35 -4 -74 -10 -88 -6 -17 -6 -26 0 -26 6 0 10 8 11 18 0 11 2 12 6 4 3 -7 -7
-37 -21 -66 -26 -52 -35 -85 -16 -56 6 9 10 10 10 3 0 -23 -12 -43 -24 -37 -6
3 -3 -1 7 -9 18 -15 21 -45 10 -85 -4 -16 -8 -20 -13 -11 -5 6 -3 25 2 41 6
16 8 32 4 35 -12 12 -17 -5 -21 -63 -1 -32 -8 -60 -13 -62 -6 -2 -9 -9 -7 -15
3 -7 7 -57 9 -112 2 -55 7 -109 12 -119 7 -19 8 -19 15 0 7 17 8 17 8 -3 1
-17 5 -21 19 -16 9 4 19 10 22 13 9 12 59 20 64 11 3 -5 7 -25 8 -44 2 -19 6
-33 11 -30 7 4 12 -30 7 -52 -1 -5 2 -7 6 -3 4 5 15 -9 24 -30 9 -20 43 -64
74 -97 75 -78 108 -147 113 -237 3 -57 0 -76 -18 -108 -23 -40 -39 -44 -39 -9
0 10 7 19 15 19 11 0 14 7 11 23 -3 12 -7 59 -11 105 -6 92 -32 167 -51 151
-16 -13 5 -59 26 -59 10 0 11 -3 4 -8 -6 -4 -10 -16 -8 -27 2 -11 7 -49 11
-84 5 -53 4 -63 -8 -57 -8 4 -6 1 3 -6 11 -10 14 -19 7 -29 -5 -8 -9 -25 -9
-39 0 -14 -7 -38 -15 -54 -14 -27 -14 -28 2 -15 15 12 16 12 10 -3 -3 -10 -2
-20 3 -23 6 -4 10 1 10 10 0 9 5 13 10 10 6 -3 10 1 10 10 0 9 5 13 10 10 6
-4 10 6 10 22 0 15 9 42 20 58 15 23 20 47 20 100 -1 112 -10 137 -85 217
-104 113 -143 194 -190 406 -9 40 -21 70 -25 67 -13 -8 -30 29 -30 64 0 17 -4
31 -8 31 -13 0 2 -80 21 -117 9 -18 17 -43 17 -57 0 -14 5 -28 10 -31 15 -9
12 -51 -5 -65 -13 -11 -14 -8 -9 19 5 24 3 31 -10 31 -10 0 -16 -8 -16 -22 0
-13 -4 -29 -8 -36 -12 -18 -56 44 -47 66 6 15 8 14 15 -4 8 -20 30 -42 30 -30
0 3 -10 26 -22 51 -19 39 -21 51 -11 85 5 22 7 40 2 40 -4 0 -9 -8 -11 -17 -3
-15 -5 -14 -10 5 -5 17 -2 22 13 22 15 0 19 7 19 34 0 19 4 38 10 41 5 3 9 29
9 58 -1 36 7 72 25 114 21 51 26 78 26 146 0 87 25 210 55 267 71 137 271 355
375 408 36 19 53 31 37 27 -20 -4 -27 -2 -22 6 5 7 23 9 50 4 36 -5 45 -3 54
12 6 10 11 12 11 6 0 -23 30 -14 30 8 0 17 3 19 13 11 14 -12 57 -5 57 9 0 14
-61 11 -111 -5 -24 -7 -62 -19 -84 -25 -22 -6 -65 -31 -95 -56 -30 -25 -60
-45 -66 -45 -13 0 -147 -173 -221 -286 -12 -18 10 41 28 78 12 24 11 48 -2 48
-5 0 -7 -5 -3 -12 4 -6 -1 -17 -10 -24 -10 -7 -17 -16 -18 -21 0 -4 -4 -7 -9
-5 -13 3 -11 -12 4 -27 10 -10 9 -12 -2 -9 -10 2 -17 -9 -22 -32 -4 -19 -14
-61 -23 -93 -9 -32 -16 -60 -16 -63 0 -3 -5 -2 -10 1 -7 4 -7 12 0 25 5 10 10
33 10 50 0 40 47 178 70 205 9 11 28 39 40 63 13 23 28 42 33 42 5 0 2 -11 -7
-25 -9 -14 -12 -25 -6 -25 5 0 10 5 10 10 0 6 5 10 10 10 18 0 10 -39 -12 -60
-12 -11 -17 -20 -11 -20 12 0 30 20 77 87 41 60 44 73 16 66 -11 -3 -20 -11
-20 -18 0 -11 -39 -29 -47 -21 -11 10 13 35 37 40 20 3 38 18 54 45 14 22 33
44 43 50 15 8 16 13 5 30 -10 18 -10 21 3 21 8 0 19 9 25 19 8 16 17 19 45 14
28 -5 35 -2 35 11 0 14 -3 15 -22 5 -23 -12 -23 -12 -4 10 11 11 17 23 14 26
-3 3 -11 -1 -18 -10z m-140 -239 c0 -3 -4 -8 -10 -11 -5 -3 -10 -1 -10 4 0 6
5 11 10 11 6 0 10 -2 10 -4z m-50 -53 c0 -10 -4 -14 -8 -8 -4 6 -11 13 -16 18
-5 4 -2 7 7 7 10 0 17 -8 17 -17z m-199 -404 c-10 -23 -10 -22 -8 8 0 18 5 29
9 25 5 -5 4 -19 -1 -33z m-24 -161 c-3 -8 -6 -5 -6 6 -1 11 2 17 5 13 3 -3 4
-12 1 -19z m267 -1255 c-5 -5 -12 -12 -16 -18 -4 -6 -8 -2 -8 8 0 9 7 17 17
17 9 0 12 -3 7 -7z"/>
<path d="M1946 2924 c-4 -9 -4 -19 -1 -22 3 -3 5 0 5 7 0 9 8 11 28 6 26 -6
26 -6 7 9 -26 20 -31 20 -39 0z"/>
<path d="M1074 2898 l-19 -23 23 19 c21 18 27 26 19 26 -2 0 -12 -10 -23 -22z"/>
<path d="M1906 2904 c-5 -14 -4 -15 9 -4 17 14 19 20 6 20 -5 0 -12 -7 -15
-16z"/>
<path d="M2000 2881 c0 -5 7 -12 16 -15 14 -5 15 -4 4 9 -14 17 -20 19 -20 6z"/>
<path d="M1965 2825 c14 -27 37 -63 51 -79 24 -28 26 -28 42 -11 16 17 16 17
0 12 -11 -4 -19 0 -23 11 -3 9 -26 40 -51 67 l-45 50 26 -50z"/>
<path d="M1117 2808 c-10 -10 -23 -16 -29 -12 -6 4 -8 3 -5 -4 4 -5 -7 -23
-23 -39 -47 -43 -100 -128 -126 -201 -26 -70 -28 -81 -16 -66 5 5 17 35 27 66
13 38 22 53 27 45 7 -9 8 -8 6 3 -1 8 4 26 11 40 20 35 97 121 131 146 16 11
26 25 22 30 -4 6 -14 3 -25 -8z"/>
<path d="M1700 2818 c0 -9 5 -20 10 -23 13 -8 13 5 0 25 -8 13 -10 13 -10 -2z"/>
<path d="M1190 2775 c-1 -5 -2 -13 -1 -17 0 -5 -3 -8 -9 -8 -5 0 -10 -5 -10
-12 0 -8 6 -7 16 4 9 9 14 22 11 30 -3 7 -6 9 -7 3z"/>
<path d="M1785 2770 c3 -5 8 -10 11 -10 2 0 4 5 4 10 0 6 -5 10 -11 10 -5 0
-7 -4 -4 -10z"/>
<path d="M1870 2599 c7 -11 14 -19 16 -16 7 7 -7 37 -17 37 -6 0 -5 -9 1 -21z"/>
<path d="M2646 2577 c3 -10 9 -15 12 -12 3 3 0 11 -7 18 -10 9 -11 8 -5 -6z"/>
<path d="M1902 2550 c7 -11 16 -20 20 -20 5 0 3 9 -4 20 -7 11 -16 20 -20 20
-5 0 -3 -9 4 -20z"/>
<path d="M2290 2560 c0 -5 5 -10 11 -10 5 0 7 5 4 10 -3 6 -8 10 -11 10 -2 0
-4 -4 -4 -10z"/>
<path d="M2071 2534 c0 -11 3 -14 6 -6 3 7 2 16 -1 19 -3 4 -6 -2 -5 -13z"/>
<path d="M2110 2472 c6 -13 14 -21 18 -18 3 4 -2 14 -12 24 -18 16 -18 16 -6
-6z"/>
<path d="M2301 2474 c0 -11 3 -14 6 -6 3 7 2 16 -1 19 -3 4 -6 -2 -5 -13z"/>
<path d="M2307 2429 c4 -13 8 -18 11 -10 2 7 -1 18 -6 23 -8 8 -9 4 -5 -13z"/>
<path d="M2200 2416 c7 -7 13 -7 20 0 6 6 3 10 -10 10 -13 0 -16 -4 -10 -10z"/>
<path d="M1988 2375 c3 -24 0 -35 -9 -35 -7 0 -9 -3 -5 -7 4 -4 17 -8 29 -8
19 0 22 -5 19 -34 -3 -26 -1 -33 11 -28 8 3 20 0 26 -6 6 -6 -4 25 -22 68 -35
86 -55 107 -49 50z"/>
<path d="M2258 2350 c10 -29 25 -52 35 -56 9 -3 24 -18 32 -34 8 -16 19 -31
24 -35 5 -3 3 8 -5 25 -9 16 -13 34 -9 40 3 6 0 7 -10 4 -11 -5 -14 -2 -9 12
4 13 3 15 -3 6 -7 -9 -12 -6 -21 13 -7 14 -12 34 -12 43 0 15 -2 15 -10 2 -8
-13 -10 -13 -10 2 0 9 -4 19 -9 22 -5 3 -2 -17 7 -44z"/>
<path d="M2290 2351 c0 -5 5 -13 10 -16 6 -3 10 -2 10 4 0 5 -4 13 -10 16 -5
3 -10 2 -10 -4z"/>
<path d="M2340 2322 c13 -23 25 -40 28 -38 5 6 -26 64 -39 72 -7 4 -2 -12 11
-34z"/>
<path d="M762 2263 c-7 -32 -15 -69 -19 -83 -3 -14 -2 -21 2 -17 5 4 10 15 11
23 2 9 8 38 14 65 7 27 10 53 8 60 -2 6 -9 -15 -16 -48z"/>
<path d="M1755 2303 c-21 -4 -56 -16 -105 -34 -16 -6 -30 -15 -30 -20 0 -15
42 -10 103 11 105 37 240 17 280 -41 16 -21 17 -22 23 -3 4 10 9 23 12 28 3 5
0 6 -6 2 -7 -4 -12 -3 -12 2 0 5 -24 21 -52 34 -40 19 -70 25 -123 26 -38 0
-79 -2 -90 -5z"/>
<path d="M2196 2293 c-6 -14 -5 -15 5 -6 7 7 10 15 7 18 -3 3 -9 -2 -12 -12z"/>
<path d="M1048 2240 c-51 -9 -118 -55 -118 -81 0 -19 1 -19 23 5 23 26 100 56
143 56 14 0 54 -8 88 -17 35 -9 71 -13 82 -9 18 7 17 8 -6 21 -14 8 -50 17
-80 20 -30 3 -64 7 -75 9 -11 2 -37 0 -57 -4z"/>
<path d="M2205 2240 c-3 -5 -1 -10 4 -10 6 0 11 5 11 10 0 6 -2 10 -4 10 -3 0
-8 -4 -11 -10z"/>
<path d="M2040 2221 c0 -6 0 -13 0 -16 0 -3 3 -5 6 -4 4 0 11 -5 15 -13 7 -11
9 -11 9 0 0 7 -7 20 -15 28 -8 9 -15 11 -15 5z"/>
<path d="M2230 2221 c0 -6 4 -13 10 -16 6 -3 7 1 4 9 -7 18 -14 21 -14 7z"/>
<path d="M1979 2213 c-1 -4 -2 -12 -4 -18 -1 -5 -3 -16 -3 -22 -1 -7 -10 -13
-19 -13 -15 -1 -14 -4 6 -20 13 -11 28 -20 35 -20 6 0 17 -9 24 -20 10 -16 10
-20 -2 -20 -8 0 -16 7 -20 15 -3 8 -11 15 -17 15 -7 0 -36 16 -65 36 -39 27
-65 37 -105 41 -77 6 -109 -2 -154 -43 -41 -37 -21 -33 37 8 22 15 42 18 100
16 l73 -3 -50 -8 c-71 -12 -94 -23 -147 -70 l-47 -42 59 0 c32 0 56 3 53 8 -2
4 -19 7 -36 7 l-32 1 35 31 35 32 5 -29 c10 -57 110 -57 110 1 0 16 5 24 13
21 6 -2 11 -11 9 -21 -2 -9 2 -16 8 -16 6 0 8 5 5 10 -11 18 35 10 81 -14 48
-25 82 -28 75 -5 -2 8 -3 22 -3 33 1 10 -1 16 -4 13 -3 -3 -14 2 -25 11 -14
12 -18 24 -13 48 3 19 1 35 -5 38 -6 4 -12 4 -12 -1z m-201 -105 c-4 -27 -28
-36 -28 -10 0 20 8 32 22 32 5 0 8 -10 6 -22z m50 -5 c-2 -22 -9 -28 -28 -30
-16 -1 -19 0 -7 4 14 3 18 12 14 29 -3 16 0 24 10 24 10 0 13 -9 11 -27z"/>
<path d="M1669 2206 c-2 -3 -17 -7 -33 -10 -37 -7 -42 -12 -16 -19 12 -3 29 3
43 14 12 10 19 18 16 19 -3 0 -8 -2 -10 -4z"/>
<path d="M1905 2176 c11 -8 23 -12 28 -9 13 8 -3 23 -26 23 -20 0 -20 0 -2
-14z"/>
<path d="M2080 2176 c0 -8 5 -18 10 -21 6 -4 8 -10 5 -15 -3 -5 -1 -11 5 -15
15 -9 8 39 -7 54 -10 9 -13 9 -13 -3z"/>
<path d="M1572 2158 c-16 -16 -15 -28 2 -28 7 0 16 9 19 20 6 23 -3 26 -21 8z"/>
<path d="M2002 2158 c3 -7 13 -15 23 -17 17 -3 17 -2 3 13 -20 19 -31 21 -26
4z"/>
<path d="M750 2115 c0 -8 0 -17 0 -20 0 -16 14 -6 16 13 2 12 -1 22 -6 22 -6
0 -10 -7 -10 -15z"/>
<path d="M1085 2115 c-22 -8 -41 -15 -42 -15 0 0 -15 -21 -32 -47 -36 -54 -43
-87 -13 -60 10 10 24 17 30 17 6 0 27 13 45 30 34 29 51 31 40 4 -7 -19 26
-55 46 -50 9 2 28 7 44 10 21 5 27 12 27 33 0 24 1 25 18 11 21 -19 62 -33 62
-21 0 5 -24 21 -53 36 -69 35 -146 37 -197 6 -26 -16 -31 -17 -20 -5 25 31 68
46 133 46 48 0 71 -5 88 -19 32 -24 66 -34 74 -21 3 6 -3 10 -15 10 -12 0 -36
11 -54 25 -39 29 -115 33 -181 10z m85 -59 c0 -7 -7 -19 -15 -26 -12 -10 -15
-9 -15 7 0 11 3 23 7 26 11 12 23 8 23 -7z m38 -13 c-2 -22 -9 -29 -28 -30
l-25 -3 23 10 c17 7 22 15 17 30 -4 12 -2 20 5 20 6 0 10 -12 8 -27z"/>
<path d="M2514 2122 c3 -5 0 -13 -6 -15 -9 -4 -10 -6 -1 -6 17 -1 25 16 12 25
-7 4 -9 3 -5 -4z"/>
<path d="M425 2109 c-4 -6 -5 -12 -2 -15 2 -3 7 2 10 11 7 17 1 20 -8 4z"/>
<path d="M2080 2111 c0 -5 5 -13 10 -16 6 -3 10 -2 10 4 0 5 -4 13 -10 16 -5
3 -10 2 -10 -4z"/>
<path d="M2370 2092 c0 -39 -11 -47 -28 -20 -9 15 -11 17 -8 5 3 -10 6 -60 7
-110 0 -56 4 -84 8 -72 12 29 24 -97 22 -220 -1 -91 -29 -240 -51 -270 -19
-27 -19 -44 1 -42 19 1 28 17 8 17 -5 0 -7 5 -4 10 5 8 12 7 23 -2 14 -10 15
-10 5 1 -9 10 -9 20 0 40 6 14 14 28 17 31 15 14 39 111 39 155 0 28 3 91 6
140 13 221 13 280 0 315 -13 34 -13 32 -12 -40 2 -101 -5 -190 -15 -190 -10 0
-10 1 -8 153 1 70 -1 127 -4 127 -3 0 -6 -13 -6 -28z"/>
<path d="M2439 2099 c0 -13 0 -44 2 -69 3 -49 3 -54 -4 -280 -5 -147 -23 -258
-48 -284 -18 -20 -8 -28 12 -10 11 10 19 14 17 9 -2 -6 1 -12 6 -15 29 -15 46
315 21 403 -6 22 -4 26 7 22 18 -7 23 -62 23 -256 -1 -124 -4 -150 -19 -174
-13 -19 -14 -26 -4 -23 7 2 20 18 29 36 9 17 23 39 30 49 12 14 12 15 0 9 -10
-7 -11 -3 -5 15 4 13 7 31 6 39 0 8 2 22 5 30 8 21 8 20 17 68 11 61 10 241
-2 277 -8 24 -11 2 -12 -100 -1 -71 -5 -150 -9 -175 l-8 -45 -2 65 c-2 71 -11
148 -35 314 -15 107 -25 142 -27 95z"/>
<path d="M2120 2108 c-1 -5 -3 -14 -4 -20 -2 -12 -7 -12 -48 -1 -10 3 -18 1
-18 -5 0 -13 44 -24 64 -16 11 4 16 1 16 -10 0 -9 -5 -16 -12 -16 -6 0 -9 -2
-6 -5 11 -11 38 8 38 27 0 10 -4 17 -9 13 -5 -3 -12 5 -14 17 -2 13 -5 20 -7
16z"/>
<path d="M1529 2054 c-3 -33 0 -50 6 -47 6 2 9 20 7 41 -6 59 -9 61 -13 6z"/>
<path d="M1568 2075 c-10 -13 -18 -30 -17 -37 0 -7 5 -4 10 7 8 16 9 15 5 -10
-2 -16 0 -38 6 -49 9 -16 7 -18 -6 -13 -10 4 -15 3 -11 -3 3 -6 -1 -10 -9 -10
-8 0 -18 -5 -22 -11 -4 -8 4 -9 27 -5 32 6 33 5 9 -6 -25 -11 -25 -11 -2 -15
12 -3 22 -9 22 -14 0 -6 -4 -8 -9 -5 -5 3 -14 -1 -21 -9 -10 -13 -8 -15 13
-15 29 0 37 20 26 61 -4 15 -3 32 1 39 4 7 4 25 -1 40 -6 17 -6 36 0 53 13 33
2 34 -21 2z"/>
<path d="M1910 2081 c0 -3 -18 -14 -40 -24 -22 -9 -40 -22 -40 -27 0 -7 6 -7
20 0 11 6 20 8 20 5 0 -3 14 2 31 10 17 9 37 14 45 11 25 -9 15 8 -11 21 -14
6 -25 8 -25 4z"/>
<path d="M2484 2010 c1 -44 4 -80 9 -80 4 0 7 10 8 23 0 12 2 38 3 57 4 41 -3
80 -13 80 -4 0 -7 -36 -7 -80z"/>
<path d="M2310 2057 c0 -9 -4 -17 -10 -17 -15 0 -12 -77 4 -93 9 -9 11 -19 5
-28 -7 -12 -9 -12 -9 0 0 8 -3 11 -6 8 -4 -4 -1 -13 5 -21 7 -8 9 -21 5 -27
-4 -7 -11 -29 -15 -48 -13 -63 -18 -81 -24 -91 -3 -6 -2 -10 4 -10 7 0 7 -8 1
-25 -6 -15 -6 -25 0 -25 5 0 3 -11 -4 -24 -6 -13 -11 -46 -9 -72 1 -27 2 -67
2 -88 2 -89 42 36 44 136 1 38 -1 68 -4 68 -7 0 9 138 19 159 9 18 7 200 -2
209 -3 3 -6 -2 -6 -11z m-3 -69 c-3 -8 -6 -5 -6 6 -1 11 2 17 5 13 3 -3 4 -12
1 -19z m-24 -384 c-7 -19 -10 -18 -16 5 -3 13 -1 18 9 14 7 -2 10 -11 7 -19z
m-3 -44 c-6 -11 -12 -20 -14 -20 -2 0 -2 9 1 20 3 11 9 20 15 20 5 0 4 -9 -2
-20z"/>
<path d="M1953 2042 c-14 -2 -21 -10 -20 -23 2 -24 3 -24 29 1 24 22 22 27 -9
22z"/>
<path d="M2077 2043 c-11 -11 -8 -20 7 -20 8 0 12 6 9 14 -6 15 -7 15 -16 6z"/>
<path d="M2191 2037 c-1 -12 -6 -16 -13 -11 -10 5 -10 4 -1 -6 16 -17 26 -8
20 17 -4 17 -5 17 -6 0z"/>
<path d="M2262 2020 c0 -14 2 -19 5 -12 2 6 2 18 0 25 -3 6 -5 1 -5 -13z"/>
<path d="M584 2002 c-13 -9 -26 -42 -16 -42 4 0 12 11 19 25 6 14 10 25 10 25
-1 0 -7 -4 -13 -8z"/>
<path d="M1044 1999 c-10 -17 12 -32 36 -24 20 6 21 7 3 21 -22 16 -30 17 -39
3z"/>
<path d="M2087 2003 c-11 -10 -8 -58 4 -70 7 -7 8 -24 4 -45 -7 -29 -9 -31
-17 -13 -6 14 -7 8 -4 -22 3 -31 1 -40 -9 -37 -8 3 -18 -4 -25 -15 -6 -12 -7
-21 -1 -21 5 0 11 6 14 13 2 6 7 9 11 6 3 -3 -6 -28 -20 -55 -15 -27 -30 -61
-35 -76 -9 -32 6 -49 16 -18 3 11 10 20 15 20 8 0 -4 -48 -22 -83 -5 -10 -6
-22 -3 -27 4 -6 -1 -10 -9 -10 -10 0 -16 9 -16 25 0 14 5 25 11 25 5 0 7 5 3
11 -5 8 -10 6 -16 -5 -8 -14 -13 -15 -24 -5 -18 15 -18 9 2 -29 8 -17 16 -41
17 -52 1 -11 5 -20 10 -20 5 0 5 9 2 20 -4 13 -2 20 7 20 7 0 14 -11 14 -25 1
-17 -3 -25 -15 -25 -11 0 -12 -3 -4 -8 8 -5 9 -13 3 -22 -6 -8 -10 -27 -10
-42 0 -32 -9 -58 -20 -58 -5 0 -6 17 -4 38 4 28 3 33 -5 22 -14 -19 -14 -70
-1 -70 18 0 4 -45 -18 -55 -12 -5 -22 -15 -22 -22 0 -7 -7 -13 -15 -13 -20 0
-19 9 3 34 17 20 17 20 -10 0 -28 -20 -36 -34 -18 -34 21 0 8 -19 -24 -34 -35
-16 -49 -37 -50 -70 -1 -11 -20 -32 -48 -50 -43 -29 -62 -56 -38 -56 6 0 10
-5 10 -11 0 -6 -7 -9 -15 -5 -8 3 -15 1 -15 -4 0 -15 -17 -12 -23 4 -4 11 -1
13 10 9 13 -5 15 -2 11 15 -4 12 -3 22 0 22 4 0 21 12 38 28 25 21 30 31 24
47 -7 15 -9 16 -9 4 -1 -9 -9 -27 -19 -39 -16 -20 -19 -21 -31 -6 -7 9 -19 16
-25 16 -6 0 -3 -7 8 -15 16 -12 16 -16 4 -27 -29 -27 -58 -37 -120 -44 -102
-10 -174 10 -351 98 -11 5 -22 7 -25 4 -3 -3 -1 -6 5 -6 6 0 14 -21 17 -47 4
-27 11 -68 15 -93 l8 -45 2 43 c0 24 -4 52 -10 63 -5 11 -9 29 -7 40 3 18 8
17 78 -17 41 -20 95 -43 120 -51 44 -16 240 -34 240 -22 0 12 72 6 77 -7 5
-15 23 -9 23 7 0 6 -5 7 -11 3 -7 -4 -9 0 -5 14 5 14 1 24 -10 30 -15 8 -12
11 14 17 18 3 32 10 32 15 0 9 8 18 64 68 20 18 34 38 30 44 -4 6 2 8 17 4 13
-3 18 -3 12 0 -15 7 -17 34 -3 34 6 0 10 -4 10 -8 0 -5 7 -9 15 -9 11 0 12 4
4 13 -12 15 -4 34 15 34 8 0 16 10 19 21 3 13 11 19 19 17 9 -4 14 6 15 34 2
46 10 59 23 38 8 -13 10 -12 10 3 0 9 -6 17 -14 17 -20 0 -8 40 13 41 11 0 12
2 3 6 -10 4 -9 9 5 20 17 14 17 14 -1 9 -15 -5 -17 -4 -7 8 6 7 9 21 5 30 -4
11 -1 16 11 16 10 0 14 -5 9 -12 -5 -10 -4 -10 6 -1 13 12 5 37 -10 28 -4 -3
-10 4 -13 15 -6 24 6 26 27 4 9 -8 16 -10 16 -4 0 6 -6 13 -13 16 -8 3 -14 22
-15 45 -1 24 2 38 8 34 6 -3 10 -2 10 4 0 5 -7 14 -16 19 -23 13 -10 53 14 45
13 -5 14 -3 6 6 -7 7 -9 21 -7 32 4 15 8 17 19 8 17 -14 19 2 2 19 -17 17 -1
27 19 11 17 -13 17 -12 0 14 -20 31 -14 55 9 36 20 -16 18 0 -3 23 -16 18 -16
18 0 12 10 -3 17 -1 17 5 0 6 -4 11 -10 11 -5 0 -10 5 -10 11 0 5 5 7 10 4 14
-9 12 29 -2 44 -11 11 -9 12 12 6 23 -7 23 -7 7 9 -9 10 -17 22 -17 27 0 10
-23 12 -33 2z m10 -45 c-3 -8 -6 -5 -6 6 -1 11 2 17 5 13 3 -3 4 -12 1 -19z
m-234 -754 c7 -8 -31 -44 -45 -44 -5 0 -8 6 -5 13 2 6 10 11 16 10 6 -2 11 4
11 12 0 16 12 20 23 9z"/>
<path d="M1855 1990 c-28 -7 -28 -8 12 -9 23 0 45 4 48 9 7 11 -16 11 -60 0z"/>
<path d="M2197 1979 c6 -23 9 -24 16 -5 3 8 0 17 -7 19 -10 4 -12 -1 -9 -14z"/>
<path d="M2195 1940 c3 -5 8 -10 11 -10 2 0 4 5 4 10 0 6 -5 10 -11 10 -5 0
-7 -4 -4 -10z"/>
<path d="M2073 1915 c0 -8 4 -12 9 -9 4 3 8 9 8 15 0 5 -4 9 -8 9 -5 0 -9 -7
-9 -15z"/>
<path d="M230 1911 c0 -6 4 -13 10 -16 6 -3 7 1 4 9 -7 18 -14 21 -14 7z"/>
<path d="M1522 1900 c0 -14 2 -19 5 -12 2 6 2 18 0 25 -3 6 -5 1 -5 -13z"/>
<path d="M2501 1874 c0 -11 3 -14 6 -6 3 7 2 16 -1 19 -3 4 -6 -2 -5 -13z"/>
<path d="M1550 1859 c0 -5 5 -7 10 -4 6 3 10 8 10 11 0 2 -4 4 -10 4 -5 0 -10
-5 -10 -11z"/>
<path d="M2195 1853 c-14 -34 -32 -143 -23 -143 4 0 8 12 8 28 0 15 7 40 15
55 8 15 10 25 5 22 -13 -8 -13 2 1 27 6 11 9 22 6 24 -2 3 -8 -3 -12 -13z"/>
<path d="M570 1849 c0 -5 5 -7 10 -4 6 3 10 8 10 11 0 2 -4 4 -10 4 -5 0 -10
-5 -10 -11z"/>
<path d="M2327 1828 c-3 -18 -4 -81 -2 -139 1 -67 -2 -119 -10 -142 -7 -21 -9
-40 -4 -43 5 -3 9 -11 9 -17 0 -7 -4 -6 -11 3 -9 13 -10 12 -5 -2 6 -19 -20
-51 -35 -43 -5 4 -5 -5 1 -20 11 -28 -2 -65 -22 -65 -5 0 -8 -9 -5 -20 3 -10
2 -19 -2 -18 -18 5 -52 -15 -47 -28 3 -8 2 -13 -3 -10 -5 3 -33 -10 -63 -30
-29 -20 -68 -38 -85 -41 -24 -4 -33 -11 -33 -24 0 -11 -6 -19 -13 -19 -8 0
-20 -11 -27 -25 -7 -13 -22 -27 -32 -31 -10 -3 -16 -9 -14 -13 8 -12 -26 -71
-37 -64 -6 3 -7 1 -3 -5 14 -23 -15 -12 -40 15 l-25 27 23 13 c13 7 19 13 13
13 -5 0 -3 5 5 10 13 8 12 10 -2 10 -10 0 -18 -5 -18 -11 0 -6 -10 -8 -22 -5
-13 3 -18 3 -11 0 7 -3 9 -12 6 -20 -3 -8 10 -31 30 -53 27 -30 38 -36 48 -27
9 8 11 7 6 -7 -4 -11 -3 -16 4 -12 5 4 8 12 6 18 -6 17 22 69 33 62 9 -5 15
15 11 38 0 4 6 7 14 7 9 0 18 7 22 15 3 9 26 27 52 39 25 13 57 34 71 46 14
13 41 29 60 37 41 17 90 61 90 80 0 8 15 44 34 81 19 37 40 87 47 112 14 56
20 310 7 310 -6 0 -8 7 -4 15 3 8 2 15 -3 15 -5 0 -11 -15 -14 -32z m20 -130
c-3 -7 -5 -2 -5 12 0 14 2 19 5 13 2 -7 2 -19 0 -25z m-53 -273 c-4 -8 -8 -15
-10 -15 -2 0 -4 7 -4 15 0 8 4 15 10 15 5 0 7 -7 4 -15z m-244 -229 c0 -2 -7
-6 -15 -10 -8 -3 -15 -1 -15 4 0 6 7 10 15 10 8 0 15 -2 15 -4z"/>
<path d="M1560 1829 c-17 -31 -4 -74 23 -76 15 -2 18 0 8 6 -10 7 -8 12 10 26
23 17 23 17 2 12 -15 -3 -20 -1 -16 9 3 8 0 14 -7 14 -7 0 -10 7 -6 15 8 22
-2 18 -14 -6z"/>
<path d="M1591 1847 c-1 -4 17 -27 39 -50 53 -54 50 -76 -10 -91 -26 -7 -62
-21 -80 -33 -19 -11 -41 -18 -47 -16 -8 3 -13 -3 -13 -14 0 -12 -3 -14 -8 -6
-8 12 -93 43 -119 43 -7 0 -10 -7 -7 -15 4 -10 13 -13 25 -10 21 7 27 -10 7
-18 -7 -3 0 -6 15 -6 18 -1 26 3 21 10 -3 6 5 4 18 -5 51 -33 208 -9 247 38 7
8 16 14 20 12 4 -3 5 11 3 29 -4 36 -64 115 -87 115 -7 0 -16 6 -18 13 -3 6
-6 8 -6 4z m69 -157 c0 -5 -22 -21 -50 -35 -27 -14 -50 -23 -50 -20 0 3 0 7 0
10 0 3 3 6 8 6 4 1 21 12 37 25 31 25 55 31 55 14z"/>
<path d="M2008 1733 c-9 -21 -19 -51 -23 -68 -5 -27 -4 -26 9 6 8 20 21 50 30
67 9 18 13 32 8 32 -4 0 -15 -17 -24 -37z"/>
<path d="M2240 1751 c0 -8 -6 -11 -16 -7 -14 5 -15 4 -5 -8 7 -8 9 -29 5 -54
-4 -27 -2 -42 6 -47 7 -5 11 -4 8 1 -3 5 -2 34 3 63 5 30 6 57 4 60 -3 2 -5
-1 -5 -8z"/>
<path d="M440 1729 c0 -5 5 -7 10 -4 6 3 10 8 10 11 0 2 -4 4 -10 4 -5 0 -10
-5 -10 -11z"/>
<path d="M1566 1729 c3 -5 -1 -9 -9 -9 -17 0 -53 -38 -44 -47 4 -3 7 -2 7 4 0
6 18 18 40 27 46 18 48 22 20 29 -11 3 -18 1 -14 -4z"/>
<path d="M891 1704 c0 -11 3 -14 6 -6 3 7 2 16 -1 19 -3 4 -6 -2 -5 -13z"/>
<path d="M2100 1689 c0 -13 -4 -18 -12 -13 -7 4 -8 3 -4 -4 10 -17 26 -15 26
4 0 9 5 12 13 8 8 -5 8 -2 -2 9 -18 22 -21 21 -21 -4z"/>
<path d="M2169 1698 c-6 -21 -6 -45 0 -56 5 -8 7 0 7 22 -1 30 -4 44 -7 34z"/>
<path d="M851 1623 c0 -28 2 -54 7 -57 4 -2 6 14 4 37 -5 68 -10 76 -11 20z"/>
<path d="M1658 1641 c-37 -26 -53 -51 -20 -32 25 15 65 51 61 55 -2 2 -21 -9
-41 -23z"/>
<path d="M2085 1630 c2 -14 4 -47 4 -74 1 -27 4 -46 8 -43 8 9 10 126 1 121
-3 -2 -9 2 -12 8 -2 7 -3 2 -1 -12z"/>
<path d="M716 1630 c6 -8 10 -25 8 -38 -2 -13 3 -51 12 -85 9 -34 18 -80 20
-102 2 -22 13 -71 23 -110 15 -55 19 -63 20 -37 1 18 -6 49 -14 69 -19 44 -19
49 0 33 14 -11 14 -10 5 16 -6 16 -11 29 -10 29 1 0 -1 7 -4 15 -2 8 -11 37
-20 64 -21 66 -13 71 10 6 10 -27 22 -50 27 -50 4 0 5 -5 1 -12 -4 -7 -3 -8 4
-4 12 7 6 31 -12 54 -5 8 -12 23 -13 35 -2 12 -10 31 -18 44 -8 12 -15 31 -15
41 0 11 -8 26 -17 33 -16 12 -17 12 -7 -1z"/>
<path d="M45 1619 c-4 -6 -5 -12 -2 -15 2 -3 7 2 10 11 7 17 1 20 -8 4z"/>
<path d="M2148 1613 c6 -2 18 -2 25 0 6 3 1 5 -13 5 -14 0 -19 -2 -12 -5z"/>
<path d="M1540 1606 c0 -2 16 -6 35 -8 19 -2 35 0 35 4 0 4 -16 8 -35 8 -19 0
-35 -2 -35 -4z"/>
<path d="M2160 1595 c-1 -31 -32 -151 -43 -169 -18 -28 -29 -58 -19 -52 5 3
17 23 28 45 10 23 23 41 27 41 5 0 6 9 2 19 -3 11 1 26 10 35 9 9 12 16 6 16
-7 0 -7 8 -2 23 6 14 6 30 0 38 -5 8 -9 10 -9 4z"/>
<path d="M1756 1507 c3 -9 15 -13 32 -10 l27 3 -25 -11 c-14 -6 -46 -9 -72 -6
-29 2 -49 0 -52 -7 -3 -7 -5 -6 -5 2 -2 23 -86 10 -152 -24 -23 -12 -117 -17
-241 -14 -52 1 -48 -17 5 -23 39 -4 385 9 452 17 54 7 106 38 103 61 -2 15
-12 21 -40 23 -29 2 -37 0 -32 -11z m-116 -37 c-8 -5 -26 -9 -40 -9 -23 0 -23
1 -5 9 11 5 29 9 40 9 17 1 17 -1 5 -9z"/>
<path d="M1956 1501 c-4 -7 -5 -15 -2 -18 9 -9 19 4 14 18 -4 11 -6 11 -12 0z"/>
<path d="M1781 1433 c-29 -20 -76 -29 -118 -24 -7 1 -13 -3 -13 -10 0 -8 12
-9 38 -5 23 4 32 3 24 -2 -8 -5 -12 -13 -10 -17 1 -4 -12 -9 -29 -10 -18 -2
-31 1 -28 5 3 5 2 17 -2 27 -7 18 -10 18 -31 -9 -25 -30 -24 -38 2 -12 9 8 16
11 16 6 0 -33 -116 -66 -197 -56 l-38 4 30 -14 c35 -18 112 -20 151 -6 17 7
31 7 38 1 7 -6 20 -3 36 9 14 11 32 20 42 20 17 0 137 105 128 113 -3 2 -20
-7 -39 -20z"/>
<path d="M530 1439 c0 -5 5 -7 10 -4 6 3 10 8 10 11 0 2 -4 4 -10 4 -5 0 -10
-5 -10 -11z"/>
<path d="M840 1419 c0 -5 -4 -7 -10 -4 -5 3 -10 2 -10 -3 0 -19 26 -20 27 -1
1 10 0 19 -3 19 -2 0 -4 -5 -4 -11z"/>
<path d="M490 1400 c-2 -14 -3 -32 -4 -40 -1 -8 -4 -20 -9 -27 -5 -7 -1 -9 13
-6 21 6 24 28 10 73 l-8 25 -2 -25z"/>
<path d="M1364 1376 c11 -9 24 -16 30 -16 12 0 7 5 -24 19 -24 11 -24 11 -6
-3z"/>
<path d="M1810 1346 c0 -8 5 -18 10 -21 6 -3 10 -16 11 -28 1 -14 4 -10 9 13
5 19 6 38 4 42 -9 14 -34 9 -34 -6z"/>
<path d="M2068 1335 c-7 -15 -17 -24 -25 -21 -9 4 -11 1 -7 -5 4 -7 -3 -19
-14 -28 -25 -19 -20 -66 5 -57 8 3 24 6 36 7 21 0 21 1 2 8 -11 5 -25 4 -32
-1 -21 -17 -8 22 18 55 25 32 43 67 33 67 -2 0 -10 -11 -16 -25z"/>
<path d="M1933 1328 c1 -15 6 -23 11 -18 4 4 4 16 -2 26 -9 16 -10 14 -9 -8z"/>
<path d="M2282 1326 c-16 -36 -97 -101 -192 -154 -89 -49 -104 -70 -75 -102
12 -13 14 -28 10 -51 -3 -19 -2 -44 2 -57 8 -22 12 -19 53 43 25 37 44 71 42
77 -1 5 9 19 23 30 14 11 25 26 25 34 0 22 -50 -26 -67 -64 -8 -20 -18 -30
-25 -26 -6 4 -8 3 -5 -3 3 -5 -3 -22 -14 -39 l-19 -29 5 37 c4 21 1 47 -6 59
-10 19 -9 25 6 35 10 8 22 11 26 8 5 -3 9 -1 9 4 0 5 12 17 26 27 22 14 28 15
36 4 8 -11 9 -10 4 4 -3 9 -1 17 4 17 5 0 15 6 22 13 7 6 24 18 38 25 14 7 36
29 50 48 14 19 31 41 38 49 6 7 12 18 12 24 0 19 -17 12 -28 -13z"/>
<path d="M801 1324 c0 -11 3 -14 6 -6 3 7 2 16 -1 19 -3 4 -6 -2 -5 -13z"/>
<path d="M502 1291 c1 -16 5 -28 9 -26 6 5 0 55 -7 55 -3 0 -3 -13 -2 -29z"/>
<path d="M1786 1304 c-4 -9 -4 -19 -1 -22 2 -3 7 3 11 12 4 9 4 19 1 22 -2 3
-7 -3 -11 -12z"/>
<path d="M531 1265 c0 -11 4 -29 9 -40 9 -20 9 -20 9 0 0 11 -4 29 -9 40 -9
20 -9 20 -9 0z"/>
<path d="M1795 1270 c-3 -5 -2 -10 4 -10 5 0 13 5 16 10 3 6 2 10 -4 10 -5 0
-13 -4 -16 -10z"/>
<path d="M1945 1250 c-3 -5 -1 -10 4 -10 6 0 11 5 11 10 0 6 -2 10 -4 10 -3 0
-8 -4 -11 -10z"/>
<path d="M1019 1217 c-3 -24 0 -42 8 -49 11 -9 11 -14 1 -26 -10 -13 -10 -14
0 -8 8 5 12 1 12 -11 1 -16 1 -17 10 -1 7 10 7 25 1 40 -5 13 -13 39 -18 58
l-10 35 -4 -38z"/>
<path d="M1756 1221 c-4 -6 -3 -18 2 -27 8 -15 10 -14 16 2 8 20 -8 42 -18 25z"/>
<path d="M568 1190 c-3 -17 0 -34 6 -37 6 -3 8 -3 4 1 -3 4 -2 21 2 37 5 16 5
29 0 29 -4 0 -10 -14 -12 -30z"/>
<path d="M1913 1165 c-23 -18 -39 -35 -36 -38 3 -3 17 5 32 19 14 14 38 28 54
31 35 7 46 23 15 22 -13 0 -42 -15 -65 -34z"/>
<path d="M2271 1164 c0 -11 3 -14 6 -6 3 7 2 16 -1 19 -3 4 -6 -2 -5 -13z"/>
<path d="M2216 1157 c-11 -8 -17 -20 -14 -27 2 -8 10 -3 21 14 20 30 19 32 -7
13z"/>
<path d="M2246 1155 c-3 -8 -1 -15 4 -15 6 0 10 7 10 15 0 8 -2 15 -4 15 -2 0
-6 -7 -10 -15z"/>
<path d="M1770 1150 c0 -5 5 -10 10 -10 6 0 10 5 10 10 0 6 -4 10 -10 10 -5 0
-10 -4 -10 -10z"/>
<path d="M1700 1140 c0 -5 5 -10 11 -10 5 0 7 5 4 10 -3 6 -8 10 -11 10 -2 0
-4 -4 -4 -10z"/>
<path d="M937 1118 c-10 -11 -17 -22 -14 -24 6 -6 37 25 37 37 0 12 -2 11 -23
-13z"/>
<path d="M2220 1109 c-9 -16 -7 -19 8 -19 17 0 42 17 42 30 0 15 -41 7 -50
-11z"/>
<path d="M973 1085 c-7 -20 -7 -37 -2 -41 5 -3 9 -14 9 -25 0 -10 4 -19 9 -19
12 0 21 39 11 45 -4 3 -6 14 -3 24 3 11 1 27 -4 36 -8 13 -11 9 -20 -20z"/>
<path d="M2164 1096 c-31 -30 -36 -44 -22 -52 7 -4 10 -4 6 0 -3 4 7 20 24 35
17 15 27 30 22 33 -5 3 -18 -4 -30 -16z"/>
<path d="M2280 1112 c0 -7 5 -12 10 -12 14 0 12 -27 -2 -33 -10 -4 -10 -6 0
-6 21 -1 26 29 8 47 -10 10 -16 12 -16 4z"/>
<path d="M1044 1089 c-4 -7 -8 -27 -10 -46 -2 -18 -6 -39 -10 -45 -10 -16 -11
-100 -1 -120 10 -23 -1 -23 -25 -1 -18 16 -18 16 -3 -13 8 -16 15 -33 15 -39
1 -16 37 -55 50 -55 7 0 10 8 7 18 -36 131 -41 153 -30 160 7 4 13 36 14 72 1
36 7 68 13 72 8 5 7 8 -1 8 -6 0 -15 -5 -19 -11z"/>
<path d="M1650 1089 c0 -5 5 -7 10 -4 6 3 10 8 10 11 0 2 -4 4 -10 4 -5 0 -10
-5 -10 -11z"/>
<path d="M551 1074 c0 -11 3 -14 6 -6 3 7 2 16 -1 19 -3 4 -6 -2 -5 -13z"/>
<path d="M935 1080 c-3 -5 1 -10 9 -10 9 0 16 5 16 10 0 6 -4 10 -9 10 -6 0
-13 -4 -16 -10z"/>
<path d="M1625 1080 c-3 -5 -1 -10 4 -10 6 0 11 5 11 10 0 6 -2 10 -4 10 -3 0
-8 -4 -11 -10z"/>
<path d="M1072 1027 c-16 -70 -15 -102 3 -117 13 -11 15 -7 15 29 0 25 4 40
10 36 5 -3 8 0 5 7 -2 7 -6 30 -8 51 -7 54 -11 53 -25 -6z"/>
<path d="M1790 1060 c0 -11 4 -20 9 -20 5 0 7 9 4 20 -3 11 -7 20 -9 20 -2 0
-4 -9 -4 -20z"/>
<path d="M210 1066 c0 -2 8 -10 18 -17 15 -13 16 -12 3 4 -13 16 -21 21 -21
13z"/>
<path d="M2170 1045 c-12 -13 -26 -22 -31 -19 -10 6 -103 -109 -124 -152 -8
-18 -15 -44 -15 -58 0 -17 -5 -26 -15 -26 -17 0 -39 -46 -31 -64 2 -6 5 -3 5
7 1 10 5 16 10 13 4 -3 5 -23 0 -43 -24 -113 -40 -221 -49 -333 -6 -69 -13
-143 -16 -165 -4 -36 -3 -38 9 -20 7 11 14 47 15 80 3 64 10 116 18 124 3 3 9
-1 14 -9 6 -9 10 -10 10 -3 0 7 -7 16 -16 21 -14 8 -15 17 -5 78 7 38 19 114
27 169 9 55 20 102 25 106 7 4 28 98 29 127 0 2 5 0 11 -3 6 -4 9 0 7 11 -2
13 3 19 14 18 9 -1 14 4 12 11 -3 6 2 18 11 25 12 10 15 10 15 -3 0 -9 -6 -31
-14 -49 -8 -18 -17 -46 -21 -61 -3 -15 -9 -26 -13 -23 -4 2 -9 -7 -10 -21 -1
-13 -5 -30 -9 -36 -4 -7 -8 -20 -9 -29 -3 -36 -4 -39 -14 -33 -16 10 -12 -12
6 -29 8 -9 12 -16 7 -16 -11 0 -5 -116 7 -154 8 -24 8 -27 -5 -16 -11 9 -15 9
-15 1 0 -6 7 -14 16 -18 9 -3 13 -12 9 -21 -3 -8 0 -19 7 -24 10 -6 9 -8 -4
-8 -9 0 -24 10 -32 22 -9 12 -16 17 -16 11 0 -6 7 -18 15 -26 13 -13 10 -18
-20 -38 -18 -13 -32 -27 -29 -30 2 -4 0 -10 -6 -14 -5 -3 -10 -11 -10 -17 0
-5 11 0 25 13 13 13 25 29 25 36 0 18 23 22 41 7 13 -12 21 -10 55 16 51 37
64 66 64 140 0 33 4 60 9 60 14 0 18 -30 10 -70 -10 -44 -3 -52 11 -14 11 28
9 83 -5 152 -6 26 -4 32 9 32 9 0 16 5 16 11 0 5 -4 7 -10 4 -13 -8 -13 35 0
55 16 26 25 0 26 -77 0 -56 4 -78 15 -87 9 -6 18 -24 21 -40 l6 -28 -24 28
c-27 33 -32 25 -8 -11 9 -14 24 -25 33 -25 21 0 61 -52 61 -78 0 -11 -6 -24
-12 -29 -23 -18 -122 -51 -178 -58 -78 -10 -105 -29 -134 -96 -22 -48 -26 -71
-26 -153 0 -58 4 -95 9 -91 5 3 7 22 4 43 l-6 37 21 -19 c12 -11 22 -15 22
-10 0 5 -9 15 -21 22 -14 9 -18 17 -10 25 5 7 12 35 15 62 6 61 15 95 27 95 5
0 9 6 9 14 0 17 67 43 129 50 24 3 68 17 97 30 l53 25 7 -35 c3 -19 11 -34 17
-34 6 0 8 -3 4 -6 -6 -6 2 -17 41 -60 l23 -24 -42 4 c-28 3 -38 1 -31 -6 6 -6
28 -9 50 -6 22 2 39 0 36 -3 -5 -9 42 -27 91 -34 22 -4 59 -14 83 -22 48 -18
62 -12 43 18 -11 19 -10 20 8 14 10 -3 22 -1 26 5 5 8 11 8 21 -1 11 -9 19 -8
34 6 11 10 20 23 20 29 0 6 -5 4 -10 -4 -6 -12 -30 -16 -96 -18 -97 -3 -170
14 -224 51 -38 25 -80 90 -79 122 0 12 10 -2 25 -33 27 -56 48 -71 155 -112
63 -24 80 -26 53 -6 -24 18 -12 31 16 16 11 -6 30 -8 41 -5 11 4 26 1 34 -5
16 -14 36 -5 29 13 -2 7 -25 13 -51 15 -26 2 -50 8 -54 13 -3 6 -11 4 -19 -6
-13 -15 -50 -21 -50 -7 0 4 -10 8 -22 9 -48 4 -80 26 -99 70 -10 23 -23 43
-30 43 -6 0 -9 8 -6 19 3 14 1 18 -11 14 -12 -5 -14 -1 -10 20 4 20 -2 34 -26
58 -17 18 -24 29 -16 25 9 -4 8 -2 -2 7 -10 8 -15 17 -12 20 3 3 -3 16 -15 28
-22 24 -22 53 -1 104 7 17 14 37 15 45 6 50 17 90 24 86 9 -6 44 64 36 72 -3
3 -5 1 -5 -4 0 -5 -9 -20 -20 -34 l-20 -25 4 38 c2 21 -1 40 -6 43 -4 3 -7 0
-6 -7 2 -6 -3 -14 -9 -16 -7 -3 -13 3 -13 13 0 9 -3 14 -7 11 -3 -4 2 -23 13
-42 l19 -36 -25 -19 c-14 -11 -19 -20 -12 -20 9 0 11 -10 6 -37 -10 -56 -20
-71 -26 -40 -3 17 -1 24 5 20 6 -3 2 5 -9 20 -17 22 -71 47 -59 26 3 -4 -5
-24 -17 -45 -15 -25 -23 -58 -25 -98 -2 -34 -8 -74 -13 -90 -6 -16 -10 -48
-10 -70 0 -40 -24 -91 -38 -82 -10 6 -8 88 2 104 10 17 -3 52 -20 52 -9 0 -14
9 -13 28 1 15 -2 35 -6 45 -4 10 -3 17 5 17 6 0 8 5 5 10 -3 6 0 10 7 11 7 0
4 4 -7 9 -11 5 -15 9 -10 9 6 1 9 18 7 42 -3 31 -1 40 8 34 8 -5 11 -3 8 6 -3
8 6 31 19 51 12 21 23 49 23 62 0 14 4 27 9 30 5 3 12 18 16 33 7 30 74 133
85 133 4 0 13 -6 20 -14 9 -12 7 -21 -12 -46 -13 -18 -35 -38 -50 -46 -16 -8
-28 -19 -28 -25 0 -8 5 -7 15 1 22 18 30 6 10 -14 -9 -9 -22 -13 -28 -9 -7 4
-6 -1 2 -10 9 -11 10 -17 2 -17 -6 0 -11 -5 -11 -12 0 -6 3 -8 7 -5 3 4 14 0
23 -8 16 -14 18 -12 29 27 7 24 21 54 31 68 19 24 20 24 20 4 0 -12 -6 -27
-14 -33 -8 -7 -19 -26 -25 -43 -9 -25 -8 -28 3 -19 7 6 16 7 20 3 4 -4 7 -2 6
3 -3 16 12 55 19 51 3 -2 6 10 6 27 0 17 -6 32 -12 34 -10 4 -10 9 1 25 11 16
12 26 4 44 -15 31 -48 31 -78 -1z m-180 -274 c0 -6 -4 -13 -10 -16 -5 -3 -10
1 -10 9 0 9 5 16 10 16 6 0 10 -4 10 -9z m70 -260 c0 -30 -17 -34 -22 -6 -4
17 -1 25 8 25 8 0 14 -9 14 -19z m-13 -127 c-3 -3 -12 -4 -19 -1 -8 3 -5 6 6
6 11 1 17 -2 13 -5z"/>
<path d="M565 1041 c-10 -32 -16 -71 -11 -71 7 0 28 81 23 87 -3 2 -8 -5 -12
-16z"/>
<path d="M601 1050 c-8 -48 -8 -80 0 -80 5 0 9 -7 9 -15 0 -8 6 -15 13 -15 8
0 8 -3 2 -8 -6 -4 -8 -20 -5 -37 6 -30 6 -30 11 8 3 22 0 50 -7 63 -7 13 -15
41 -17 61 -2 21 -5 31 -6 23z"/>
<path d="M1969 1053 c-4 -28 -6 -76 -2 -66 2 7 12 9 21 6 16 -6 15 -5 0 14
-20 21 -24 38 -8 28 6 -3 7 1 4 9 -7 17 -13 21 -15 9z"/>
<path d="M912 1028 c3 -16 1 -28 -3 -28 -5 0 -9 -4 -9 -9 0 -6 8 -9 19 -8 16
1 17 5 8 32 -13 40 -21 47 -15 13z"/>
<path d="M2269 1023 c-22 -45 -22 -46 -10 -38 13 7 34 55 28 61 -2 2 -10 -8
-18 -23z"/>
<path d="M2454 1041 c2 -3 -7 -16 -20 -28 -22 -22 -24 -22 -40 -5 -17 16 -18
16 -11 -1 4 -10 2 -28 -5 -40 -6 -12 -13 -41 -14 -65 -3 -38 -29 -120 -68
-207 -7 -17 -17 -46 -21 -65 -7 -31 -6 -33 9 -21 8 7 13 17 10 22 -3 5 0 9 6
9 6 0 8 5 5 10 -3 6 1 17 9 26 9 8 16 22 16 29 0 19 50 76 61 69 5 -3 9 2 9
10 0 9 4 16 8 16 5 0 15 12 22 28 8 15 22 36 31 47 9 11 19 29 21 40 2 11 10
19 16 17 7 -1 11 1 10 5 -1 5 2 19 6 32 5 14 4 27 -3 34 -8 8 -11 7 -11 -3 0
-24 -92 -174 -128 -210 -24 -23 -33 -28 -28 -15 5 11 19 47 31 81 27 73 51
120 65 129 6 3 17 19 24 34 13 23 13 28 1 28 -8 0 -13 -3 -11 -6z"/>
<path d="M2490 1032 c-27 -34 -110 -191 -110 -208 0 -15 82 118 106 174 26 56
26 62 4 34z"/>
<path d="M952 1009 c5 -16 13 -29 18 -29 12 0 -1 48 -15 54 -11 4 -11 -1 -3
-25z"/>
<path d="M1791 991 c21 -44 26 -49 26 -26 0 8 -4 15 -8 15 -4 0 -9 10 -11 22
-2 12 -8 23 -15 25 -7 3 -4 -12 8 -36z"/>
<path d="M2329 995 c-14 -21 -30 -33 -38 -30 -11 5 -12 3 -1 -10 11 -14 7 -19
-12 -16 -5 0 -8 -7 -8 -16 0 -22 68 41 81 76 15 37 4 35 -22 -4z"/>
<path d="M2187 1013 c-4 -3 -7 -11 -7 -17 0 -6 5 -5 12 2 6 6 9 14 7 17 -3 3
-9 2 -12 -2z"/>
<path d="M1161 994 c0 -11 3 -14 6 -6 3 7 2 16 -1 19 -3 4 -6 -2 -5 -13z"/>
<path d="M1835 990 c3 -5 10 -10 16 -10 5 0 9 5 9 10 0 6 -7 10 -16 10 -8 0
-12 -4 -9 -10z"/>
<path d="M1633 969 c-1 -13 5 -19 18 -19 11 0 19 7 19 17 0 9 -3 13 -7 10 -3
-4 -11 -3 -17 3 -8 6 -12 3 -13 -11z"/>
<path d="M1763 955 c8 -49 23 -65 29 -31 3 16 1 23 -5 19 -6 -4 -8 0 -5 8 3 8
-1 21 -10 28 -14 13 -15 11 -9 -24z"/>
<path d="M2000 975 c0 -5 5 -17 10 -25 5 -8 10 -10 10 -5 0 6 -5 17 -10 25 -5
8 -10 11 -10 5z"/>
<path d="M1845 935 c3 -22 11 -44 16 -49 14 -15 11 -30 -4 -18 -10 8 -12 2 -9
-30 3 -22 -1 -45 -7 -51 -6 -6 -11 -22 -12 -36 0 -24 -1 -24 -9 -6 -7 16 -8
14 -7 -11 1 -19 6 -30 14 -27 17 7 43 67 43 102 0 17 4 31 10 31 9 0 70 82 70
94 0 3 -8 6 -17 7 -14 0 -13 3 5 12 19 8 25 8 33 -4 11 -17 12 -32 2 -26 -5 3
-9 -24 -10 -59 -1 -41 2 -62 8 -58 6 3 8 8 6 11 -3 2 1 20 9 38 18 44 18 50
-1 35 -13 -11 -14 -10 -9 4 3 9 12 16 20 16 8 0 14 5 14 11 0 5 -4 8 -9 5 -5
-3 -12 5 -15 19 -5 20 -13 25 -36 25 -29 0 -49 -28 -35 -50 3 -5 2 -10 -4 -10
-6 0 -7 -7 -4 -17 5 -12 3 -14 -7 -8 -9 6 -11 4 -5 -6 8 -12 6 -12 -8 0 -18
14 -23 41 -8 41 5 0 11 11 13 24 4 19 1 24 -14 23 -12 -1 -17 -7 -13 -17 3 -9
-1 -7 -11 5 -15 19 -16 18 -9 -20z"/>
<path d="M2333 920 c-3 -11 -8 -18 -12 -16 -3 2 -7 -7 -8 -21 0 -15 3 -21 8
-16 11 11 30 73 22 73 -3 0 -7 -9 -10 -20z"/>
<path d="M1216 898 c-3 -13 -7 -57 -10 -98 -3 -41 -14 -103 -25 -137 -20 -65
-16 -98 5 -38 15 46 32 142 38 228 5 66 1 89 -8 45z"/>
<path d="M1745 910 c3 -5 8 -10 11 -10 2 0 4 5 4 10 0 6 -5 10 -11 10 -5 0 -7
-4 -4 -10z"/>
<path d="M1054 893 c3 -10 8 -31 12 -47 6 -23 8 -26 16 -12 6 10 3 26 -7 46
-17 33 -29 40 -21 13z"/>
<path d="M1812 883 c3 -23 1 -33 -9 -33 -7 0 -13 -4 -13 -8 0 -4 9 -8 19 -8
16 0 18 6 15 35 -3 19 -7 37 -11 41 -3 3 -4 -10 -1 -27z"/>
<path d="M2805 900 c-3 -5 -1 -10 4 -10 6 0 11 5 11 10 0 6 -2 10 -4 10 -3 0
-8 -4 -11 -10z"/>
<path d="M1750 875 c0 -8 4 -15 10 -15 5 0 7 7 4 15 -4 8 -8 15 -10 15 -2 0
-4 -7 -4 -15z"/>
<path d="M1787 883 c-4 -3 -7 -11 -7 -17 0 -6 5 -5 12 2 6 6 9 14 7 17 -3 3
-9 2 -12 -2z"/>
<path d="M1930 855 c-8 -9 -8 -15 -2 -15 12 0 26 19 19 26 -2 2 -10 -2 -17
-11z"/>
<path d="M2121 841 c-34 -34 -46 -93 -33 -162 7 -39 8 -69 2 -85 -6 -14 -10
-35 -9 -47 1 -39 37 66 39 114 2 59 0 69 -10 39 -7 -20 -9 -14 -8 25 1 28 5
52 9 55 4 3 9 12 11 20 2 8 11 22 21 32 11 10 14 19 8 22 -6 4 -19 -2 -30 -13z"/>
<path d="M1750 845 c0 -7 59 -65 66 -65 3 0 4 10 2 23 -2 15 -9 21 -21 19 -9
-2 -20 4 -23 13 -6 14 -24 22 -24 10z"/>
<path d="M585 827 c-66 -81 -85 -106 -85 -111 0 -3 8 -10 19 -15 14 -8 25 -4
48 17 17 15 36 38 42 51 9 16 16 20 23 13 8 -8 3 -21 -16 -43 -17 -20 -25 -38
-20 -48 3 -9 7 -21 7 -28 0 -7 4 -10 9 -7 4 3 8 2 8 -3 0 -4 18 -9 40 -10 55
-2 70 -5 70 -14 0 -4 -6 -9 -14 -11 -8 -2 -11 -10 -6 -22 7 -21 6 -21 50 34
19 24 19 24 20 4 0 -12 -7 -27 -15 -34 -18 -15 -20 -70 -2 -70 7 0 8 -3 2 -8
-12 -9 -18 -32 -7 -32 8 0 32 48 32 64 0 6 -5 4 -10 -4 -9 -13 -10 -13 -10 0
1 21 25 51 35 42 4 -4 2 3 -4 16 -11 21 -11 22 8 10 19 -11 31 -37 31 -67 0
-11 -3 -11 -17 0 -10 8 -14 9 -10 2 4 -6 3 -14 -3 -18 -5 -3 -10 -11 -10 -16
0 -6 5 -7 10 -4 6 3 10 1 10 -4 0 -6 7 -11 15 -11 9 0 15 9 15 24 0 14 4 27
10 31 5 3 7 12 4 20 -4 10 1 12 18 9 22 -5 22 -5 3 7 -11 7 -22 15 -25 18 -3
4 -20 19 -38 34 -34 28 -92 37 -92 15 0 -9 -3 -9 -12 0 -7 7 -28 12 -48 12
-65 0 -70 29 -15 84 26 26 32 46 16 46 -6 0 -13 -5 -17 -11 -4 -6 -16 1 -33
20 -20 23 -28 27 -36 18z m15 -25 c0 -22 -65 -100 -75 -90 -4 4 -1 14 8 22 8
9 25 31 37 51 25 40 30 43 30 17z"/>
<path d="M2260 825 c-11 -13 -10 -14 4 -9 9 3 16 10 16 15 0 13 -6 11 -20 -6z"/>
<path d="M1933 803 c2 -12 6 -26 10 -29 11 -11 8 19 -3 36 -8 12 -9 10 -7 -7z"/>
<path d="M715 802 c3 -3 -4 -11 -15 -19 -11 -8 -20 -19 -20 -25 0 -6 -7 -16
-15 -22 -12 -9 -7 -11 25 -13 36 -2 42 1 51 24 12 31 4 60 -16 60 -8 0 -13 -3
-10 -5z m5 -42 c0 -5 -2 -10 -4 -10 -3 0 -8 5 -11 10 -3 6 -1 10 4 10 6 0 11
-4 11 -10z"/>
<path d="M1768 795 c-7 -7 3 -55 11 -55 4 0 6 14 3 30 -4 32 -5 33 -14 25z"/>
<path d="M1931 744 c0 -11 3 -14 6 -6 3 7 2 16 -1 19 -3 4 -6 -2 -5 -13z"/>
<path d="M2391 746 c-17 -20 -22 -136 -6 -136 10 0 14 21 17 75 2 41 2 75 2
75 -1 0 -7 -6 -13 -14z"/>
<path d="M1111 745 c1 -19 18 -51 18 -35 0 8 -4 22 -9 30 -5 8 -9 11 -9 5z"/>
<path d="M2418 744 c-7 -13 -2 -145 7 -166 4 -10 11 -18 16 -18 6 0 5 9 -1 20
-6 11 -9 46 -7 78 5 56 -4 105 -15 86z"/>
<path d="M2002 720 c0 -14 2 -19 5 -12 2 6 2 18 0 25 -3 6 -5 1 -5 -13z"/>
<path d="M1788 710 c-7 -24 -3 -38 8 -28 3 4 4 17 2 30 l-3 23 -7 -25z"/>
<path d="M1841 706 c-13 -15 -4 -26 21 -26 21 0 24 25 4 33 -8 3 -19 0 -25 -7z"/>
<path d="M1935 690 c-12 -13 -14 -20 -5 -20 8 0 10 -7 6 -22 -4 -13 -10 -32
-12 -43 -5 -20 -5 -20 7 0 11 16 31 105 24 105 -1 0 -10 -9 -20 -20z"/>
<path d="M1055 680 c2 -13 10 -28 16 -34 8 -8 9 -4 4 14 -10 34 -26 50 -20 20z"/>
<path d="M1127 669 c4 -13 8 -18 11 -10 2 7 -1 18 -6 23 -8 8 -9 4 -5 -13z"/>
<path d="M1811 677 c-1 -12 -7 -17 -18 -15 -10 2 -26 -5 -35 -14 -22 -22 -22
-23 2 -25 12 -1 20 5 21 15 0 14 2 13 9 -3 9 -20 9 -20 9 0 1 13 4 16 9 8 5
-8 12 -8 26 3 17 12 17 14 4 14 -9 0 -19 8 -21 18 -4 16 -5 15 -6 -1z"/>
<path d="M582 628 c-7 -7 -12 -19 -12 -28 0 -9 -6 -22 -12 -29 -10 -11 -10
-13 0 -7 6 4 12 3 12 -1 0 -5 6 -17 13 -27 12 -16 13 -16 12 7 0 14 -3 29 -7
33 -13 12 -9 41 5 47 18 7 41 -8 33 -21 -3 -6 -1 -14 5 -17 7 -5 8 -27 4 -66
-6 -47 -3 -65 9 -84 9 -14 13 -25 9 -25 -5 0 -1 -4 7 -10 28 -17 -19 -24 -54
-7 -20 9 -38 12 -47 7 -15 -10 -42 7 -34 20 3 5 0 12 -6 16 -8 4 -9 3 -5 -4 4
-7 4 -12 -1 -12 -16 0 -30 15 -43 47 -17 39 -32 34 -20 -7 7 -25 6 -30 -9 -30
-30 0 -43 21 -25 41 15 17 14 18 -12 24 -16 4 -33 8 -39 9 -12 3 -29 -13 -38
-34 -4 -10 -6 -8 -6 7 -1 12 5 24 12 26 6 3 2 6 -10 6 -12 1 -27 -7 -32 -16
-10 -17 -10 -16 -11 2 -1 19 -1 19 -11 2 -7 -12 -17 -16 -29 -12 -11 3 -30 1
-42 -6 -25 -13 -44 -17 -123 -22 -55 -3 -75 -12 -75 -31 0 -14 56 -10 66 5 3
5 18 2 34 -6 16 -8 40 -15 54 -15 14 0 28 -4 31 -10 9 -15 -26 -12 -75 5 -50
18 -50 18 -50 5 0 -5 16 -12 36 -16 19 -4 38 -13 41 -21 4 -10 9 -11 18 -3 10
8 25 8 49 1 22 -5 38 -6 42 0 5 8 -17 14 -39 10 -5 -1 -6 3 -2 9 4 6 16 8 27
4 16 -5 20 -3 15 9 -4 10 0 14 11 13 9 -2 20 -17 24 -34 9 -33 38 -45 38 -16
0 8 4 13 10 9 5 -3 7 -12 3 -20 -3 -8 -1 -15 5 -15 6 0 8 -10 5 -22 -3 -19 -2
-20 6 -7 11 17 -10 105 -22 93 -4 -4 -7 0 -7 8 0 25 -67 34 -91 12 -10 -9 -19
-13 -19 -8 0 6 -19 11 -42 13 -41 2 -56 7 -47 15 2 2 46 7 97 11 103 7 112 4
138 -51 9 -19 20 -34 25 -34 14 0 14 2 -23 77 -9 17 -14 34 -11 37 8 8 33 -14
33 -29 0 -20 35 -45 62 -45 35 0 146 -57 192 -99 21 -20 52 -48 68 -63 16 -15
27 -32 24 -37 -3 -5 2 -15 11 -22 14 -12 16 -12 8 0 -6 11 -2 13 20 7 20 -5
30 -2 39 10 10 13 17 14 34 5 11 -6 35 -11 54 -11 32 0 32 0 10 16 -12 8 -22
21 -22 29 0 21 35 7 71 -31 18 -19 37 -34 42 -34 5 0 21 -8 35 -19 26 -17 52
-26 115 -36 34 -5 103 -39 137 -66 l25 -21 -25 7 c-14 4 -37 9 -52 12 -16 3
-28 9 -28 13 0 9 -44 5 -88 -9 -28 -8 -33 -8 -28 4 3 9 0 12 -9 8 -11 -4 -12
-10 -4 -24 12 -24 -6 -26 -19 -3 -7 12 -14 14 -28 6 -10 -5 -26 -7 -34 -5 -12
4 -12 2 1 -8 9 -8 19 -21 22 -29 4 -10 6 -7 6 8 1 28 18 28 48 0 23 -21 23
-21 23 -1 0 30 79 52 110 30 12 -9 29 -13 36 -10 8 3 14 1 14 -4 0 -5 14 -10
30 -11 19 -1 30 2 30 10 0 8 3 9 8 3 8 -12 58 -35 75 -35 16 0 -124 94 -193
129 -30 16 -80 34 -110 41 -30 7 -67 19 -81 26 -31 15 -99 91 -99 110 0 7 -21
15 -50 19 -54 7 -57 10 -36 31 11 11 16 11 19 1 3 -7 6 -5 6 5 1 9 -3 20 -9
23 -5 3 -10 19 -10 35 0 33 -19 80 -32 80 -8 0 -10 -13 -13 -85 -5 -85 -5 -85
-26 -85 -26 0 -42 16 -66 68 -18 40 -18 105 0 179 3 13 2 25 -3 28 -4 3 -11
-6 -14 -20 -9 -35 -23 -31 -30 9 -8 42 -39 59 -64 34z m78 -129 c0 -11 -4 -18
-10 -14 -5 3 -7 12 -3 20 7 21 13 19 13 -6z m-8 -132 c20 -2 32 -7 31 -15 -2
-6 4 -12 13 -12 8 0 13 -4 10 -9 -3 -5 2 -11 13 -14 14 -3 17 -11 14 -34 -3
-20 1 -34 13 -44 16 -13 16 -12 5 9 -16 30 -7 54 24 69 14 6 23 7 20 3 -3 -5
1 -11 7 -14 10 -5 10 -7 1 -12 -19 -8 -16 -24 4 -24 9 0 32 5 50 12 23 8 36 9
44 1 7 -7 -4 -14 -37 -23 -41 -12 -51 -11 -76 3 -15 9 -28 12 -28 6 0 -5 6
-12 14 -15 8 -3 14 -14 13 -24 -2 -31 -41 -7 -118 72 -42 43 -77 72 -87 70
-14 -2 -15 -1 -2 7 9 7 19 6 27 0 7 -6 27 -12 45 -12z m193 -67 c-3 -5 -10
-10 -16 -10 -5 0 -9 5 -9 10 0 6 7 10 16 10 8 0 12 -4 9 -10z m10 -70 c8 -13
-5 -13 -25 0 -13 8 -13 10 2 10 9 0 20 -4 23 -10z"/>
<path d="M1090 596 c0 -9 5 -16 10 -16 6 0 10 4 10 9 0 6 -4 13 -10 16 -5 3
-10 -1 -10 -9z"/>
<path d="M2378 595 c-7 -11 17 -75 27 -75 3 0 3 5 -1 12 -4 6 -10 25 -13 42
-4 17 -10 26 -13 21z"/>
<path d="M1921 564 c0 -11 3 -14 6 -6 3 7 2 16 -1 19 -3 4 -6 -2 -5 -13z"/>
<path d="M2055 570 c-3 -5 -1 -10 4 -10 6 0 11 5 11 10 0 6 -2 10 -4 10 -3 0
-8 -4 -11 -10z"/>
<path d="M710 550 c-7 -14 -7 -20 0 -20 5 0 10 6 10 14 0 8 6 17 13 19 9 4 9
6 0 6 -7 1 -17 -8 -23 -19z"/>
<path d="M884 550 c0 -10 6 -16 13 -13 7 3 13 9 13 13 0 4 -6 10 -13 13 -7 3
-13 -3 -13 -13z"/>
<path d="M270 547 c0 -5 -14 -6 -31 -2 -20 5 -29 4 -25 -3 6 -10 -21 -27 -37
-23 -5 1 -6 -3 -2 -9 4 -6 13 -7 23 -1 9 4 37 11 62 15 25 4 56 9 70 12 17 4
21 3 12 -4 -10 -6 -1 -9 27 -9 22 0 48 -6 56 -13 13 -11 14 -10 10 2 -11 28
-165 60 -165 35z"/>
<path d="M490 552 c0 -5 9 -17 19 -26 11 -10 21 -28 23 -40 2 -13 11 -22 26
-24 14 -2 22 -10 22 -22 0 -10 4 -21 8 -24 10 -6 -1 68 -13 98 -8 19 -9 19
-15 0 -4 -10 -2 -22 4 -26 7 -5 4 -8 -6 -8 -11 0 -18 8 -18 20 0 11 -4 20 -9
20 -5 0 -13 9 -16 20 -6 20 -25 28 -25 12z"/>
<path d="M2666 527 c38 -13 83 -31 100 -40 32 -18 211 -87 225 -87 5 0 9 4 9
9 0 9 -120 57 -132 53 -5 -1 -8 3 -8 9 0 5 -4 8 -9 5 -14 -9 -101 37 -101 54
0 12 -2 12 -8 2 -7 -10 -15 -10 -38 -1 -16 6 -47 13 -69 15 -33 4 -28 0 31
-19z"/>
<path d="M2486 522 c-2 -4 -1 -14 5 -22 7 -12 9 -10 9 8 0 23 -5 28 -14 14z"/>
<path d="M2600 520 c0 -6 8 -13 18 -17 39 -14 82 -54 82 -79 0 -27 -26 -33
-50 -11 -12 10 -12 9 -2 -4 6 -9 10 -18 7 -21 -3 -2 9 -3 25 0 25 4 30 9 30
32 0 30 -19 55 -67 88 -35 25 -43 27 -43 12z"/>
<path d="M1045 510 c3 -5 8 -10 11 -10 2 0 4 5 4 10 0 6 -5 10 -11 10 -5 0 -7
-4 -4 -10z"/>
<path d="M2463 501 c1 -11 7 -23 14 -26 11 -4 11 0 2 18 -16 31 -18 32 -16 8z"/>
<path d="M473 492 c1 -14 5 -18 11 -12 7 7 6 14 -1 21 -9 9 -12 7 -10 -9z"/>
<path d="M693 475 c-6 -19 -8 -35 -3 -35 8 0 23 60 17 67 -2 1 -8 -13 -14 -32z"/>
<path d="M729 460 c-1 -46 -3 -50 -9 -25 l-8 30 -1 -30 c-1 -39 9 -76 19 -70
4 3 10 -2 14 -10 8 -22 25 -18 19 5 -3 11 -10 20 -15 20 -5 0 -6 5 -3 10 4 6
11 8 16 5 5 -4 9 3 9 15 0 13 -4 19 -11 14 -8 -4 -8 -1 -1 12 7 14 4 27 -9 49
l-19 30 -1 -55z"/>
<path d="M162 486 c7 -8 15 -12 17 -11 5 6 -10 25 -20 25 -5 0 -4 -6 3 -14z"/>
<path d="M2189 467 c-15 -18 -30 -48 -34 -66 -6 -29 -5 -33 10 -28 9 4 23 7
30 7 9 0 11 8 8 23 -5 22 -5 22 10 2 16 -20 16 -20 17 3 0 28 -30 30 -37 2 -3
-11 -12 -20 -20 -20 -13 0 -13 3 -3 15 7 9 10 18 7 22 -4 3 5 16 19 28 15 13
25 28 23 34 -2 6 -16 -4 -30 -22z"/>
<path d="M1609 460 c-5 -28 -2 -33 19 -36 22 -4 22 -3 6 21 -18 27 -23 30 -25
15z"/>
<path d="M2256 462 c-8 -13 24 -53 35 -46 6 3 3 12 -8 20 -17 13 -17 14 2 7
18 -6 18 -5 6 10 -15 19 -27 22 -35 9z"/>
<path d="M2570 431 c0 -4 13 -11 28 -17 23 -9 29 -8 29 3 0 8 -6 12 -14 9 -7
-3 -13 -2 -13 3 0 4 -7 8 -15 8 -8 0 -15 -3 -15 -6z"/>
<path d="M2835 430 c3 -5 0 -10 -7 -10 -10 0 -9 -3 2 -10 9 -6 17 -5 21 2 4 6
11 3 17 -8 7 -13 20 -18 41 -16 17 1 31 -2 31 -8 0 -5 3 -9 8 -9 18 3 26 -2
13 -10 -9 -6 -10 -11 -2 -15 6 -4 11 -2 11 3 0 6 7 11 15 11 8 0 15 5 15 11 0
5 -4 7 -10 4 -5 -3 -10 -2 -10 3 0 6 -14 15 -31 21 -24 8 -36 8 -47 -2 -13
-10 -15 -9 -9 7 5 13 3 17 -7 13 -8 -3 -20 1 -26 9 -14 16 -35 19 -25 4z"/>
<path d="M952 414 c-7 -8 -8 -14 -3 -14 10 0 25 19 20 25 -2 1 -10 -3 -17 -11z"/>
<path d="M2532 425 c14 -36 32 -64 40 -59 4 3 8 -4 8 -15 0 -25 -2 -25 -41 -6
-18 10 -27 21 -23 28 4 7 3 9 -1 4 -5 -4 -22 5 -39 20 -35 32 -18 5 28 -44 30
-33 58 -41 85 -24 12 8 12 13 -2 33 -23 33 -59 75 -55 63z"/>
<path d="M1614 376 c4 -20 16 -58 27 -84 13 -30 19 -64 18 -94 -3 -52 8 -72
30 -58 12 7 12 11 -1 24 -9 9 -13 25 -11 40 5 27 17 33 28 16 3 -5 1 -10 -4
-10 -6 0 -11 -8 -10 -17 0 -11 3 -13 6 -5 8 20 20 14 25 -13 3 -13 1 -22 -3
-19 -5 3 -9 0 -9 -5 0 -6 6 -11 13 -11 7 0 20 -12 29 -27 30 -48 20 0 -12 60
-18 35 -26 58 -19 62 11 8 -7 35 -23 35 -6 0 -5 -7 2 -15 8 -10 9 -15 1 -15
-6 0 -18 11 -26 24 -12 18 -13 29 -5 51 6 15 8 30 5 33 -3 3 -5 -1 -6 -9 -1
-8 -7 4 -13 26 -8 24 -20 41 -31 43 -15 4 -17 -1 -11 -32z m36 -26 c0 -5 -4
-10 -10 -10 -5 0 -10 5 -10 10 0 6 5 10 10 10 6 0 10 -4 10 -10z"/>
<path d="M467 377 c15 -13 47 -29 71 -35 53 -13 52 -11 -22 27 -69 37 -88 40
-49 8z"/>
<path d="M404 367 c3 -33 12 -43 19 -23 3 8 -1 22 -8 33 -13 17 -14 16 -11
-10z"/>
<path d="M2730 375 c0 -24 -31 -31 -46 -10 -12 16 -14 16 -14 3 0 -21 49 -38
114 -39 28 -1 42 -3 31 -6 -11 -3 -24 -10 -30 -15 -7 -7 -1 -8 20 -3 38 9 37
8 26 36 -5 13 -10 19 -10 13 -1 -6 -11 -10 -23 -8 -13 1 -33 3 -45 3 -16 1
-20 6 -16 21 3 11 3 20 -1 20 -3 0 -6 -7 -6 -15z"/>
<path d="M2421 345 c12 -19 25 -35 30 -35 5 0 -1 16 -13 35 -30 45 -43 45 -17
0z"/>
<path d="M2780 370 c-13 -8 -12 -10 3 -10 9 0 17 5 17 10 0 12 -1 12 -20 0z"/>
<path d="M2477 344 c5 -13 3 -15 -8 -9 -12 8 -12 6 0 -8 7 -9 19 -17 25 -16 7
0 7 2 -1 5 -7 3 -10 11 -7 19 3 7 1 16 -5 20 -7 4 -8 0 -4 -11z"/>
<path d="M2880 347 c0 -10 8 -17 18 -17 9 0 13 4 7 8 -5 4 -13 11 -17 16 -5 5
-8 2 -8 -7z"/>
<path d="M35 318 c-7 -37 0 -62 15 -53 4 3 10 -5 14 -18 5 -17 8 -19 15 -8 7
11 11 10 20 -5 6 -11 10 -14 10 -9 0 14 -28 50 -37 48 -4 -1 -6 5 -4 12 1 8
-4 27 -12 42 l-14 28 -7 -37z m12 -35 c-3 -10 -5 -4 -5 12 0 17 2 24 5 18 2
-7 2 -21 0 -30z"/>
<path d="M1985 320 c-19 -37 -19 -51 1 -25 26 34 36 55 25 55 -6 0 -17 -13
-26 -30z"/>
<path d="M2617 329 c4 -13 9 -17 15 -11 11 11 3 32 -12 32 -4 0 -6 -9 -3 -21z"/>
<path d="M2657 330 c5 -19 24 -25 66 -21 9 1 17 -3 17 -8 0 -6 -3 -10 -7 -10
-5 1 -24 0 -43 -1 -24 -2 -13 -5 33 -11 38 -4 71 -10 74 -13 3 -3 -2 -17 -11
-30 -9 -14 -16 -28 -16 -31 0 -13 28 22 34 43 4 12 18 25 32 28 13 3 24 13 24
23 0 10 -3 12 -8 5 -4 -6 -27 -15 -51 -19 -41 -7 -43 -6 -36 14 6 19 2 21 -32
21 -21 0 -48 7 -60 15 -20 14 -21 13 -16 -5z"/>
<path d="M285 274 c-7 -59 -5 -68 13 -87 20 -19 22 -19 28 -3 9 24 -13 46 -27
26 -8 -12 -9 -11 -6 5 2 11 9 19 16 17 9 -2 9 3 1 17 -5 11 -10 35 -9 53 0 26
2 29 8 14 6 -17 8 -17 14 -4 6 18 0 28 -19 28 -8 0 -15 -24 -19 -66z"/>
<path d="M434 333 c5 -9 -1 -13 -21 -13 -22 0 -25 -2 -13 -10 8 -5 32 -10 53
-10 38 0 45 -8 25 -28 -9 -9 -7 -16 7 -32 19 -20 41 -28 30 -10 -3 6 4 14 16
18 20 8 20 9 5 15 -10 4 -22 5 -26 2 -5 -3 -11 -1 -14 4 -11 18 12 21 64 10
28 -6 58 -12 65 -13 18 -3 65 -56 65 -73 0 -7 4 -13 9 -13 5 0 11 -10 15 -23
3 -12 15 -28 27 -35 20 -13 21 -12 15 4 -6 17 -6 17 12 1 10 -9 38 -27 62 -40
34 -18 45 -29 45 -48 0 -18 6 -24 22 -24 12 0 25 -4 29 -8 4 -4 15 -7 25 -7
13 0 17 5 12 18 -10 29 -35 52 -56 52 -11 0 -28 6 -36 13 -30 26 -129 77 -133
70 -3 -5 -3 -3 -2 4 2 6 -4 17 -12 23 -8 7 -14 17 -14 22 0 5 -17 27 -37 49
-26 28 -42 38 -55 33 -15 -4 -19 -1 -16 13 3 16 -6 18 -72 21 -41 2 -81 8 -89
15 -12 9 -13 9 -7 0z m474 -302 c3 -8 -1 -12 -9 -9 -7 2 -15 10 -17 17 -3 8 1
12 9 9 7 -2 15 -10 17 -17z"/>
<path d="M2940 321 c0 -5 9 -7 20 -4 11 3 20 7 20 9 0 2 -9 4 -20 4 -11 0 -20
-4 -20 -9z"/>
<path d="M11 304 c0 -11 3 -14 6 -6 3 7 2 16 -1 19 -3 4 -6 -2 -5 -13z"/>
<path d="M1270 316 c0 -3 18 -25 40 -47 38 -40 49 -59 32 -59 -4 0 -8 -9 -9
-20 -1 -12 3 -18 8 -14 6 3 13 -4 16 -16 4 -15 11 -20 24 -17 11 3 19 1 19 -4
0 -5 -4 -9 -10 -9 -5 0 -7 -8 -3 -17 3 -10 3 -15 -1 -11 -9 8 -52 -29 -44 -37
8 -9 58 6 58 17 0 5 4 7 9 4 13 -8 42 4 35 15 -3 5 1 9 8 9 8 0 6 5 -5 11 -9
5 -23 7 -30 3 -6 -4 -9 -4 -5 1 4 4 -4 22 -17 39 -13 17 -26 43 -30 58 -6 23
-95 111 -95 94z"/>
<path d="M2899 318 c-5 -17 -4 -48 3 -48 4 0 8 11 8 25 0 20 -7 34 -11 23z"/>
<path d="M2957 303 c-10 -9 13 -33 32 -32 10 0 8 3 -7 10 -13 5 -20 13 -17 19
7 11 2 13 -8 3z"/>
<path d="M2196 285 c-11 -8 -17 -18 -13 -22 4 -3 15 1 26 11 34 31 42 2 38
-143 -4 -119 -3 -131 13 -131 19 0 30 51 30 137 0 24 8 56 17 71 17 27 17 27
-4 9 -20 -17 -21 -17 -33 13 -7 17 -10 33 -7 37 8 7 -23 32 -38 32 -5 0 -19
-6 -29 -14z"/>
<path d="M421 274 c0 -11 3 -14 6 -6 3 7 2 16 -1 19 -3 4 -6 -2 -5 -13z"/>
<path d="M2710 255 c7 -8 17 -15 22 -15 5 0 3 7 -6 15 -8 8 -18 15 -22 15 -3
0 -1 -7 6 -15z"/>
<path d="M20 247 c0 -7 9 -18 20 -25 26 -16 26 -8 0 18 -12 12 -20 15 -20 7z"/>
<path d="M600 245 c7 -8 20 -15 29 -15 13 1 13 3 -3 15 -26 19 -42 19 -26 0z"/>
<path d="M2090 250 c-8 -5 -10 -10 -5 -10 6 0 17 5 25 10 8 5 11 10 5 10 -5 0
-17 -5 -25 -10z"/>
<path d="M2138 253 c6 -2 18 -2 25 0 6 3 1 5 -13 5 -14 0 -19 -2 -12 -5z"/>
<path d="M2856 243 c-6 -14 -5 -15 5 -6 7 7 10 15 7 18 -3 3 -9 -2 -12 -12z"/>
<path d="M2930 249 c0 -5 5 -7 10 -4 6 3 10 8 10 11 0 2 -4 4 -10 4 -5 0 -10
-5 -10 -11z"/>
<path d="M2970 250 c0 -5 5 -10 11 -10 5 0 7 5 4 10 -3 6 -8 10 -11 10 -2 0
-4 -4 -4 -10z"/>
<path d="M2210 235 c-9 -10 -9 -19 -2 -27 5 -7 12 -22 15 -33 2 -11 5 1 6 28
1 51 -1 54 -19 32z"/>
<path d="M370 224 c0 -8 5 -12 10 -9 6 4 8 11 5 16 -9 14 -15 11 -15 -7z"/>
<path d="M1290 225 c0 -8 -5 -15 -10 -15 -7 0 -8 -19 -4 -52 8 -63 10 -66 29
-47 11 11 13 22 6 46 -5 18 -8 44 -7 58 2 14 -1 25 -5 25 -5 0 -9 -7 -9 -15z"/>
<path d="M2054 205 c-9 -14 -20 -22 -25 -19 -5 3 -4 -7 3 -22 10 -22 10 -28 0
-32 -10 -3 -10 -7 -1 -18 6 -7 9 -25 5 -38 -4 -15 0 -28 10 -36 8 -7 13 -19
10 -27 -3 -7 1 -13 9 -13 15 0 15 32 -1 108 -3 17 1 25 18 31 13 5 27 6 32 3
5 -3 6 0 2 7 -5 7 -14 10 -22 7 -7 -3 -20 2 -29 10 -13 14 -13 18 1 40 9 13
14 24 10 24 -3 0 -13 -11 -22 -25z"/>
<path d="M2920 215 c-7 -9 -11 -17 -9 -20 3 -2 10 5 17 15 14 24 10 26 -8 5z"/>
<path d="M70 210 c0 -6 7 -10 15 -10 8 0 15 2 15 4 0 2 -7 6 -15 10 -8 3 -15
1 -15 -4z"/>
<path d="M2881 204 c0 -11 3 -14 6 -6 3 7 2 16 -1 19 -3 4 -6 -2 -5 -13z"/>
<path d="M2970 210 c0 -5 5 -10 10 -10 6 0 10 5 10 10 0 6 -4 10 -10 10 -5 0
-10 -4 -10 -10z"/>
<path d="M110 198 c0 -9 5 -20 10 -23 13 -8 13 5 0 25 -8 13 -10 13 -10 -2z"/>
<path d="M2174 196 c-6 -6 -8 -20 -4 -31 6 -17 8 -16 14 9 8 33 5 39 -10 22z"/>
<path d="M2941 194 c0 -11 3 -14 6 -6 3 7 2 16 -1 19 -3 4 -6 -2 -5 -13z"/>
<path d="M816 193 c-2 -3 -2 -12 1 -21 5 -14 3 -15 -8 -4 -16 14 -49 16 -49 2
0 -5 11 -12 25 -16 13 -3 29 -12 36 -20 18 -21 32 -17 51 16 9 17 16 30 15 30
-1 0 -16 4 -34 9 -17 5 -34 7 -37 4z m21 -35 c-3 -8 -6 -5 -6 6 -1 11 2 17 5
13 3 -3 4 -12 1 -19z m18 -17 c-3 -6 -11 -11 -16 -11 -5 0 -4 6 3 14 14 16 24
13 13 -3z"/>
<path d="M927 180 c-3 -10 0 -21 7 -24 6 -2 -1 -5 -16 -5 -15 -1 -30 -6 -34
-12 -4 -8 1 -9 17 -4 13 5 38 7 56 7 20 -1 33 4 37 15 5 13 4 14 -9 3 -10 -8
-15 -9 -15 -2 0 7 -7 9 -17 5 -13 -5 -15 -2 -11 15 4 12 3 22 -2 22 -4 0 -10
-9 -13 -20z"/>
<path d="M2196 184 c-4 -9 -4 -19 -1 -22 2 -3 7 3 11 12 4 9 4 19 1 22 -2 3
-7 -3 -11 -12z"/>
<path d="M2386 192 c-3 -5 1 -9 9 -9 8 0 15 4 15 9 0 4 -4 8 -9 8 -6 0 -12 -4
-15 -8z"/>
<path d="M2121 142 c-7 -26 -15 -68 -18 -94 -4 -39 -2 -48 11 -48 9 0 19 15
25 38 21 78 23 100 9 126 l-13 26 -14 -48z"/>
<path d="M2727 170 c-14 -16 -15 -25 -7 -38 11 -15 11 -15 6 2 -4 12 -2 17 6
13 8 -3 14 5 14 19 2 29 3 29 -19 4z"/>
<path d="M2830 157 c0 -8 7 -17 15 -21 8 -3 15 -3 15 0 0 3 -7 12 -15 20 -13
13 -15 13 -15 1z"/>
<path d="M2920 158 c0 -6 3 -8 7 -5 3 4 12 -1 20 -11 12 -16 13 -16 7 1 -7 20
6 23 24 5 8 -8 12 -8 12 -1 0 6 -7 14 -16 17 -26 10 -54 7 -54 -6z"/>
<path d="M2344 131 c1 -34 16 -43 16 -10 0 16 4 19 20 14 12 -4 29 1 42 10
l23 17 -25 -8 c-30 -9 -40 -9 -61 0 -13 6 -16 1 -15 -23z"/>
<path d="M2190 134 c0 -8 5 -12 10 -9 6 3 10 10 10 16 0 5 -4 9 -10 9 -5 0
-10 -7 -10 -16z"/>
<path d="M2316 138 c-13 -45 -27 -131 -22 -135 11 -12 19 7 22 54 2 26 6 58 9
71 6 23 -3 32 -9 10z"/>
<path d="M2544 132 c3 -5 -6 -13 -21 -16 -20 -6 -23 -10 -13 -19 10 -9 14 -9
17 1 3 6 12 12 21 12 31 -1 54 -28 59 -69 3 -23 9 -41 14 -41 9 0 6 41 -5 58
-4 7 -3 12 3 12 5 0 11 -5 13 -12 2 -6 10 -8 16 -4 20 12 13 25 -15 28 -19 2
-29 10 -34 28 -4 14 -7 19 -8 11 -1 -10 -7 -10 -27 4 -15 9 -24 13 -20 7z"/>
<path d="M918 123 c-59 -5 -63 -22 -5 -25 65 -2 67 -2 76 -17 7 -11 11 -9 21
9 13 25 0 41 -30 38 -8 -1 -36 -3 -62 -5z"/>
<path d="M2081 114 c0 -11 3 -14 6 -6 3 7 2 16 -1 19 -3 4 -6 -2 -5 -13z"/>
<path d="M2475 120 c3 -5 8 -10 11 -10 2 0 4 5 4 10 0 6 -5 10 -11 10 -5 0 -7
-4 -4 -10z"/>
<path d="M2617 117 c-3 -8 1 -14 9 -14 16 0 19 13 5 21 -5 3 -11 0 -14 -7z"/>
<path d="M2775 120 c4 -6 11 -8 16 -5 14 9 11 15 -7 15 -8 0 -12 -5 -9 -10z"/>
<path d="M2890 113 c0 -7 6 -10 17 -6 11 4 14 3 9 -5 -4 -7 -2 -12 3 -12 20 0
11 -18 -11 -23 -21 -6 -21 -7 -5 -25 9 -10 14 -22 10 -27 -5 -4 -2 -5 5 0 10
5 11 10 3 18 -16 16 -13 27 6 20 10 -4 14 -2 9 5 -3 6 -2 13 4 17 5 3 10 11
10 16 0 6 -4 7 -10 4 -5 -3 -10 -1 -10 4 0 6 8 11 17 11 28 0 6 12 -26 14 -20
1 -31 -3 -31 -11z"/>
<path d="M2171 104 c0 -11 3 -14 6 -6 3 7 2 16 -1 19 -3 4 -6 -2 -5 -13z"/>
<path d="M2370 104 c0 -10 7 -14 23 -12 12 2 22 7 22 12 0 5 -10 11 -22 12
-16 3 -23 -1 -23 -12z"/>
<path d="M2677 114 c-8 -8 1 -24 14 -24 5 0 9 7 9 15 0 15 -12 20 -23 9z"/>
<path d="M2731 111 c-8 -6 -9 -11 -3 -15 6 -3 14 -1 17 5 9 14 2 20 -14 10z"/>
<path d="M2972 75 c0 -19 4 -35 10 -35 5 0 6 -5 3 -10 -4 -6 -12 -7 -18 -3 -7
4 -6 0 2 -10 20 -25 32 -10 25 31 -4 20 -7 43 -7 50 0 6 -4 12 -8 12 -4 0 -7
-16 -7 -35z"/>
<path d="M151 80 c0 -14 6 -38 14 -55 l14 -30 -6 30 c-3 17 -10 41 -14 55 l-7
25 -1 -25z"/>
<path d="M1020 90 c0 -12 8 -12 35 0 18 8 17 9 -7 9 -16 1 -28 -3 -28 -9z"/>
<path d="M1178 93 c7 -3 16 -2 19 1 4 3 -2 6 -13 5 -11 0 -14 -3 -6 -6z"/>
<path d="M1460 92 c0 -5 7 -15 15 -22 8 -7 15 -8 15 -2 0 5 -7 15 -15 22 -8 7
-15 8 -15 2z"/>
<path d="M2450 85 c-7 -9 -10 -18 -6 -22 3 -3 6 -1 6 5 0 6 8 12 18 14 11 2
13 6 6 11 -7 4 -17 0 -24 -8z"/>
<path d="M2833 82 c1 -14 7 -17 24 -14 13 2 26 9 30 15 3 6 1 7 -5 3 -6 -4
-20 -2 -31 4 -16 8 -20 7 -18 -8z"/>
<path d="M792 80 c2 -8 19 -23 36 -33 27 -16 31 -17 26 -3 -3 9 -11 16 -17 16
-6 0 -19 8 -30 18 -16 13 -19 14 -15 2z"/>
<path d="M1115 80 c-3 -5 -1 -10 4 -10 6 0 11 5 11 10 0 6 -2 10 -4 10 -3 0
-8 -4 -11 -10z"/>
<path d="M2404 45 c-9 -41 -9 -44 10 -41 11 1 23 11 26 21 6 17 8 16 24 -6 17
-23 18 -23 11 -1 -4 13 -2 22 4 22 6 0 11 -5 11 -11 0 -5 5 -7 10 -4 6 3 10
10 10 15 0 13 -73 9 -83 -4 -5 -6 -6 3 -3 22 8 49 -8 38 -20 -13z"/>
<path d="M2490 80 c0 -5 5 -10 10 -10 6 0 10 5 10 10 0 6 -4 10 -10 10 -5 0
-10 -4 -10 -10z"/>
<path d="M2552 78 c5 -15 28 -23 28 -10 0 5 -7 13 -16 16 -10 4 -14 1 -12 -6z"/>
<path d="M2346 71 c-4 -7 -5 -15 -2 -18 9 -9 19 4 14 18 -4 11 -6 11 -12 0z"/>
<path d="M2665 60 c-3 -10 -12 -20 -19 -22 -10 -2 -8 -8 6 -22 18 -19 18 -19
18 12 0 41 16 42 25 2 5 -25 10 -29 20 -20 8 7 20 8 26 4 8 -4 9 -3 5 4 -11
19 20 14 40 -6 17 -16 18 -16 11 1 -3 9 -2 17 3 17 6 0 10 5 10 10 0 7 -6 8
-17 2 -19 -11 -73 2 -84 20 -12 19 -38 18 -44 -2z"/>
<path d="M414 59 c-12 -19 13 -34 32 -18 15 12 17 12 12 -1 -5 -16 14 -40 31
-40 17 0 13 12 -14 43 -25 28 -49 35 -61 16z"/>
<path d="M2156 44 c-6 -24 -2 -44 8 -33 9 11 15 59 7 59 -5 0 -12 -12 -15 -26z"/>
<path d="M2544 43 c2 -9 12 -20 24 -24 18 -7 22 -5 22 14 0 18 -2 19 -10 7 -5
-8 -10 -10 -10 -4 0 7 -6 14 -14 17 -9 4 -13 0 -12 -10z"/>
<path d="M2865 40 c5 -15 4 -20 -4 -16 -6 4 -11 2 -11 -3 0 -6 11 -10 25 -9
30 3 30 3 4 29 l-21 21 7 -22z"/>
<path d="M1462 25 c-7 -15 -8 -25 -2 -25 6 0 10 8 11 18 0 15 1 15 8 -2 7 -18
8 -18 14 -2 17 42 -12 52 -31 11z"/>
<path d="M2016 25 c-3 -8 -1 -15 4 -15 6 0 10 7 10 15 0 8 -2 15 -4 15 -2 0
-6 -7 -10 -15z"/>
<path d="M980 21 c0 -6 4 -13 10 -16 6 -3 7 1 4 9 -7 18 -14 21 -14 7z"/>
<path d="M2340 20 c0 -5 5 -10 10 -10 6 0 10 5 10 10 0 6 -4 10 -10 10 -5 0
-10 -4 -10 -10z"/>
</g>
</svg>
